<?xml version="1.0" standalone="no"?>
<!DOCTYPE svg PUBLIC "-//W3C//DTD SVG 1.1//EN" "http://www.w3.org/Graphics/SVG/1.1/DTD/svg11.dtd" >
<svg xmlns="http://www.w3.org/2000/svg" xmlns:xlink="http://www.w3.org/1999/xlink" version="1.1">
<metadata>
Created by FontForge 20170924 at Sun Mar 13 11:29:08 2016
 By root
Copyright (c) 2015 by Rabar Arkan Design. All rights reserved.
</metadata>
<defs>
<font id="Speda-Bold" horiz-adv-x="1088" >
  <font-face 
    font-family="Speda"
    font-weight="700"
    font-stretch="normal"
    units-per-em="2048"
    panose-1="2 11 6 4 3 5 4 4 2 4"
    ascent="1638"
    descent="-410"
    x-height="1247"
    cap-height="1579"
    bbox="-233 -948 2587 1982"
    underline-thickness="128"
    underline-position="-544"
    unicode-range="U+0020-FEFC"
  />
<missing-glyph horiz-adv-x="1536" 
d="M256 0v1280h1024v-1280h-1024zM288 32h960v1216h-960v-1216z" />
    <glyph glyph-name="uniFEF5" unicode="&#xfedf;&#xfe82;" horiz-adv-x="1090" arabic-form="isolated" 
d="M139 1370q51 -47 123 -100l144 -119q75 -61 150 -132t136 -151q15 17 15 121v326l251 82v-414q0 -164 -122 -305q170 -262 170 -467v-211h-930v276q76 50 146.5 104t132 106.5t110.5 99.5l86 84q-57 80 -127 147.5t-141.5 124.5t-140 106.5t-122.5 92.5zM799 223
q-6 25 -17.5 58.5t-28 71.5t-37 78t-44.5 75l-82 -80q-39 -35 -81 -68.5t-91 -66.5l-107 -68h488zM537 1489q11 -6 29 -9.5t41 -4t49.5 2t54.5 7.5l32 6l32 5q77 14 128 -3.5t79 -59.5q-22 12 -67.5 13.5t-101.5 -7.5q-17 -4 -35.5 -8t-36.5 -7q-73 -13 -125.5 5t-78.5 60z
" />
    <glyph glyph-name="uniFEF6" unicode="&#xfee0;&#xfe82;" horiz-adv-x="1454" arabic-form="final" 
d="M209 1040q16 11 52 25t73 31q43 18 92 37q61 -80 119.5 -204t106.5 -256t85 -253t58 -195q45 6 72.5 26.5t43 48.5t20.5 60.5t5 65.5v885l262 78v-975v-68q0 -65 34 -94t89 -29h164v-223h-92q-99 0 -168.5 37t-104.5 98q-47 -59 -132 -97t-228 -38h-719l72 223h428
q-17 72 -43.5 167t-66.5 202.5t-95 222.5t-127 225zM537 1489q11 -6 29 -9.5t41 -4t49.5 2t54.5 7.5l32 6l32 5q77 14 128 -3.5t79 -59.5q-22 12 -67.5 13.5t-101.5 -7.5q-17 -4 -35.5 -8t-36.5 -7q-73 -13 -125.5 5t-78.5 60z" />
    <glyph glyph-name="uniFEF7" unicode="&#xfedf;&#xfe84;" horiz-adv-x="1090" arabic-form="isolated" 
d="M139 1370q51 -47 123 -100l144 -119q75 -61 150 -132t136 -151q15 17 15 121v326l251 82v-414q0 -164 -122 -305q170 -262 170 -467v-211h-930v276q76 50 146.5 104t132 106.5t110.5 99.5l86 84q-57 80 -127 147.5t-141.5 124.5t-140 106.5t-122.5 92.5zM799 223
q-6 25 -17.5 58.5t-28 71.5t-37 78t-44.5 75l-82 -80q-39 -35 -81 -68.5t-91 -66.5l-107 -68h488zM574 1441q18 19 43 36l50 32q-15 3 -28 13.5t-21.5 25.5t-13.5 30t-5 28q0 31 16 60t41 52.5t57.5 38t65.5 17t63.5 -10.5t51.5 -46l-31 -26l-44 -37q-20 22 -48 25
q-19 1 -32.5 -3t-22.5 -11.5t-13 -17.5t-5 -20q-2 -18 7 -31.5t22 -22.5t28.5 -13t26.5 -1l76 18q35 7 70 12q-13 -26 -23.5 -56.5t-17.5 -57.5q-39 0 -80.5 -8.5t-82.5 -23.5t-79.5 -33.5t-69.5 -40.5z" />
    <glyph glyph-name="uniFEF8" unicode="&#xfee0;&#xfe84;" horiz-adv-x="1454" arabic-form="final" 
d="M209 1040q16 11 52 25t73 31q43 18 92 37q61 -80 119.5 -204t106.5 -256t85 -253t58 -195q45 6 72.5 26.5t43 48.5t20.5 60.5t5 65.5v885l262 78v-975v-68q0 -65 34 -94t89 -29h164v-223h-92q-99 0 -168.5 37t-104.5 98q-47 -59 -132 -97t-228 -38h-719l72 223h428
q-17 72 -43.5 167t-66.5 202.5t-95 222.5t-127 225zM770 1457q18 19 43 36l50 32q-15 3 -28 13.5t-21.5 25.5t-13.5 30t-5 28q0 31 16 60t41 52.5t57.5 38t65.5 17t63.5 -10.5t51.5 -46l-31 -26l-44 -37q-20 22 -48 25q-19 1 -32.5 -3t-22.5 -11.5t-13 -17.5t-5 -20
q-2 -18 7 -31.5t22 -22.5t28.5 -13t26.5 -1l76 18q35 7 70 12q-13 -26 -23.5 -56.5t-17.5 -57.5q-39 0 -80.5 -8.5t-82.5 -23.5t-79.5 -33.5t-69.5 -40.5z" />
    <glyph glyph-name="uniFEF9" unicode="&#xfedf;&#xfe88;" horiz-adv-x="1090" arabic-form="isolated" 
d="M139 1370q51 -47 123 -100l144 -119q75 -61 150 -132t136 -151q15 17 15 121v326l251 82v-414q0 -164 -122 -305q170 -262 170 -467v-211h-930v276q76 50 146.5 104t132 106.5t110.5 99.5l86 84q-57 80 -127 147.5t-141.5 124.5t-140 106.5t-122.5 92.5zM799 223
q-6 25 -17.5 58.5t-28 71.5t-37 78t-44.5 75l-82 -80q-39 -35 -81 -68.5t-91 -66.5l-107 -68h488zM301 -420q18 19 43 36l50 32q-15 3 -28 13.5t-21.5 25.5t-13.5 30t-5 28q0 31 16 60t41 52.5t57.5 38t65.5 17t63.5 -10.5t51.5 -46l-31 -26l-44 -37q-20 22 -48 25
q-19 1 -32.5 -3t-22.5 -11.5t-13 -17.5t-5 -20q-2 -18 7 -31.5t22 -22.5t28.5 -13t26.5 -1l76 18q35 7 70 12q-13 -26 -23.5 -56.5t-17.5 -57.5q-39 0 -80.5 -8.5t-82.5 -23.5t-79.5 -33.5t-69.5 -40.5z" />
    <glyph glyph-name="uniFEFA" unicode="&#xfee0;&#xfe88;" horiz-adv-x="1454" arabic-form="final" 
d="M209 1040q16 11 52 25t73 31q43 18 92 37q61 -80 119.5 -204t106.5 -256t85 -253t58 -195q45 6 72.5 26.5t43 48.5t20.5 60.5t5 65.5v885l262 78v-975v-68q0 -65 34 -94t89 -29h164v-223h-92q-99 0 -168.5 37t-104.5 98q-47 -59 -132 -97t-228 -38h-719l72 223h428
q-17 72 -43.5 167t-66.5 202.5t-95 222.5t-127 225zM321 -412q18 19 43 36l50 32q-15 3 -28 13.5t-21.5 25.5t-13.5 30t-5 28q0 31 16 60t41 52.5t57.5 38t65.5 17t63.5 -10.5t51.5 -46l-31 -26l-44 -37q-20 22 -48 25q-19 1 -32.5 -3t-22.5 -11.5t-13 -17.5t-5 -20
q-2 -18 7 -31.5t22 -22.5t28.5 -13t26.5 -1l76 18q35 7 70 12q-13 -26 -23.5 -56.5t-17.5 -57.5q-39 0 -80.5 -8.5t-82.5 -23.5t-79.5 -33.5t-69.5 -40.5z" />
    <glyph glyph-name="uniFEFB" unicode="&#xfedf;&#xfe8e;" horiz-adv-x="1090" arabic-form="isolated" 
d="M139 1370q51 -47 123 -100l144 -119q75 -61 150 -132t136 -151q15 17 15 121v326l251 82v-414q0 -164 -122 -305q170 -262 170 -467v-211h-930v276q76 50 146.5 104t132 106.5t110.5 99.5l86 84q-57 80 -127 147.5t-141.5 124.5t-140 106.5t-122.5 92.5zM799 223
q-6 25 -17.5 58.5t-28 71.5t-37 78t-44.5 75l-82 -80q-39 -35 -81 -68.5t-91 -66.5l-107 -68h488z" />
    <glyph glyph-name="uniFEFC" unicode="&#xfee0;&#xfe8e;" horiz-adv-x="1454" arabic-form="final" 
d="M209 1040q16 11 52 25t73 31q43 18 92 37q61 -80 119.5 -204t106.5 -256t85 -253t58 -195q45 6 72.5 26.5t43 48.5t20.5 60.5t5 65.5v885l262 78v-975v-68q0 -65 34 -94t89 -29h164v-223h-92q-99 0 -168.5 37t-104.5 98q-47 -59 -132 -97t-228 -38h-719l72 223h428
q-17 72 -43.5 167t-66.5 202.5t-95 222.5t-127 225z" />
    <glyph glyph-name="lla1" unicode="&#xe008;&#xfe8e;" horiz-adv-x="1090" 
d="M139 1370q51 -47 123 -100l144 -119q75 -61 150 -132t136 -151q15 17 15 121v326l251 82v-414q0 -164 -122 -305q170 -262 170 -467v-211h-930v276q76 50 146.5 104t132 106.5t110.5 99.5l86 84q-57 80 -127 147.5t-141.5 124.5t-140 106.5t-122.5 92.5zM799 223
q-6 25 -17.5 58.5t-28 71.5t-37 78t-44.5 75l-82 -80q-39 -35 -81 -68.5t-91 -66.5l-107 -68h488zM588 1783l59 -90l-91 -281q-24 -10 -70 -23t-67 -20q-92 207 -192 331q11 6 38 17t46.5 17.5t39.5 10.5q102 -117 154 -221q38 156 83 259z" />
    <glyph glyph-name="lla2" unicode="&#xe009;&#xfe8e;" horiz-adv-x="1454" 
d="M209 1040q16 11 52 25t73 31q43 18 92 37q61 -80 119.5 -204t106.5 -256t85 -253t58 -195q45 6 72.5 26.5t43 48.5t20.5 60.5t5 65.5v885l262 78v-975v-68q0 -65 34 -94t89 -29h164v-223h-92q-99 0 -168.5 37t-104.5 98q-47 -59 -132 -97t-228 -38h-719l72 223h428
q-17 72 -43.5 167t-66.5 202.5t-95 222.5t-127 225zM784 1574l59 -90l-91 -281q-24 -10 -70 -23t-67 -20q-92 207 -192 331q11 6 38 17t46.5 17.5t39.5 10.5q102 -117 154 -221q38 156 83 259z" />
    <glyph glyph-name="uniFB6D" unicode="&#x6a4;" horiz-adv-x="1210" arabic-form="medial" 
d="M567 715q-73 0 -117 -18.5t-68 -44t-31 -56.5t-7 -55q0 -31 8 -72t32 -82t68 -77t115 -56q72 18 117 54t69.5 77t33 83t8.5 73q0 24 -6.5 55t-30 56.5t-68.5 44t-123 18.5zM-29 0v223h293q-67 39 -108 115t-41 160q0 100 32.5 178t92 131t143.5 82t186 29q213 0 334 -110
t121 -310q0 -84 -38 -160t-105 -115h362v-223h-524h-301h-447zM203 1161q0 66 46 112t111 46q64 0 108 -46t44 -112q0 -63 -44 -107t-108 -44q-65 0 -111 44t-46 107zM608 1161q0 66 46 112t112 46q63 0 107.5 -46t44.5 -112q0 -63 -44.5 -107t-107.5 -44q-66 0 -112 44
t-46 107zM397 1550q0 66 46 112t112 46q63 0 107.5 -46t44.5 -112q0 -63 -44.5 -108t-107.5 -45q-66 0 -112 45t-46 108z" />
    <glyph glyph-name="uniFB6B" unicode="&#x6a4;" horiz-adv-x="1708" arabic-form="final" 
d="M1311 223q-2 99 -7.5 199t-21.5 201q-158 -35 -254 -100.5t-100 -178.5q0 -59 34.5 -90t112.5 -31h236zM639 -467q-94 0 -191.5 32t-177.5 96.5t-130 161.5t-50 230q0 115 21.5 198t51.5 142.5t62.5 103.5t55.5 83h157q-53 -88 -92 -203t-39 -221q0 -64 19.5 -136.5
t61.5 -134t106.5 -102.5t154.5 -41h289q68 0 129 9t110.5 37t84 78t49.5 134h-250q-105 0 -175.5 20.5t-114.5 62.5t-62.5 106.5t-18.5 150.5q0 84 46 168t143.5 155.5t250 124t365.5 72.5q29 -170 43 -326.5t18 -310.5h181v-223h-181q-2 -35 -11 -83t-32.5 -100.5
t-62.5 -103.5t-101.5 -91t-151.5 -64.5t-212 -24.5h-346zM752 1161q0 66 46 112t111 46q64 0 108 -46t44 -112q0 -63 -44 -107t-108 -44q-65 0 -111 44t-46 107zM1157 1161q0 66 46 112t112 46q63 0 107 -46t44 -112q0 -63 -44 -107t-107 -44q-66 0 -112 44t-46 107z
M946 1550q0 66 46 112t112 46q63 0 107 -46t44 -112q0 -63 -44 -108t-107 -45q-66 0 -112 45t-46 108z" />
    <glyph glyph-name="uniFB6C" unicode="&#x6a4;" horiz-adv-x="1102" arabic-form="initial" 
d="M1016 215q0 -215 -156 -215h-889v223h400q-35 19 -67 48.5t-56.5 66.5t-39.5 78t-15 82q0 200 114.5 310t339.5 110q105 0 172.5 -36t108.5 -94.5t60.5 -133t25.5 -153.5t4 -154t-2 -132zM788 256q0 113 -5 199t-23.5 144t-55 87t-102.5 29q-59 0 -95 -18.5t-54.5 -44
t-24.5 -56.5t-6 -55q0 -41 24.5 -89.5t70.5 -89t114.5 -70.5t156.5 -36zM219 1161q0 66 46 112t112 46q63 0 107 -46t44 -112q0 -63 -44 -107t-107 -44q-66 0 -112 44t-46 107zM625 1161q0 66 46 112t111 46q64 0 108 -46t44 -112q0 -63 -44 -107t-108 -44q-65 0 -111 44
t-46 107zM414 1550q0 66 46 112t111 46q64 0 108 -46t44 -112q0 -63 -44 -108t-108 -45q-65 0 -111 45t-46 108z" />
    <glyph glyph-name="uniFB57" unicode="&#x67e;" horiz-adv-x="1829" arabic-form="final" 
d="M498 0q-86 0 -160 14.5t-129 47t-86 86t-31 128.5q0 115 21.5 198t51.5 142.5t62.5 103.5t55.5 83h198q-37 -60 -69.5 -125.5t-54 -130t-26.5 -122.5t14.5 -103.5t67.5 -72t134 -26.5h876v594l246 78v-672h191v-223h-1362zM674 -172q0 51 37 88t88 37t86 -37t35 -88
t-35 -86t-86 -35t-88 35t-37 86zM997 -172q0 51 37 88t88 37q52 0 86.5 -37t34.5 -88t-34.5 -86t-86.5 -35q-51 0 -88 35t-37 86zM829 -424q0 51 37 88t88 37q52 0 86.5 -37t34.5 -88t-34.5 -87t-86.5 -36q-51 0 -88 36t-37 87z" />
    <glyph glyph-name="uniFB58" unicode="&#x67e;" horiz-adv-x="817" arabic-form="initial" 
d="M-31 223h463v600l260 74l2 -897h-725v223zM74 -211q0 51 36.5 88t88.5 37q51 0 85.5 -37t34.5 -88t-34.5 -86t-85.5 -35q-52 0 -88.5 35t-36.5 86zM397 -211q0 51 37 88t88 37t86 -37t35 -88t-35 -86t-86 -35t-88 35t-37 86zM229 -463q0 51 37 88t88 37q52 0 86.5 -37
t34.5 -88t-34.5 -87t-86.5 -36q-51 0 -88 36t-37 87z" />
    <glyph glyph-name="uniFB59" unicode="&#x67e;" horiz-adv-x="913" arabic-form="medial" 
d="M-31 223h385v600l260 74v-674h330v-223h-975v223zM74 -211q0 51 36.5 88t88.5 37q51 0 85.5 -37t34.5 -88t-34.5 -86t-85.5 -35q-52 0 -88.5 35t-36.5 86zM397 -211q0 51 37 88t88 37t86 -37t35 -88t-35 -86t-86 -35t-88 35t-37 86zM229 -463q0 51 37 88t88 37
q52 0 86.5 -37t34.5 -88t-34.5 -87t-86.5 -36q-51 0 -88 36t-37 87z" />
    <glyph glyph-name="uniFB7B" unicode="&#x686;" horiz-adv-x="1415" arabic-form="final" 
d="M1126 -653q-182 -49 -352 -49q-127 0 -250 23.5t-219 78.5t-155.5 145t-59.5 224q0 129 50 251.5t145.5 228t231.5 187.5t306 131q-28 8 -62 23.5t-75 31t-89 26.5t-105 11q-54 0 -122.5 -32.5t-121.5 -98.5l-148 134q33 45 80 88t102.5 75.5t116 52t121.5 19.5
q60 0 150 -38t213 -79t220 -60.5t195 -17.5l-4 -274q-108 0 -193 -6t-175 -27q0 -55 27.5 -89t64.5 -52t72.5 -24.5t50.5 -6.5h303v-223h-330q-72 0 -137.5 28.5t-112.5 76t-72.5 106.5t-19.5 121q-117 -51 -201 -116.5t-138 -133.5t-79.5 -132.5t-25.5 -115.5
q0 -80 40 -138t112.5 -96t175 -56.5t227.5 -18.5q57 0 118.5 4t126.5 12zM571 -86q0 35 22.5 60.5t55.5 25.5q31 0 53.5 -25.5t22.5 -60.5t-22.5 -58.5t-53.5 -23.5q-33 0 -55.5 23.5t-22.5 58.5zM772 -86q0 35 22.5 60.5t55.5 25.5q31 0 53.5 -25.5t22.5 -60.5t-22.5 -58.5
t-53.5 -23.5q-33 0 -55.5 23.5t-22.5 58.5zM668 -258q0 35 22.5 60.5t54.5 25.5q31 0 53.5 -25.5t22.5 -60.5t-22.5 -59.5t-53.5 -24.5q-32 0 -54.5 24.5t-22.5 59.5z" />
    <glyph glyph-name="uniFB7C" unicode="&#x686;" horiz-adv-x="1401" arabic-form="initial" 
d="M1298 0h-1327l-2 223h926q-59 121 -104.5 204t-83 133t-71.5 72.5t-73 22.5q-53 0 -97 -30.5t-97 -96.5l-154 142q33 45 79 88t99 75.5t111.5 52t120.5 19.5q67 0 124.5 -35.5t115 -107.5t122.5 -184l154 -261q28 -49 67 -71.5t84 -22.5zM440 -193q0 52 37 88.5t88 36.5
t86 -36.5t35 -88.5q0 -51 -35 -85.5t-86 -34.5t-88 34.5t-37 85.5zM764 -193q0 52 37 88.5t88 36.5t86 -36.5t35 -88.5q0 -51 -35 -85.5t-86 -34.5t-88 34.5t-37 85.5zM596 -444q0 51 37 88t88 37t86 -37t35 -88q0 -52 -35 -87.5t-86 -35.5t-88 35.5t-37 87.5z" />
    <glyph glyph-name="uniFB7D" unicode="&#x686;" horiz-adv-x="1343" arabic-form="medial" 
d="M1374 0h-1403l-2 223h926q-59 121 -104.5 204t-83 133t-71.5 72.5t-73 22.5q-53 0 -97 -30.5t-97 -96.5l-154 142q33 45 79 88t99 75.5t111.5 52t120.5 19.5q67 0 124.5 -35.5t115 -107.5t122.5 -184l154 -261q28 -49 67 -71.5t84 -22.5h82v-223zM440 -193q0 52 37 88.5
t88 36.5t86 -36.5t35 -88.5q0 -51 -35 -85.5t-86 -34.5t-88 34.5t-37 85.5zM764 -193q0 52 37 88.5t88 36.5t86 -36.5t35 -88.5q0 -51 -35 -85.5t-86 -34.5t-88 34.5t-37 85.5zM596 -444q0 51 37 88t88 37t86 -37t35 -88q0 -52 -35 -87.5t-86 -35.5t-88 35.5t-37 87.5z" />
    <glyph glyph-name="uniFB8B" unicode="&#x698;" horiz-adv-x="741" arabic-form="final" 
d="M479 895q33 -178 48.5 -350t19.5 -322h225v-223h-225q-2 -35 -11.5 -84t-33 -100.5t-62.5 -102.5t-101.5 -92t-151.5 -65.5t-212 -24.5l-47 147q105 9 187 50q35 18 68.5 44.5t60 64.5t43 90.5t16.5 119.5q0 186 -9 382t-61 386zM33 1169q0 66 46 112t111 46
q64 0 108 -46t44 -112q0 -63 -44 -107t-108 -44q-65 0 -111 44t-46 107zM438 1169q0 66 46 112t112 46q63 0 107.5 -46t44.5 -112q0 -63 -44.5 -107t-107.5 -44q-66 0 -112 44t-46 107zM227 1559q0 65 46 111t112 46q64 0 108 -46t44 -111q0 -64 -44 -109t-108 -45
q-66 0 -112 45t-46 109z" />
    <glyph glyph-name="uniFB8F" unicode="&#x6a9;" horiz-adv-x="1790" arabic-form="final" 
d="M1597 0h-1099q-86 0 -160 14.5t-129 47t-86 86t-31 128.5q0 115 21.5 198t51.5 142.5t62.5 103.5t55.5 83h198q-37 -60 -69.5 -125.5t-54 -130t-26.5 -122.5t14.5 -103.5t67.5 -72t134 -26.5h807v1092l260 74v-1166h207v-223h-224zM1118 717l-491 -146v129l135 41
q-23 4 -40 19.5t-29.5 37t-19.5 46t-7 43.5q0 63 28.5 113.5t72.5 86t95 54t96 18.5q48 0 91 -15.5t84 -68.5l-52 -41l-69 -59q-37 39 -92 39q-54 0 -76.5 -29t-22.5 -57q0 -27 15.5 -49.5t38 -38t47 -24.5t43.5 -11l153 45v-133z" />
    <glyph glyph-name="uniFB90" unicode="&#x6a9;" horiz-adv-x="1092" arabic-form="initial" 
d="M909 0h-940v223h697v62q0 59 -33 127.5t-91.5 134t-140.5 126t-180 103.5l17 352l792 269l-65 -273l-516 -157q86 -60 164.5 -139.5t140.5 -163.5q65 -93 110 -188t45 -191v-62v-223z" />
    <glyph glyph-name="uniFB91" unicode="&#x6a9;" horiz-adv-x="1223" arabic-form="medial" 
d="M1223 0h-1223v223h684v62q0 59 -33 127.5t-91 134t-140 126t-180 103.5l16 352l793 269l-66 -273l-516 -157q86 -60 165 -139.5t140 -163.5q66 -93 111 -188t45 -191v-62h295v-223z" />
    <glyph glyph-name="uniFB93" unicode="&#x6af;" horiz-adv-x="1757" arabic-form="final" 
d="M498 0q-86 0 -160 14.5t-129 47t-86 86t-31 128.5q0 115 21.5 198t51.5 142.5t62.5 103.5t55.5 83h198q-37 -60 -69.5 -125.5t-54 -130t-26.5 -122.5t14.5 -103.5t67.5 -72t134 -26.5h1335v-223h-1384zM1755 0h-940v223h696v62q0 59 -32.5 127.5t-91 134t-140.5 126
t-180 103.5l16 352l793 269l-66 -273l-516 -157q86 -60 165 -139.5t140 -163.5q66 -93 111 -188t45 -191v-62v-223zM1888 1454l-815 -266l6 143l846 275z" />
    <glyph glyph-name="uniFB94" unicode="&#x6af;" horiz-adv-x="1092" arabic-form="initial" 
d="M909 0h-940v223h697v62q0 59 -33 127.5t-91.5 134t-140.5 126t-180 103.5l17 352l792 269l-65 -273l-516 -157q86 -60 164.5 -139.5t140.5 -163.5q65 -93 110 -188t45 -191v-62v-223zM1047 1464l-816 -266l7 143l845 275z" />
    <glyph glyph-name="uniFB95" unicode="&#x6af;" horiz-adv-x="1223" arabic-form="medial" 
d="M1223 0h-1223v223h684v62q0 59 -33 127.5t-91 134t-140 126t-180 103.5l16 352l793 269l-66 -273l-516 -157q86 -60 165 -139.5t140 -163.5q66 -93 111 -188t45 -191v-62h295v-223zM1047 1464l-816 -266l7 143l845 275z" />
    <glyph glyph-name="uniFBFD" unicode="&#x6cc;" horiz-adv-x="1896" arabic-form="final" 
d="M1286 872q137 0 230.5 -65.5t150.5 -162.5t84 -211t35 -210h170v-223h-391q0 168 -16.5 283.5t-43 191.5t-59.5 116t-66.5 58.5t-62.5 21.5t-49 3q-68 0 -122 -20.5t-92 -53.5t-59.5 -74t-21.5 -82q0 -20 9 -44.5t42 -24.5h205q31 0 57.5 -9.5t46 -34t30.5 -65.5t11 -102
q0 -277 -167 -405t-531 -128q-135 0 -243.5 39t-184.5 101.5t-117 139.5t-41 152q0 115 21.5 198t51.5 142.5t62.5 103.5t55.5 83h157q-53 -88 -92 -203t-39 -221q0 -55 23.5 -108.5t69.5 -95.5t113 -67.5t153 -25.5q161 0 247 14.5t128 43t55.5 74.5t29.5 110q2 6 2 16
q0 25 -32 25h-105q-80 0 -132 11t-83 34.5t-43 57.5t-12 77q0 80 32.5 175t102.5 176t176.5 135t253.5 54z" />
    <glyph glyph-name="uniFE80" unicode="&#x621;" horiz-adv-x="723" arabic-form="isolated" 
d="M79 22q30 31 71 58l81 53q-25 5 -45.5 22.5t-34.5 41.5t-22.5 49t-8.5 46q0 50 26 98t67.5 86t94.5 62t107 28t104 -17t85 -75l-52 -42l-72 -62q-32 36 -78 41q-32 3 -54 -4t-36.5 -19t-21 -29t-8.5 -32q-3 -30 11.5 -52t36 -37t46.5 -21.5t44 -1.5l125 29q56 12 114 20
q-22 -43 -38.5 -92.5t-28.5 -94.5q-64 0 -132 -13.5t-135.5 -38t-130.5 -55.5t-113 -66z" />
    <glyph glyph-name="uniFE82" unicode="&#x622;" horiz-adv-x="610" arabic-form="final" 
d="M152 1315l260 74v-1166h229v-223h-489v1315zM-221 1618q26 -14 68 -21.5t95.5 -8.5t115 4t126.5 16l74 14l74 12q180 33 299 -7t184 -140q-51 29 -157.5 33t-235.5 -19q-41 -8 -84 -18t-84 -17q-170 -28 -292 13t-183 139z" />
    <glyph glyph-name="uniFE84" unicode="&#x623;" horiz-adv-x="610" arabic-form="final" 
d="M150 1315l260 74v-1166h229v-223h-489v1315zM530 1540l-491 -145v129l135 41q-22 4 -39.5 19t-30 36.5t-19.5 46.5t-7 43q0 64 28.5 114t72.5 86t95.5 54t96.5 18q47 0 90 -15t84 -69l-51 -40l-70 -60q-37 39 -92 39q-53 0 -76 -28.5t-23 -57.5q0 -27 15.5 -49.5
t38 -37.5t47 -24.5t43.5 -11.5l153 45v-133z" />
    <glyph glyph-name="uniFE86" unicode="&#x624;" horiz-adv-x="1085" arabic-form="final" 
d="M365 -469l-48 147q97 7 177 43q67 31 127.5 95.5t74.5 183.5h-256q-209 0 -297 88t-88 262q0 84 50.5 166t153.5 151.5t260 121t370 71.5q24 -135 36.5 -294.5t16.5 -342.5h178v-223h-178q-2 -35 -12 -84t-34 -100.5t-63.5 -102.5t-103 -92t-153 -65.5t-211.5 -24.5z
M696 223q-2 99 -7 199t-21 201q-78 -17 -143.5 -41.5t-112.5 -58.5t-75 -79t-30 -100q0 -59 35 -90t113 -31h241zM198 896q23 24 55 45l62 40q-19 4 -35 17.5t-26.5 32t-17 38t-6.5 35.5q0 39 20 76t52 66t72.5 47.5t82.5 21.5t80.5 -13t65.5 -58l-40 -32l-56 -48
q-25 28 -60 32q-25 2 -42 -3.5t-28 -14.5t-16 -22t-7 -25q-2 -23 9 -40t28 -28.5t36 -16.5t34 -1l96 22q43 9 88 15q-17 -33 -29.5 -71t-22.5 -73q-49 0 -101.5 -10t-104.5 -29t-100.5 -43t-86.5 -51z" />
    <glyph glyph-name="uniFE88" unicode="&#x625;" horiz-adv-x="610" arabic-form="final" 
d="M150 1315l260 74v-1166h229v-223h-489v1315zM512 -590l-492 -145v129l136 41q-23 4 -40.5 19.5t-29.5 37t-19.5 46t-7.5 42.5q0 64 29 114t73 86t95 54.5t96 18.5q47 0 90 -15.5t84 -68.5l-51 -41l-69 -60q-37 39 -93 39q-53 0 -75.5 -28.5t-22.5 -57.5q0 -27 15.5 -49.5
t38 -37.5t47 -24.5t42.5 -11.5l154 45v-133z" />
    <glyph glyph-name="uniFE8A" unicode="&#x626;" horiz-adv-x="1896" arabic-form="final" 
d="M1286 872q137 0 230.5 -65.5t150.5 -162.5t84 -211t35 -210h170v-223h-391q0 168 -16.5 283.5t-43 191.5t-59.5 116t-66.5 58.5t-62.5 21.5t-49 3q-68 0 -122 -20.5t-92 -53.5t-59.5 -74t-21.5 -82q0 -20 9 -44.5t42 -24.5h205q31 0 57.5 -9.5t46 -34t30.5 -65.5t11 -102
q0 -277 -167 -405t-531 -128q-135 0 -243.5 39t-184.5 101.5t-117 139.5t-41 152q0 115 21.5 198t51.5 142.5t62.5 103.5t55.5 83h157q-53 -88 -92 -203t-39 -221q0 -55 23.5 -108.5t69.5 -95.5t113 -67.5t153 -25.5q161 0 247 14.5t128 43t55.5 74.5t29.5 110q2 6 2 16
q0 25 -32 25h-105q-80 0 -132 11t-83 34.5t-43 57.5t-12 77q0 80 32.5 175t102.5 176t176.5 135t253.5 54zM645 801l-491 -146v129l135 41q-23 4 -40.5 19.5t-29.5 37t-19 46t-7 43.5q0 63 28.5 113.5t72.5 86t95 54t96 18.5q47 0 90 -15.5t84 -68.5l-51 -41l-69 -59
q-37 39 -93 39q-53 0 -75.5 -29t-22.5 -57q0 -27 15.5 -49.5t38 -38t47 -24.5t43.5 -11l153 45v-133z" />
    <glyph glyph-name="uniFE8B" unicode="&#x626;" horiz-adv-x="817" arabic-form="initial" 
d="M-31 223h463v600l260 74l2 -897h-725v223zM680 1026l-492 -145v129l136 41q-23 4 -40.5 19t-29.5 36.5t-19.5 46.5t-7.5 43q0 64 29 114t73 86t95 54t96 18q47 0 90 -15t84 -69l-51 -41l-70 -59q-36 39 -92 39q-53 0 -75.5 -28.5t-22.5 -57.5q0 -27 15.5 -49.5t38 -37.5
t47 -24.5t42.5 -11.5l154 45v-133z" />
    <glyph glyph-name="uniFE8C" unicode="&#x626;" horiz-adv-x="913" arabic-form="medial" 
d="M-31 223h385v600l260 74v-674h330v-223h-975v223zM680 1026l-492 -145v129l136 41q-23 4 -40.5 19t-29.5 36.5t-19.5 46.5t-7.5 43q0 64 29 114t73 86t95 54t96 18q47 0 90 -15t84 -69l-51 -41l-70 -59q-36 39 -92 39q-53 0 -75.5 -28.5t-22.5 -57.5q0 -27 15.5 -49.5
t38 -37.5t47 -24.5t42.5 -11.5l154 45v-133z" />
    <glyph glyph-name="uniFE8E" unicode="&#x627;" horiz-adv-x="610" arabic-form="final" 
d="M152 1315l260 74v-1166h229v-223h-489v1315z" />
    <glyph glyph-name="uniFE90" unicode="&#x628;" horiz-adv-x="1829" arabic-form="final" 
d="M498 0q-86 0 -160 14.5t-129 47t-86 86t-31 128.5q0 115 21.5 198t51.5 142.5t62.5 103.5t55.5 83h198q-37 -60 -69.5 -125.5t-54 -130t-26.5 -122.5t14.5 -103.5t67.5 -72t134 -26.5h876v594l246 78v-672h191v-223h-1362zM791 -332q0 66 46 112t111 46q64 0 108 -46
t44 -112q0 -63 -44 -107t-108 -44q-65 0 -111 44t-46 107z" />
    <glyph glyph-name="uniFE91" unicode="&#x628;" horiz-adv-x="817" arabic-form="initial" 
d="M-31 223h463v600l260 74l2 -897h-725v223zM219 -332q0 66 46 112t112 46q63 0 107 -46t44 -112q0 -63 -44 -107t-107 -44q-66 0 -112 44t-46 107z" />
    <glyph glyph-name="uniFE92" unicode="&#x628;" horiz-adv-x="913" arabic-form="medial" 
d="M-31 223h385v600l260 74v-674h330v-223h-975v223zM326 -332q0 66 46 112t111 46q64 0 108 -46t44 -112q0 -63 -44 -107t-108 -44q-65 0 -111 44t-46 107z" />
    <glyph glyph-name="uniFE94" unicode="&#x629;" horiz-adv-x="1294" arabic-form="final" 
d="M152 373q0 86 50 168t156.5 147.5t273.5 112.5t398 63v-641h295v-223h-459q-22 14 -37.5 36.5t-25.5 45.5q-10 24 -17 51q-10 -39 -41 -67q-26 -25 -76.5 -45.5t-136.5 -20.5q-208 0 -294 99.5t-86 273.5zM399 410v-66q0 -59 35 -90t113 -31h235v408
q-86 -17 -156.5 -41.5t-119.5 -53t-77 -61.5t-30 -65zM277 1156q0 66 46 112t112 46q63 0 107.5 -46t44.5 -112q0 -63 -44.5 -107t-107.5 -44q-66 0 -112 44t-46 107zM683 1156q0 66 46 112t111 46q64 0 108 -46t44 -112q0 -63 -44 -107t-108 -44q-65 0 -111 44t-46 107z
" />
    <glyph glyph-name="uniFE96" unicode="&#x62a;" horiz-adv-x="1829" arabic-form="final" 
d="M498 0q-86 0 -160 14.5t-129 47t-86 86t-31 128.5q0 115 21.5 198t51.5 142.5t62.5 103.5t55.5 83h198q-37 -60 -69.5 -125.5t-54 -130t-26.5 -122.5t14.5 -103.5t67.5 -72t134 -26.5h876v594l246 78v-672h191v-223h-1362zM580 1161q0 66 46 112t111 46q64 0 108 -46
t44 -112q0 -63 -44 -107t-108 -44q-65 0 -111 44t-46 107zM985 1161q0 66 46 112t112 46q63 0 107 -46t44 -112q0 -63 -44 -107t-107 -44q-66 0 -112 44t-46 107z" />
    <glyph glyph-name="uniFE97" unicode="&#x62a;" horiz-adv-x="817" arabic-form="initial" 
d="M-31 223h463v600l260 74l2 -897h-725v223zM55 1161q0 66 46 112t112 46q63 0 107.5 -46t44.5 -112q0 -63 -44.5 -107t-107.5 -44q-66 0 -112 44t-46 107zM461 1161q0 66 46 112t111 46q64 0 108 -46t44 -112q0 -63 -44 -107t-108 -44q-65 0 -111 44t-46 107z" />
    <glyph glyph-name="uniFE98" unicode="&#x62a;" horiz-adv-x="913" arabic-form="medial" 
d="M-31 223h385v600l260 74v-674h330v-223h-975v223zM127 1161q0 66 46 112t112 46q63 0 107 -46t44 -112q0 -63 -44 -107t-107 -44q-66 0 -112 44t-46 107zM532 1161q0 66 46.5 112t111.5 46q64 0 108 -46t44 -112q0 -63 -44 -107t-108 -44q-65 0 -111.5 44t-46.5 107z" />
    <glyph glyph-name="uniFE9A" unicode="&#x62b;" horiz-adv-x="1829" arabic-form="final" 
d="M498 0q-86 0 -160 14.5t-129 47t-86 86t-31 128.5q0 115 21.5 198t51.5 142.5t62.5 103.5t55.5 83h198q-37 -60 -69.5 -125.5t-54 -130t-26.5 -122.5t14.5 -103.5t67.5 -72t134 -26.5h876v594l246 78v-672h191v-223h-1362zM580 1161q0 66 46 112t111 46q64 0 108 -46
t44 -112q0 -63 -44 -107t-108 -44q-65 0 -111 44t-46 107zM985 1161q0 66 46 112t112 46q63 0 107 -46t44 -112q0 -63 -44 -107t-107 -44q-66 0 -112 44t-46 107zM799 1520q0 66 46 112t112 46q63 0 107 -46t44 -112q0 -63 -44 -107t-107 -44q-66 0 -112 44t-46 107z" />
    <glyph glyph-name="uniFE9B" unicode="&#x62b;" horiz-adv-x="817" arabic-form="initial" 
d="M-31 223h463v600l260 74l2 -897h-725v223zM55 1161q0 66 46 112t112 46q63 0 107.5 -46t44.5 -112q0 -63 -44.5 -107t-107.5 -44q-66 0 -112 44t-46 107zM461 1161q0 66 46 112t111 46q64 0 108 -46t44 -112q0 -63 -44 -107t-108 -44q-65 0 -111 44t-46 107zM257 1553
q0 66 46 112t112 46q63 0 107 -46t44 -112q0 -63 -44 -107t-107 -44q-66 0 -112 44t-46 107z" />
    <glyph glyph-name="uniFE9C" unicode="&#x62b;" horiz-adv-x="913" arabic-form="medial" 
d="M-31 223h385v600l260 74v-674h330v-223h-975v223zM127 1161q0 66 46 112t112 46q63 0 107 -46t44 -112q0 -63 -44 -107t-107 -44q-66 0 -112 44t-46 107zM532 1161q0 66 46.5 112t111.5 46q64 0 108 -46t44 -112q0 -63 -44 -107t-108 -44q-65 0 -111.5 44t-46.5 107z
M318 1548q0 66 46 112t112 46q63 0 107 -46t44 -112q0 -63 -44 -107t-107 -44q-66 0 -112 44t-46 107z" />
    <glyph glyph-name="uniFE9E" unicode="&#x62c;" horiz-adv-x="1415" arabic-form="final" 
d="M1126 -653q-182 -49 -352 -49q-127 0 -250 23.5t-219 78.5t-155.5 145t-59.5 224q0 129 50 251.5t145.5 228t231.5 187.5t306 131q-28 8 -62 23.5t-75 31t-89 26.5t-105 11q-54 0 -122.5 -32.5t-121.5 -98.5l-148 134q33 45 80 88t102.5 75.5t116 52t121.5 19.5
q60 0 150 -38t213 -79t220 -60.5t195 -17.5l-4 -274q-108 0 -193 -6t-175 -27q0 -55 27.5 -89t64.5 -52t72.5 -24.5t50.5 -6.5h303v-223h-330q-72 0 -137.5 28.5t-112.5 76t-72.5 106.5t-19.5 121q-117 -51 -201 -116.5t-138 -133.5t-79.5 -132.5t-25.5 -115.5
q0 -80 40 -138t112.5 -96t175 -56.5t227.5 -18.5q57 0 118.5 4t126.5 12zM608 -125q0 66 46 112t112 46q63 0 107.5 -46t44.5 -112q0 -63 -44.5 -107t-107.5 -44q-66 0 -112 44t-46 107z" />
    <glyph glyph-name="uniFE9F" unicode="&#x62c;" horiz-adv-x="1401" arabic-form="initial" 
d="M1298 0h-1327l-2 223h926q-59 121 -104.5 204t-83 133t-71.5 72.5t-73 22.5q-53 0 -97 -30.5t-97 -96.5l-154 142q33 45 79 88t99 75.5t111.5 52t120.5 19.5q67 0 124.5 -35.5t115 -107.5t122.5 -184l154 -261q28 -49 67 -71.5t84 -22.5zM557 -332q0 66 46 112t112 46
q63 0 107 -46t44 -112q0 -63 -44 -107t-107 -44q-66 0 -112 44t-46 107z" />
    <glyph glyph-name="uniFEA0" unicode="&#x62c;" horiz-adv-x="1343" arabic-form="medial" 
d="M1374 0h-1403l-2 223h926q-59 121 -104.5 204t-83 133t-71.5 72.5t-73 22.5q-53 0 -97 -30.5t-97 -96.5l-154 142q33 45 79 88t99 75.5t111.5 52t120.5 19.5q67 0 124.5 -35.5t115 -107.5t122.5 -184l154 -261q28 -49 67 -71.5t84 -22.5h82v-223zM592 -332q0 66 46 112
t112 46q63 0 107 -46t44 -112q0 -63 -44 -107t-107 -44q-66 0 -112 44t-46 107z" />
    <glyph glyph-name="uniFEA2" unicode="&#x62d;" horiz-adv-x="1415" arabic-form="final" 
d="M1126 -653q-182 -49 -352 -49q-127 0 -250 23.5t-219 78.5t-155.5 145t-59.5 224q0 129 50 251.5t145.5 228t231.5 187.5t306 131q-28 8 -62 23.5t-75 31t-89 26.5t-105 11q-54 0 -122.5 -32.5t-121.5 -98.5l-148 134q33 45 80 88t102.5 75.5t116 52t121.5 19.5
q60 0 150 -38t213 -79t220 -60.5t195 -17.5l-4 -274q-108 0 -193 -6t-175 -27q0 -55 27.5 -89t64.5 -52t72.5 -24.5t50.5 -6.5h303v-223h-330q-72 0 -137.5 28.5t-112.5 76t-72.5 106.5t-19.5 121q-117 -51 -201 -116.5t-138 -133.5t-79.5 -132.5t-25.5 -115.5
q0 -80 40 -138t112.5 -96t175 -56.5t227.5 -18.5q57 0 118.5 4t126.5 12z" />
    <glyph glyph-name="uniFEA3" unicode="&#x62d;" horiz-adv-x="1401" arabic-form="initial" 
d="M1298 0h-1327l-2 223h926q-59 121 -104.5 204t-83 133t-71.5 72.5t-73 22.5q-53 0 -97 -30.5t-97 -96.5l-154 142q33 45 79 88t99 75.5t111.5 52t120.5 19.5q67 0 124.5 -35.5t115 -107.5t122.5 -184l154 -261q28 -49 67 -71.5t84 -22.5z" />
    <glyph glyph-name="uniFEA4" unicode="&#x62d;" horiz-adv-x="1343" arabic-form="medial" 
d="M1374 0h-1403l-2 223h926q-59 121 -104.5 204t-83 133t-71.5 72.5t-73 22.5q-53 0 -97 -30.5t-97 -96.5l-154 142q33 45 79 88t99 75.5t111.5 52t120.5 19.5q67 0 124.5 -35.5t115 -107.5t122.5 -184l154 -261q28 -49 67 -71.5t84 -22.5h82v-223z" />
    <glyph glyph-name="uniFEA6" unicode="&#x62e;" horiz-adv-x="1415" arabic-form="final" 
d="M1126 -653q-182 -49 -352 -49q-127 0 -250 23.5t-219 78.5t-155.5 145t-59.5 224q0 129 50 251.5t145.5 228t231.5 187.5t306 131q-28 8 -62 23.5t-75 31t-89 26.5t-105 11q-54 0 -122.5 -32.5t-121.5 -98.5l-148 134q33 45 80 88t102.5 75.5t116 52t121.5 19.5
q60 0 150 -38t213 -79t220 -60.5t195 -17.5l-4 -274q-108 0 -193 -6t-175 -27q0 -55 27.5 -89t64.5 -52t72.5 -24.5t50.5 -6.5h303v-223h-330q-72 0 -137.5 28.5t-112.5 76t-72.5 106.5t-19.5 121q-117 -51 -201 -116.5t-138 -133.5t-79.5 -132.5t-25.5 -115.5
q0 -80 40 -138t112.5 -96t175 -56.5t227.5 -18.5q57 0 118.5 4t126.5 12zM551 1161q0 66 46 112t112 46q63 0 107 -46t44 -112q0 -63 -44 -107t-107 -44q-66 0 -112 44t-46 107z" />
    <glyph glyph-name="uniFEA7" unicode="&#x62e;" horiz-adv-x="1401" arabic-form="initial" 
d="M1298 0h-1327l-2 223h926q-59 121 -104.5 204t-83 133t-71.5 72.5t-73 22.5q-53 0 -97 -30.5t-97 -96.5l-154 142q33 45 79 88t99 75.5t111.5 52t120.5 19.5q67 0 124.5 -35.5t115 -107.5t122.5 -184l154 -261q28 -49 67 -71.5t84 -22.5zM512 1161q0 66 46 112t112 46
q63 0 107 -46t44 -112q0 -63 -44 -107t-107 -44q-66 0 -112 44t-46 107z" />
    <glyph glyph-name="uniFEA8" unicode="&#x62e;" horiz-adv-x="1343" arabic-form="medial" 
d="M1374 0h-1403l-2 223h926q-59 121 -104.5 204t-83 133t-71.5 72.5t-73 22.5q-53 0 -97 -30.5t-97 -96.5l-154 142q33 45 79 88t99 75.5t111.5 52t120.5 19.5q67 0 124.5 -35.5t115 -107.5t122.5 -184l154 -261q28 -49 67 -71.5t84 -22.5h82v-223zM467 1161q0 66 46 112
t112 46q63 0 107 -46t44 -112q0 -63 -44 -107t-107 -44q-66 0 -112 44t-46 107z" />
    <glyph glyph-name="uniFEAA" unicode="&#x62f;" horiz-adv-x="1194" arabic-form="final" 
d="M121 254q22 -8 49 -16q23 -7 53.5 -11t67.5 -4h463q0 39 -12.5 103.5t-49.5 136.5t-108.5 142.5t-192.5 123.5l58 225q137 -36 251 -127q50 -39 99 -93t92 -128t74.5 -169t46.5 -214h213v-223h-953q-36 0 -67 4t-53 10q-27 9 -50 17z" />
    <glyph glyph-name="uniFEAC" unicode="&#x630;" horiz-adv-x="1194" arabic-form="final" 
d="M121 254q22 -8 49 -16q23 -7 53.5 -11t67.5 -4h463q0 39 -12.5 103.5t-49.5 136.5t-108.5 142.5t-192.5 123.5l58 225q137 -36 251 -127q50 -39 99 -93t92 -128t74.5 -169t46.5 -214h213v-223h-953q-36 0 -67 4t-53 10q-27 9 -50 17zM320 1250q0 66 46 112t112 46
q63 0 107 -46t44 -112q0 -63 -44 -107t-107 -44q-66 0 -112 44t-46 107z" />
    <glyph glyph-name="uniFEAE" unicode="&#x631;" horiz-adv-x="741" arabic-form="final" 
d="M479 895q33 -178 48.5 -350t19.5 -322h225v-223h-225q-2 -35 -11.5 -84t-33 -100.5t-62.5 -102.5t-101.5 -92t-151.5 -65.5t-212 -24.5l-47 147q105 9 187 50q35 18 68.5 44.5t60 64.5t43 90.5t16.5 119.5q0 186 -9 382t-61 386z" />
    <glyph glyph-name="uniFEB0" unicode="&#x632;" horiz-adv-x="741" arabic-form="final" 
d="M479 895q33 -178 48.5 -350t19.5 -322h225v-223h-225q-2 -35 -11.5 -84t-33 -100.5t-62.5 -102.5t-101.5 -92t-151.5 -65.5t-212 -24.5l-47 147q105 9 187 50q35 18 68.5 44.5t60 64.5t43 90.5t16.5 119.5q0 186 -9 382t-61 386zM137 1161q0 66 46 112t112 46
q63 0 107 -46t44 -112q0 -63 -44 -107t-107 -44q-66 0 -112 44t-46 107z" />
    <glyph glyph-name="uniFEB2" unicode="&#x633;" horiz-adv-x="2556" arabic-form="final" 
d="M2296 223h291v-223h-291h-1047q-43 -248 -195.5 -358.5t-406.5 -110.5q-135 0 -238.5 39t-174 101.5t-106.5 139t-36 152.5q0 115 21.5 198t51.5 142t62.5 103.5t55.5 82.5h157q-53 -88 -92 -202.5t-39 -220.5q0 -56 18.5 -109t58.5 -95t102.5 -67.5t148.5 -25.5
q139 0 241.5 57t131.5 174q10 45 10 88v729l246 86v-680h270v594l246 86v-680h268v594l246 86v-680z" />
    <glyph glyph-name="uniFEB3" unicode="&#x633;" horiz-adv-x="1696" arabic-form="initial" 
d="M-31 223h336v594l246 86v-680h270v594l246 86v-680h268v594l246 86v-903h-1612v223z" />
    <glyph glyph-name="uniFEB4" unicode="&#x633;" horiz-adv-x="1851" arabic-form="medial" 
d="M-31 223h328v600l260 74v-674h260v600l260 74v-674h254v600l260 74v-674h291v-223h-1913v223z" />
    <glyph glyph-name="uniFEB6" unicode="&#x634;" horiz-adv-x="2556" arabic-form="final" 
d="M2296 223h291v-223h-291h-1047q-43 -248 -195.5 -358.5t-406.5 -110.5q-135 0 -238.5 39t-174 101.5t-106.5 139t-36 152.5q0 115 21.5 198t51.5 142t62.5 103.5t55.5 82.5h157q-53 -88 -92 -202.5t-39 -220.5q0 -56 18.5 -109t58.5 -95t102.5 -67.5t148.5 -25.5
q139 0 241.5 57t131.5 174q10 45 10 88v729l246 86v-680h270v594l246 86v-680h268v594l246 86v-680zM1303 1161q0 66 46 112t111 46q64 0 108 -46t44 -112q0 -63 -44 -107t-108 -44q-65 0 -111 44t-46 107zM1708 1161q0 66 46 112t112 46q63 0 107 -46t44 -112
q0 -63 -44 -107t-107 -44q-66 0 -112 44t-46 107zM1497 1550q0 66 46 112t112 46q63 0 107 -46t44 -112q0 -63 -44 -108t-107 -45q-66 0 -112 45t-46 108z" />
    <glyph glyph-name="uniFEB7" unicode="&#x634;" horiz-adv-x="1696" arabic-form="initial" 
d="M-31 223h336v594l246 86v-680h270v594l246 86v-680h268v594l246 86v-903h-1612v223zM575 1161q0 66 46.5 112t111.5 46q64 0 108 -46t44 -112q0 -63 -44 -107t-108 -44q-65 0 -111.5 44t-46.5 107zM981 1161q0 66 46 112t112 46q63 0 107 -46t44 -112q0 -63 -44 -107
t-107 -44q-66 0 -112 44t-46 107zM770 1550q0 66 46 112t112 46q63 0 107 -46t44 -112q0 -63 -44 -108t-107 -45q-66 0 -112 45t-46 108z" />
    <glyph glyph-name="uniFEB8" unicode="&#x634;" horiz-adv-x="1851" arabic-form="medial" 
d="M-31 223h328v600l260 74v-674h260v600l260 74v-674h254v600l260 74v-674h291v-223h-1913v223zM588 1161q0 66 46 112t111 46q64 0 108 -46t44 -112q0 -63 -44 -107t-108 -44q-65 0 -111 44t-46 107zM993 1161q0 66 46 112t112 46q63 0 107.5 -46t44.5 -112
q0 -63 -44.5 -107t-107.5 -44q-66 0 -112 44t-46 107zM782 1550q0 66 46 112t112 46q64 0 108 -46t44 -112q0 -63 -44 -108t-108 -45q-66 0 -112 45t-46 108z" />
    <glyph glyph-name="uniFEBA" unicode="&#x635;" horiz-adv-x="2456" arabic-form="final" 
d="M2036 223v111q0 117 -63.5 188.5t-180.5 71.5q-240 0 -543 -371h787zM2484 0h-1237q-43 -248 -195.5 -358.5t-406.5 -110.5q-135 0 -238.5 39t-174 101.5t-106.5 139t-36 152.5q0 115 21.5 198t51.5 142t62.5 103.5t55.5 82.5h157q-53 -88 -92 -202.5t-39 -220.5
q0 -56 18.5 -109t58.5 -95t102.5 -67.5t148.5 -25.5q139 0 241.5 57t131.5 174q10 45 10 88v637l246 72l2 -301q182 174 338.5 260t316.5 86q123 0 198.5 -62.5t117.5 -156t56.5 -201t14.5 -199.5h176v-223z" />
    <glyph glyph-name="uniFEBB" unicode="&#x635;" horiz-adv-x="1599" arabic-form="initial" 
d="M1194 223v111q0 117 -63.5 188.5t-180.5 71.5q-239 0 -542 -371h786zM162 223v500l260 74l2 -301q182 174 339 260t316 86q123 0 199 -62.5t118 -156t56 -201t14 -199.5v-223h-1497v223h193z" />
    <glyph glyph-name="uniFEBC" unicode="&#x635;" horiz-adv-x="1614" arabic-form="medial" 
d="M1194 223v111q0 117 -63.5 188.5t-180.5 71.5q-239 0 -542 -371h786zM162 223v500l260 74l2 -301q182 174 339 260t316 86q123 0 198 -62.5t117 -156t56 -201t16 -199.5h179v-223h-1676v223h193z" />
    <glyph glyph-name="uniFEBE" unicode="&#x636;" horiz-adv-x="2456" arabic-form="final" 
d="M2036 223v111q0 117 -63.5 188.5t-180.5 71.5q-240 0 -543 -371h787zM2484 0h-1237q-43 -248 -195.5 -358.5t-406.5 -110.5q-135 0 -238.5 39t-174 101.5t-106.5 139t-36 152.5q0 115 21.5 198t51.5 142t62.5 103.5t55.5 82.5h157q-53 -88 -92 -202.5t-39 -220.5
q0 -56 18.5 -109t58.5 -95t102.5 -67.5t148.5 -25.5q139 0 241.5 57t131.5 174q10 45 10 88v637l246 72l2 -301q182 174 338.5 260t316.5 86q123 0 198.5 -62.5t117.5 -156t56.5 -201t14.5 -199.5h176v-223zM1594 1142q0 66 46 112t112 46q63 0 107 -46t44 -112
q0 -63 -44 -107t-107 -44q-66 0 -112 44t-46 107z" />
    <glyph glyph-name="uniFEBF" unicode="&#x636;" horiz-adv-x="1599" arabic-form="initial" 
d="M1194 223v111q0 117 -63.5 188.5t-180.5 71.5q-239 0 -542 -371h786zM162 223v500l260 74l2 -301q182 174 339 260t316 86q123 0 199 -62.5t118 -156t56 -201t14 -199.5v-223h-1497v223h193zM745 1142q0 66 46 112t112 46q63 0 107 -46t44 -112q0 -63 -44 -107t-107 -44
q-66 0 -112 44t-46 107z" />
    <glyph glyph-name="uniFEC0" unicode="&#x636;" horiz-adv-x="1614" arabic-form="medial" 
d="M1194 223v111q0 117 -63.5 188.5t-180.5 71.5q-239 0 -542 -371h786zM162 223v500l260 74l2 -301q182 174 339 260t316 86q123 0 198 -62.5t117 -156t56 -201t16 -199.5h179v-223h-1676v223h193zM844 1147q0 66 46 112t112 46q63 0 107 -46t44 -112q0 -63 -44 -107
t-107 -44q-66 0 -112 44t-46 107z" />
    <glyph glyph-name="uniFEC2" unicode="&#x637;" horiz-adv-x="1878" arabic-form="final" 
d="M1458 223v111q0 117 -63.5 188.5t-180.5 71.5q-239 0 -542 -371h786zM426 223v1092l260 74l2 -893q182 174 339 260t316 86q123 0 198 -62.5t117 -156t56.5 -201t16.5 -199.5h178v-223h-1637l-39 223h193z" />
    <glyph glyph-name="uniFEC3" unicode="&#x637;" horiz-adv-x="1599" arabic-form="initial" 
d="M1194 223v111q0 117 -63.5 188.5t-180.5 71.5q-239 0 -542 -371h786zM162 223v1092l260 74l2 -893q182 174 339 260t316 86q123 0 198 -62.5t117 -156t57 -201t15 -199.5v-223h-1497v223h193z" />
    <glyph glyph-name="uniFEC4" unicode="&#x637;" horiz-adv-x="1614" arabic-form="medial" 
d="M1194 223v111q0 117 -63.5 188.5t-180.5 71.5q-239 0 -542 -371h786zM162 223v1092l260 74l2 -893q182 174 339 260t316 86q123 0 198 -62.5t117 -156t56 -201t16 -199.5h179v-223h-1676v223h193z" />
    <glyph glyph-name="uniFEC6" unicode="&#x638;" horiz-adv-x="1878" arabic-form="final" 
d="M1458 223v111q0 117 -63.5 188.5t-180.5 71.5q-239 0 -542 -371h786zM426 223v1092l260 74l2 -893q182 174 339 260t316 86q123 0 198 -62.5t117 -156t56.5 -201t16.5 -199.5h178v-223h-1637l-39 223h193zM1057 1161q0 66 46 112t111 46q64 0 108 -46t44 -112
q0 -63 -44 -107t-108 -44q-65 0 -111 44t-46 107z" />
    <glyph glyph-name="uniFEC7" unicode="&#x638;" horiz-adv-x="1599" arabic-form="initial" 
d="M1194 223v111q0 117 -63.5 188.5t-180.5 71.5q-239 0 -542 -371h786zM162 223v1092l260 74l2 -893q182 174 339 260t316 86q123 0 198 -62.5t117 -156t57 -201t15 -199.5v-223h-1497v223h193zM784 1161q0 66 46.5 112t111.5 46q64 0 108 -46t44 -112q0 -63 -44 -107
t-108 -44q-65 0 -111.5 44t-46.5 107z" />
    <glyph glyph-name="uniFEC8" unicode="&#x638;" horiz-adv-x="1614" arabic-form="medial" 
d="M1194 223v111q0 117 -63.5 188.5t-180.5 71.5q-239 0 -542 -371h786zM162 223v1092l260 74l2 -893q182 174 339 260t316 86q123 0 198 -62.5t117 -156t56 -201t16 -199.5h179v-223h-1676v223h193zM762 1161q0 66 46 112t112 46q63 0 107 -46t44 -112q0 -63 -44 -107
t-107 -44q-66 0 -112 44t-46 107z" />
    <glyph glyph-name="uniFECA" unicode="&#x639;" horiz-adv-x="1233" arabic-form="final" 
d="M922 618q-23 27 -55.5 46.5t-70.5 34t-78 21.5t-73 7q-35 0 -75 -8t-77.5 -21.5t-69.5 -34t-50 -45.5l272 -350zM879 238q26 -9 47.5 -12t31.5 -3h304v-223h-330q-72 0 -146.5 29.5t-121.5 76.5q-168 -59 -255 -133.5t-87 -158.5q0 -56 18 -106t75.5 -88t161 -59.5
t273.5 -21.5q53 0 112.5 3t124.5 12l-2 -211q-186 -45 -356 -45q-102 0 -217 25.5t-212 80.5t-160.5 143t-63.5 213q0 70 29.5 136.5t78.5 125t112.5 106.5t131.5 81l-322 412q107 163 241 237t298 74t298 -73t243 -236z" />
    <glyph glyph-name="uniFECB" unicode="&#x639;" horiz-adv-x="1225" arabic-form="initial" 
d="M-31 223h328q-41 53 -54.5 130t-13.5 163q0 166 134.5 263.5t369.5 103.5q86 4 194.5 -10.5t207.5 -32.5v-230q-31 8 -77 18.5t-100.5 18.5t-113 13.5t-113.5 5.5q-45 0 -84 -6.5t-68.5 -25t-46 -51t-16.5 -83.5q0 -111 21.5 -175.5t56.5 -101.5h549v-223h-1174v223z" />
    <glyph glyph-name="uniFECC" unicode="&#x639;" horiz-adv-x="1237" arabic-form="medial" 
d="M803 0q-66 0 -113 21.5t-82 82.5q-35 -61 -82 -82.5t-112 -21.5h-445v223h377l-276 352q106 164 240 238t298 74t298 -73t243 -236l-277 -355h396v-223h-465zM885 573q-23 27 -55.5 46.5t-70.5 34t-78 21.5t-73 7q-35 0 -74.5 -8t-77.5 -21.5t-70 -34t-50 -45.5l272 -350
z" />
    <glyph glyph-name="uniFECE" unicode="&#x63a;" horiz-adv-x="1233" arabic-form="final" 
d="M922 618q-23 27 -55.5 46.5t-70.5 34t-78 21.5t-73 7q-35 0 -75 -8t-77.5 -21.5t-69.5 -34t-50 -45.5l272 -350zM879 238q26 -9 47.5 -12t31.5 -3h304v-223h-330q-72 0 -146.5 29.5t-121.5 76.5q-168 -59 -255 -133.5t-87 -158.5q0 -56 18 -106t75.5 -88t161 -59.5
t273.5 -21.5q53 0 112.5 3t124.5 12l-2 -211q-186 -45 -356 -45q-102 0 -217 25.5t-212 80.5t-160.5 143t-63.5 213q0 70 29.5 136.5t78.5 125t112.5 106.5t131.5 81l-322 412q107 163 241 237t298 74t298 -73t243 -236zM489 1161q0 66 46.5 112t111.5 46q64 0 108 -46
t44 -112q0 -63 -44 -107t-108 -44q-65 0 -111.5 44t-46.5 107z" />
    <glyph glyph-name="uniFECF" unicode="&#x63a;" horiz-adv-x="1225" arabic-form="initial" 
d="M-31 223h328q-41 53 -54.5 130t-13.5 163q0 166 134.5 263.5t369.5 103.5q86 4 194.5 -10.5t207.5 -32.5v-230q-31 8 -77 18.5t-100.5 18.5t-113 13.5t-113.5 5.5q-45 0 -84 -6.5t-68.5 -25t-46 -51t-16.5 -83.5q0 -111 21.5 -175.5t56.5 -101.5h549v-223h-1174v223z
M561 1161q0 66 46 112t112 46q63 0 107 -46t44 -112q0 -63 -44 -107t-107 -44q-66 0 -112 44t-46 107z" />
    <glyph glyph-name="uniFED0" unicode="&#x63a;" horiz-adv-x="1237" arabic-form="medial" 
d="M803 0q-66 0 -113 21.5t-82 82.5q-35 -61 -82 -82.5t-112 -21.5h-445v223h377l-276 352q106 164 240 238t298 74t298 -73t243 -236l-277 -355h396v-223h-465zM885 573q-23 27 -55.5 46.5t-70.5 34t-78 21.5t-73 7q-35 0 -74.5 -8t-77.5 -21.5t-70 -34t-50 -45.5l272 -350
zM446 1161q0 66 46.5 112t111.5 46q64 0 108 -46t44 -112q0 -63 -44 -107t-108 -44q-65 0 -111.5 44t-46.5 107z" />
    <glyph glyph-name="uniFED2" unicode="&#x641;" horiz-adv-x="1944" arabic-form="final" 
d="M498 0q-86 0 -160 14.5t-129 47t-86 86t-31 128.5q0 115 21.5 198t51.5 142.5t62.5 103.5t55.5 83h198q-37 -60 -69.5 -125.5t-54 -130t-26.5 -122.5t14.5 -103.5t67.5 -72t134 -26.5h631q-35 19 -67 48.5t-56.5 66.5t-40 78t-15.5 82q0 200 115 310t340 110
q102 0 170 -35t109 -92.5t60 -131t25.5 -151.5t5.5 -151.5t-1 -133.5h151v-223h-1476zM1595 256q0 113 -5 199t-23.5 144t-55 87t-102.5 29q-59 0 -95 -18.5t-54.5 -44t-24.5 -56.5t-6 -55q0 -41 24.5 -89.5t70.5 -89t114.5 -70.5t156.5 -36zM1260 1161q0 66 46 112t111 46
q64 0 108 -46t44 -112q0 -63 -44 -107t-108 -44q-65 0 -111 44t-46 107z" />
    <glyph glyph-name="uniFED3" unicode="&#x641;" horiz-adv-x="1102" arabic-form="initial" 
d="M1016 215q0 -215 -156 -215h-889v223h400q-35 19 -67 48.5t-56.5 66.5t-39.5 78t-15 82q0 200 114.5 310t339.5 110q105 0 172.5 -36t108.5 -94.5t60.5 -133t25.5 -153.5t4 -154t-2 -132zM788 256q0 113 -5 199t-23.5 144t-55 87t-102.5 29q-59 0 -95 -18.5t-54.5 -44
t-24.5 -56.5t-6 -55q0 -41 24.5 -89.5t70.5 -89t114.5 -70.5t156.5 -36zM471 1161q0 66 46 112t112 46q63 0 107 -46t44 -112q0 -63 -44 -107t-107 -44q-66 0 -112 44t-46 107z" />
    <glyph glyph-name="uniFED4" unicode="&#x641;" horiz-adv-x="1210" arabic-form="medial" 
d="M567 715q-73 0 -117 -18.5t-68 -44t-31 -56.5t-7 -55q0 -31 8 -72t32 -82t68 -77t115 -56q72 18 117 54t69.5 77t33 83t8.5 73q0 24 -6.5 55t-30 56.5t-68.5 44t-123 18.5zM-29 0v223h293q-67 39 -108 115t-41 160q0 100 32.5 178t92 131t143.5 82t186 29q213 0 334 -110
t121 -310q0 -84 -38 -160t-105 -115h362v-223h-524h-301h-447zM412 1161q0 66 46 112t111 46q64 0 108 -46t44 -112q0 -63 -44 -107t-108 -44q-65 0 -111 44t-46 107z" />
    <glyph glyph-name="uniFED6" unicode="&#x642;" horiz-adv-x="1700" arabic-form="final" 
d="M1311 223q-2 99 -7.5 199t-21.5 201q-158 -35 -254 -100.5t-100 -178.5q0 -59 34.5 -90t112.5 -31h236zM639 -467q-94 0 -191.5 32t-177.5 96.5t-130 161.5t-50 230q0 115 21.5 198t51.5 142.5t62.5 103.5t55.5 83h157q-53 -88 -92 -203t-39 -221q0 -64 19.5 -136.5
t61.5 -134t106.5 -102.5t154.5 -41h289q68 0 129 9t110.5 37t84 78t49.5 134h-250q-105 0 -175.5 20.5t-114.5 62.5t-62.5 106.5t-18.5 150.5q0 84 46 168t143.5 155.5t250 124t365.5 72.5q29 -170 43 -326.5t18 -310.5h181v-223h-181q-2 -35 -11 -83t-32.5 -100.5
t-62.5 -103.5t-101.5 -91t-151.5 -64.5t-212 -24.5h-346zM791 1188q0 65 46 111.5t111 46.5q64 0 108 -46.5t44 -111.5q0 -64 -44 -108t-108 -44q-65 0 -111 44t-46 108zM1196 1188q0 65 46 111.5t112 46.5q63 0 107 -46.5t44 -111.5q0 -64 -44 -108t-107 -44q-66 0 -112 44
t-46 108z" />
    <glyph glyph-name="uniFED7" unicode="&#x642;" horiz-adv-x="1102" arabic-form="initial" 
d="M1016 215q0 -215 -156 -215h-889v223h400q-35 19 -67 48.5t-56.5 66.5t-39.5 78t-15 82q0 200 114.5 310t339.5 110q105 0 172.5 -36t108.5 -94.5t60.5 -133t25.5 -153.5t4 -154t-2 -132zM788 256q0 113 -5 199t-23.5 144t-55 87t-102.5 29q-59 0 -95 -18.5t-54.5 -44
t-24.5 -56.5t-6 -55q0 -41 24.5 -89.5t70.5 -89t114.5 -70.5t156.5 -36zM209 1161q0 66 46 112t112 46q63 0 107 -46t44 -112q0 -63 -44 -107t-107 -44q-66 0 -112 44t-46 107zM614 1161q0 66 46.5 112t111.5 46q64 0 108 -46t44 -112q0 -63 -44 -107t-108 -44
q-65 0 -111.5 44t-46.5 107z" />
    <glyph glyph-name="uniFED8" unicode="&#x642;" horiz-adv-x="1210" arabic-form="medial" 
d="M567 715q-73 0 -117 -18.5t-68 -44t-31 -56.5t-7 -55q0 -31 8 -72t32 -82t68 -77t115 -56q72 18 117 54t69.5 77t33 83t8.5 73q0 24 -6.5 55t-30 56.5t-68.5 44t-123 18.5zM-29 0v223h293q-67 39 -108 115t-41 160q0 100 32.5 178t92 131t143.5 82t186 29q213 0 334 -110
t121 -310q0 -84 -38 -160t-105 -115h362v-223h-524h-301h-447zM203 1161q0 66 46 112t111 46q64 0 108 -46t44 -112q0 -63 -44 -107t-108 -44q-65 0 -111 44t-46 107zM608 1161q0 66 46 112t112 46q63 0 107.5 -46t44.5 -112q0 -63 -44.5 -107t-107.5 -44q-66 0 -112 44
t-46 107z" />
    <glyph glyph-name="uniFEDA" unicode="&#x643;" horiz-adv-x="1790" arabic-form="final" 
d="M1597 0h-1099q-86 0 -160 14.5t-129 47t-86 86t-31 128.5q0 115 21.5 198t51.5 142.5t62.5 103.5t55.5 83h198q-37 -60 -69.5 -125.5t-54 -130t-26.5 -122.5t14.5 -103.5t67.5 -72t134 -26.5h807v1092l260 74v-1166h207v-223h-224zM1118 717l-491 -146v129l135 41
q-23 4 -40 19.5t-29.5 37t-19.5 46t-7 43.5q0 63 28.5 113.5t72.5 86t95 54t96 18.5q48 0 91 -15.5t84 -68.5l-52 -41l-69 -59q-37 39 -92 39q-54 0 -76.5 -29t-22.5 -57q0 -27 15.5 -49.5t38 -38t47 -24.5t43.5 -11l153 45v-133z" />
    <glyph glyph-name="uniFEDB" unicode="&#x643;" horiz-adv-x="1092" arabic-form="initial" 
d="M909 0h-940v223h697v62q0 59 -33 127.5t-91.5 134t-140.5 126t-180 103.5l17 352l792 269l-65 -273l-516 -157q86 -60 164.5 -139.5t140.5 -163.5q65 -93 110 -188t45 -191v-62v-223z" />
    <glyph glyph-name="uniFEDC" unicode="&#x643;" horiz-adv-x="1223" arabic-form="medial" 
d="M1223 0h-1223v223h684v62q0 59 -33 127.5t-91 134t-140 126t-180 103.5l16 352l793 269l-66 -273l-516 -157q86 -60 165 -139.5t140 -163.5q66 -93 111 -188t45 -191v-62h295v-223z" />
    <glyph glyph-name="uniFEDE" unicode="&#x644;" horiz-adv-x="1440" arabic-form="final" 
d="M1245 0q-47 -250 -196.5 -359.5t-403.5 -109.5q-135 0 -238.5 39t-174 101.5t-106.5 139t-36 152.5q0 115 21.5 198t51.5 142t62.5 103.5t55.5 82.5h157q-53 -88 -92 -202.5t-39 -220.5q0 -56 18.5 -109t58.5 -95t102.5 -67.5t148.5 -25.5q164 0 265 78.5t101 240.5v1227
l261 74v-1166h206v-223h-223z" />
    <glyph glyph-name="uniFEDF" unicode="&#x644;" horiz-adv-x="616" arabic-form="initial" 
d="M-31 223h273v1092l260 74v-1389h-533v223z" />
    <glyph glyph-name="uniFEE0" unicode="&#x644;" horiz-adv-x="741" arabic-form="medial" 
d="M772 223v-223h-803v223h273v1092l260 74v-1166h270z" />
    <glyph glyph-name="uniFEE2" unicode="&#x645;" horiz-adv-x="1409" arabic-form="final" 
d="M455 379q110 227 211.5 348t193.5 121q135 0 225 -193q27 -57 53.5 -144t57.5 -210q8 -45 12 -78h232v-223h-299q-70 -125 -133 -125q-27 0 -58 14q-32 15 -78 41l-104 60l-125 67q-70 37 -145 70q-37 14 -64.5 8t-46 -26.5t-28 -49t-9.5 -55.5v-475h-223v618
q0 66 27.5 116t73.5 81t105.5 40t121.5 -5zM981 143q-25 185 -64.5 298.5t-99.5 113.5q-20 0 -72 -47q-30 -31 -64 -85t-56 -97q125 -52 212 -100t144 -83z" />
    <glyph glyph-name="uniFEE3" unicode="&#x645;" horiz-adv-x="1063" arabic-form="initial" 
d="M979 178q-4 -53 -47 -135q-82 -168 -156 -168q-26 0 -57 14q-62 25 -166 76l-256 127q-35 -61 -80 -80q-35 -12 -115 -12h-133v223h152q61 142 128.5 257.5t134.5 196.5t129 126t116 45q135 0 225 -193q27 -57 53.5 -144t57.5 -210q18 -84 14 -123zM750 143
q-25 185 -65 298.5t-99 113.5q-21 0 -72 -47q-31 -31 -64.5 -85t-56.5 -97q86 -66 178.5 -112t178.5 -71z" />
    <glyph glyph-name="uniFEE4" unicode="&#x645;" horiz-adv-x="1163" arabic-form="medial" 
d="M778 -125q-26 0 -57 14q-62 25 -166 76l-256 127q-35 -61 -80 -80q-35 -12 -115 -12h-133v223h152q61 142 128.5 257.5t134.5 196.5t129.5 126t115.5 45q135 0 225 -193q27 -57 53.5 -144t57.5 -210q8 -45 12 -78h211v-223h-279q-69 -125 -133 -125zM752 143
q-25 185 -65 298.5t-99 113.5q-21 0 -72 -47q-31 -31 -64.5 -85t-56.5 -97q86 -66 178.5 -112t178.5 -71z" />
    <glyph glyph-name="uniFEE6" unicode="&#x646;" horiz-adv-x="1462" arabic-form="final" 
d="M1272 0q-39 -92 -99.5 -161.5t-133 -116t-153.5 -69t-161 -22.5h-84q-94 0 -191.5 32t-177 96.5t-130 161.5t-50.5 231q0 114 21.5 197t51.5 142.5t62.5 103.5t55.5 83h157q-53 -88 -92 -203t-39 -221q0 -64 19.5 -134.5t61.5 -129t106.5 -97t154.5 -38.5h84
q90 0 154.5 38.5t106.5 97t61.5 129t19.5 134.5q0 137 -17.5 281.5t-49.5 279.5l245 80q35 -150 52.5 -305.5t17.5 -302.5v-33q0 -14 -2 -31h170v-223h-221zM596 1049q0 65 46 111t112 46q63 0 107 -46t44 -111q0 -64 -44 -108t-107 -44q-66 0 -112 44t-46 108z" />
    <glyph glyph-name="uniFEE7" unicode="&#x646;" horiz-adv-x="817" arabic-form="initial" 
d="M-31 223h463v600l260 74l2 -897h-725v223zM389 1161q0 66 46 112t112 46q63 0 107 -46t44 -112q0 -63 -44 -107t-107 -44q-66 0 -112 44t-46 107z" />
    <glyph glyph-name="uniFEE8" unicode="&#x646;" horiz-adv-x="913" arabic-form="medial" 
d="M-31 223h385v600l260 74v-674h330v-223h-975v223zM315 1161q0 66 46.5 112t111.5 46q64 0 108 -46t44 -112q0 -63 -44 -107t-108 -44q-65 0 -111.5 44t-46.5 107z" />
    <glyph glyph-name="uniFEEA" unicode="&#x647;" horiz-adv-x="1294" arabic-form="final" 
d="M152 373q0 86 50 168t156.5 147.5t273.5 112.5t398 63v-641h295v-223h-459q-22 14 -37.5 36.5t-25.5 45.5q-10 24 -17 51q-10 -39 -41 -67q-26 -25 -76.5 -45.5t-136.5 -20.5q-208 0 -294 99.5t-86 273.5zM399 410v-66q0 -59 35 -90t113 -31h235v408
q-86 -17 -156.5 -41.5t-119.5 -53t-77 -61.5t-30 -65z" />
    <glyph glyph-name="uniFBAB" unicode="&#x6be;" horiz-adv-x="1411" arabic-form="final" 
d="M551 369q0 100 -36 162.5t-83 62.5q-24 0 -41.5 -16.5t-29 -42t-16.5 -55t-5 -56.5q0 -25 3 -59.5t15.5 -66.5t37 -53.5t69.5 -21.5q43 0 64.5 40t21.5 106zM983 223q-4 99 -18.5 179.5t-50 141t-100 98.5t-169.5 50q55 -43 84 -121.5t29 -177.5q0 -49 -13.5 -94
t-19.5 -76h258zM1243 223h201v-223h-201h-1272v223h226q-41 29 -47.5 81t-6.5 118q0 47 15.5 100t44 101.5t68.5 82t89 42.5q-61 0 -103 15t-69.5 45t-42 72t-22.5 95q156 -47 522 -80q166 -21 279.5 -66t184.5 -123.5t102.5 -194.5t31.5 -280v-8z" />
    <glyph glyph-name="uniFEEE" unicode="&#x648;" horiz-adv-x="1085" arabic-form="final" 
d="M365 -469l-48 147q97 7 177 43q67 31 127.5 95.5t74.5 183.5h-256q-209 0 -297 88t-88 262q0 84 50.5 166t153.5 151.5t260 121t370 71.5q24 -135 36.5 -294.5t16.5 -342.5h178v-223h-178q-2 -35 -12 -84t-34 -100.5t-63.5 -102.5t-103 -92t-153 -65.5t-211.5 -24.5z
M696 223q-2 99 -7 199t-21 201q-78 -17 -143.5 -41.5t-112.5 -58.5t-75 -79t-30 -100q0 -59 35 -90t113 -31h241z" />
    <glyph glyph-name="uniFEF0" unicode="&#x649;" horiz-adv-x="1896" arabic-form="final" 
d="M1286 872q137 0 230.5 -65.5t150.5 -162.5t84 -211t35 -210h170v-223h-391q0 168 -16.5 283.5t-43 191.5t-59.5 116t-66.5 58.5t-62.5 21.5t-49 3q-68 0 -122 -20.5t-92 -53.5t-59.5 -74t-21.5 -82q0 -20 9 -44.5t42 -24.5h205q31 0 57.5 -9.5t46 -34t30.5 -65.5t11 -102
q0 -277 -167 -405t-531 -128q-135 0 -243.5 39t-184.5 101.5t-117 139.5t-41 152q0 115 21.5 198t51.5 142.5t62.5 103.5t55.5 83h157q-53 -88 -92 -203t-39 -221q0 -55 23.5 -108.5t69.5 -95.5t113 -67.5t153 -25.5q161 0 247 14.5t128 43t55.5 74.5t29.5 110q2 6 2 16
q0 25 -32 25h-105q-80 0 -132 11t-83 34.5t-43 57.5t-12 77q0 80 32.5 175t102.5 176t176.5 135t253.5 54z" />
    <glyph glyph-name="uniFEF2" unicode="&#x64a;" horiz-adv-x="1896" arabic-form="final" 
d="M1286 872q137 0 230.5 -65.5t150.5 -162.5t84 -211t35 -210h170v-223h-391q0 168 -16.5 283.5t-43 191.5t-59.5 116t-66.5 58.5t-62.5 21.5t-49 3q-68 0 -122 -20.5t-92 -53.5t-59.5 -74t-21.5 -82q0 -20 9 -44.5t42 -24.5h205q31 0 57.5 -9.5t46 -34t30.5 -65.5t11 -102
q0 -277 -167 -405t-531 -128q-135 0 -243.5 39t-184.5 101.5t-117 139.5t-41 152q0 115 21.5 198t51.5 142.5t62.5 103.5t55.5 83h157q-53 -88 -92 -203t-39 -221q0 -55 23.5 -108.5t69.5 -95.5t113 -67.5t153 -25.5q161 0 247 14.5t128 43t55.5 74.5t29.5 110q2 6 2 16
q0 25 -32 25h-105q-80 0 -132 11t-83 34.5t-43 57.5t-12 77q0 80 32.5 175t102.5 176t176.5 135t253.5 54zM529 -550q0 42 29.5 71.5t71.5 29.5q40 0 68.5 -29.5t28.5 -71.5q0 -40 -28.5 -68.5t-68.5 -28.5q-42 0 -71.5 28.5t-29.5 68.5zM788 -550q0 42 29.5 71.5t71.5 29.5
q41 0 69 -29.5t28 -71.5q0 -40 -28 -68.5t-69 -28.5q-42 0 -71.5 28.5t-29.5 68.5z" />
    <glyph glyph-name="uniFEF3" unicode="&#x64a;" horiz-adv-x="817" arabic-form="initial" 
d="M-31 223h463v600l260 74l2 -897h-725v223zM0 -334q0 66 46 112t112 46q63 0 107 -46t44 -112q0 -63 -44 -107t-107 -44q-66 0 -112 44t-46 107zM406 -334q0 66 46 112t111 46q64 0 108 -46t44 -112q0 -63 -44 -107t-108 -44q-65 0 -111 44t-46 107z" />
    <glyph glyph-name="uniFEF4" unicode="&#x64a;" horiz-adv-x="913" arabic-form="medial" 
d="M-31 223h385v600l260 74v-674h330v-223h-975v223zM119 -334q0 66 46 112t111 46q64 0 108 -46t44 -112q0 -63 -44 -107t-108 -44q-65 0 -111 44t-46 107zM524 -334q0 66 46 112t112 46q63 0 107.5 -46t44.5 -112q0 -63 -44.5 -107t-107.5 -44q-66 0 -112 44t-46 107z" />
    <glyph glyph-name=".notdef" unicode="&#x676;" horiz-adv-x="1536" 
d="M256 0v1280h1024v-1280h-1024zM288 32h960v1216h-960v-1216z" />
    <glyph glyph-name="uniFBDA" unicode="&#x6c6;" horiz-adv-x="1085" arabic-form="final" 
d="M365 -469l-48 147q97 7 177 43q67 31 127.5 95.5t74.5 183.5h-256q-209 0 -297 88t-88 262q0 84 50.5 166t153.5 151.5t260 121t370 71.5q24 -135 36.5 -294.5t16.5 -342.5h178v-223h-178q-2 -35 -12 -84t-34 -100.5t-63.5 -102.5t-103 -92t-153 -65.5t-211.5 -24.5z
M696 223q-2 99 -7 199t-21 201q-78 -17 -143.5 -41.5t-112.5 -58.5t-75 -79t-30 -100q0 -59 35 -90t113 -31h241zM668 1403l65 -100l-100 -312q-27 -10 -78 -24.5t-74 -22.5q-102 230 -213 367q13 6 42.5 18t51 19.5t44.5 11.5q112 -129 169 -244q43 172 93 287z" />
    <glyph glyph-name="uniFBFE" unicode="&#x6cc;" horiz-adv-x="817" arabic-form="initial" 
d="M-31 223h463v600l260 74l2 -897h-725v223zM0 -334q0 66 46 112t112 46q63 0 107 -46t44 -112q0 -63 -44 -107t-107 -44q-66 0 -112 44t-46 107zM406 -334q0 66 46 112t111 46q64 0 108 -46t44 -112q0 -63 -44 -107t-108 -44q-65 0 -111 44t-46 107z" />
    <glyph glyph-name="uniFBFF" unicode="&#x6cc;" horiz-adv-x="913" arabic-form="medial" 
d="M-31 223h385v600l260 74v-674h330v-223h-975v223zM119 -334q0 66 46 112t111 46q64 0 108 -46t44 -112q0 -63 -44 -107t-108 -44q-65 0 -111 44t-46 107zM524 -334q0 66 46 112t112 46q63 0 107.5 -46t44.5 -112q0 -63 -44.5 -107t-107.5 -44q-66 0 -112 44t-46 107z" />
    <glyph glyph-name=".null" horiz-adv-x="0" 
 />
    <glyph glyph-name="nonmarkingreturn" horiz-adv-x="640" 
 />
    <glyph glyph-name="space" unicode=" " horiz-adv-x="640" 
 />
    <glyph glyph-name="exclam" unicode="!" horiz-adv-x="524" 
d="M176 358l-35 654v352h260v-352l-36 -654h-189zM115 102q0 66 46 112t111 46q64 0 108 -46t44 -112q0 -63 -44 -107t-108 -44q-65 0 -111 44t-46 107z" />
    <glyph glyph-name="quotedbl" unicode="&#x22;" horiz-adv-x="760" 
d="M119 1405h203v-508h-203v508zM463 1405h203v-508h-203v508z" />
    <glyph glyph-name="numbersign" unicode="#" horiz-adv-x="1245" 
d="M233 350h-124v199h161l54 266h-215v199h258l69 350h201l-70 -350h199l70 350h208l-73 -350h125v-199h-166l-53 -266h219v-199h-258l-72 -350h-203l72 350h-201l-69 -350h-205zM528 815l-55 -266h203l49 266h-197z" />
    <glyph glyph-name="dollar" unicode="$" horiz-adv-x="938" 
d="M428 176v365q-174 49 -252 147t-78 240q0 143 88 239.5t242 112.5v86h127v-86q137 -16 219 -94t105 -209l-222 -27q-18 103 -102 137v-339q209 -60 285 -148q73 -90 73 -231q0 -158 -94 -265q-94 -108 -264 -133v-161h-127v157q-152 19 -245 112t-120 265l228 25
q12 -70 51 -120t86 -73zM428 1092q-53 -19 -83 -61t-30 -93q0 -45 28 -85t85 -65v304zM555 164q31 6 57.5 20.5t46.5 40.5q41 43 41 113q0 59 -33.5 101t-111.5 65v-340z" />
    <glyph glyph-name="percent" unicode="%" horiz-adv-x="1722" 
d="M113 1022q0 176 76.5 259t207.5 83q135 0 211 -83t76 -259q0 -174 -77 -257t-206 -83q-135 0 -211.5 83t-76.5 257zM307 1024q0 -127 29 -168q20 -33 61 -33t62 33q28 41 28 168t-28 168q-23 35 -62 35t-61 -33q-29 -45 -29 -170zM586 0h-185l691 1364h178zM985 338
q0 176 77 259t210 83q135 0 211 -83t76 -259q0 -174 -77 -258t-208 -84q-135 0 -212 84t-77 258zM1180 338q0 -62 8 -103.5t20 -64.5q25 -33 62 -33q41 0 61 33q29 41 29 168q0 131 -27 170q-24 33 -63 33q-37 0 -62 -33q-12 -21 -20 -64t-8 -106z" />
    <glyph glyph-name="ampersand" unicode="&#x26;" horiz-adv-x="1296" 
d="M1260 182l-152 -196q-113 55 -217 151q-82 -71 -171 -105t-212 -34q-248 0 -371 137q-96 109 -96 248q0 258 301 403q-137 158 -137 289q0 119 96 205q96 84 272 84q175 0 269 -88q96 -90 96 -215q0 -78 -49 -152q-45 -73 -193 -161l187 -244q16 28 29.5 66t23.5 85
l229 -53q-18 -61 -32.5 -104t-26.5 -72q-25 -55 -55 -94q22 -21 48.5 -42.5t61.5 -45.5l60 -39q22 -17 39 -23zM571 899l70 51q76 58 76 119q0 47 -37 82t-100 35q-60 0 -93.5 -31t-33.5 -70q0 -49 57 -114zM473 625q-88 -43 -130 -105.5t-42 -128.5q0 -82 52.5 -133
t142.5 -51q59 0 113.5 22.5t119.5 77.5z" />
    <glyph glyph-name="quotesingle" unicode="'" horiz-adv-x="375" 
d="M84 1405h203v-508h-203v508z" />
    <glyph glyph-name="parenleft" unicode="(" horiz-adv-x="647" 
d="M567 1421q-116 -204 -173.5 -425.5t-57.5 -469.5q0 -483 225 -899h-59q-221 230 -322.5 456t-101.5 449.5t102.5 444.5t327.5 444h59z" />
    <glyph glyph-name="parenright" unicode=")" horiz-adv-x="635" 
d="M137 1421q225 -223 327.5 -444t102.5 -444.5t-101 -449.5t-323 -456h-59q225 416 225 899q0 248 -57 469.5t-174 425.5h59z" />
    <glyph glyph-name="asterisk" unicode="*" horiz-adv-x="891" 
d="M444 1126l-152 -219l-121 81l171 213l-247 68l44 138l239 -82v257h134v-257l236 82l48 -138l-251 -68l173 -211l-119 -88z" />
    <glyph glyph-name="plus" unicode="+" horiz-adv-x="1092" 
d="M453 25v290h-291v224h291v290h223v-290h291v-224h-291v-290h-223z" />
    <glyph glyph-name="comma" unicode="," horiz-adv-x="504" 
d="M86 125q0 55 41 98t104 43q39 0 73 -19.5t58.5 -54t38 -80.5t13.5 -102q0 -155 -88 -268q-47 -57 -133 -119l-33 55l53 52q23 24 39 45q55 73 55 128.5t-110.5 80t-110.5 141.5z" />
    <glyph glyph-name="hyphen" unicode="-" horiz-adv-x="1071" 
d="M162 539h805v-224h-805v224z" />
    <glyph glyph-name="period" unicode="." horiz-adv-x="518" 
d="M104 147q0 66 46.5 112t111.5 46q64 0 108 -46t44 -112q0 -63 -44 -107t-108 -44q-65 0 -111.5 44t-46.5 107z" />
    <glyph glyph-name="slash" unicode="/" horiz-adv-x="1075" 
d="M334 0h-238l690 1364h232z" />
    <glyph glyph-name="zero" unicode="0" horiz-adv-x="1143" 
d="M549 1391q119 0 209 -38t149.5 -123t89 -221.5t29.5 -332.5q0 -195 -28.5 -330t-88 -220t-149.5 -124t-211 -39q-107 0 -195 28.5t-150.5 108.5t-97 219.5t-34.5 360.5q0 192 28.5 327.5t88 220.5t148.5 124t212 39zM549 1153q-47 0 -82 -13.5t-57.5 -61.5t-35 -143
t-12.5 -259q0 -178 14.5 -274.5t39 -140.5t58.5 -52t75 -8q45 0 80 13t58.5 61.5t35.5 142.5t12 258q0 178 -14 275.5t-40 141.5t-59.5 52t-72.5 8z" />
    <glyph glyph-name="one" unicode="1" horiz-adv-x="696" 
d="M571 0h-260v967q-57 -54 -121.5 -96t-136.5 -76l-2 260q99 53 188 140t128 194h204v-1389z" />
    <glyph glyph-name="two" unicode="2" horiz-adv-x="1112" 
d="M94 958q29 230 144.5 331.5t318.5 101.5q111 0 199 -32t149.5 -88.5t94 -132t32.5 -163.5q0 -74 -17.5 -128t-58.5 -106.5t-108 -115.5l-166 -156q-72 -66 -116 -126t-79 -120h545v-223h-962q12 68 31.5 129t59.5 130t108.5 148.5t176.5 184.5q46 43 98 81t97 79t74.5 89
t29.5 113q0 99 -52 149t-144 50q-84 0 -125 -45t-57 -150h-273z" />
    <glyph glyph-name="three" unicode="3" horiz-adv-x="1057" 
d="M63 1026q39 195 145.5 281t297.5 86q96 0 179 -29t143.5 -78t95 -116.5t34.5 -145.5q0 -98 -52 -171t-171 -116q129 -26 206 -100t77 -209q0 -100 -38 -185t-105.5 -147.5t-159.5 -97.5t-199 -35q-110 0 -192 27.5t-137.5 80t-87 126t-44.5 165.5h256q23 -86 75 -124.5
t128 -38.5q88 0 144.5 62.5t56.5 178.5q0 111 -52.5 158t-138.5 47h-96l4 182h8q109 0 162 47.5t53 133.5q0 75 -41 120.5t-114 45.5q-64 0 -112 -37t-69 -111h-256z" />
    <glyph glyph-name="four" unicode="4" horiz-adv-x="1139" 
d="M944 1389v-865h143v-231h-143v-293h-262v293h-614v229l612 867h264zM682 524v482l-344 -482h344z" />
    <glyph glyph-name="five" unicode="5" horiz-adv-x="1100" 
d="M954 1159h-485l-55 -270q47 24 96 32.5t98 8.5q193 0 310.5 -108.5t117.5 -327.5q0 -111 -34.5 -208.5t-97 -168t-151.5 -111.5t-200 -41q-203 0 -320.5 102.5t-150.5 282.5h276q23 -71 77 -113t120 -42q92 0 154.5 72.5t62.5 219.5q0 70 -16.5 113t-46 67.5t-70.5 33
t-90 8.5q-98 0 -180 -70l-263 2l146 748h702v-230z" />
    <glyph glyph-name="six" unicode="6" horiz-adv-x="1087" 
d="M731 1059q-16 63 -56 80.5t-100 17.5q-43 0 -80.5 -11t-68.5 -53t-52.5 -121t-29.5 -214q109 127 264 127q90 0 168 -38t134.5 -100.5t89 -143.5t32.5 -167q0 -114 -33.5 -203.5t-95 -148.5t-147.5 -90t-191 -31q-112 0 -204.5 37t-158 119t-101 210t-35.5 312
q0 209 36.5 352.5t106.5 233.5t166 130t217 40q170 0 276.5 -80t139.5 -258h-277zM367 459q0 -72 17 -120t47 -79t68 -44t81 -13q38 0 73 9t59.5 34.5t39 69.5t14.5 116q0 105 -57.5 171.5t-143.5 66.5q-43 0 -78.5 -16.5t-62.5 -46t-42 -67.5t-15 -81z" />
    <glyph glyph-name="seven" unicode="7" horiz-adv-x="975" 
d="M51 1389h869l2 -232q-82 -94 -161 -229t-141.5 -290t-104.5 -319.5t-50 -318.5h-277q9 147 45.5 303t95 306.5t137.5 290.5t171 259h-586v230z" />
    <glyph glyph-name="eight" unicode="8" horiz-adv-x="1087" 
d="M295 731q-111 47 -166 124t-55 175q0 84 31.5 152.5t91 118t144.5 77t194 27.5q104 0 189 -27.5t145.5 -77t92 -118t31.5 -152.5q0 -104 -59.5 -180t-157.5 -119q129 -49 194.5 -128t65.5 -204q0 -104 -35.5 -185t-100 -137.5t-155 -85t-198.5 -28.5q-111 0 -204 28.5
t-159.5 82t-104.5 132.5t-38 181q0 123 62.5 206t191.5 138zM344 1010q0 -86 54.5 -129t136.5 -43q79 0 134.5 43t55.5 129q0 82 -54.5 130t-133.5 48q-82 0 -137.5 -48t-55.5 -130zM319 414q0 -60 17.5 -101t48.5 -67.5t71 -38.5t85 -12t85 11t68.5 36.5t46 66.5t17.5 103
q0 106 -64.5 151t-156.5 45q-105 0 -161.5 -54t-56.5 -140z" />
    <glyph glyph-name="nine" unicode="9" horiz-adv-x="1090" 
d="M367 301q16 -63 56 -80.5t99 -17.5q43 0 81 11t68.5 53t52 121t30.5 214q-109 -127 -265 -127q-90 0 -167.5 38t-134 100.5t-89 143.5t-32.5 167q0 114 33.5 202t95 148.5t147.5 91.5t190 31q113 0 205 -37t158 -119t101.5 -210t35.5 -312q0 -209 -37 -352.5
t-106.5 -233.5t-166.5 -130t-216 -40q-170 0 -276.5 80t-139.5 258h277zM731 901q0 70 -17.5 119t-47 79.5t-67.5 44t-81 13.5q-41 0 -74.5 -9t-58.5 -35t-39 -71t-14 -114q0 -105 57 -171.5t143 -66.5q43 0 79 16.5t62.5 46t42 67.5t15.5 81z" />
    <glyph glyph-name="colon" unicode=":" horiz-adv-x="518" 
d="M104 147q0 66 46.5 112t111.5 46q64 0 108 -46t44 -112q0 -63 -44 -107t-108 -44q-65 0 -111.5 44t-46.5 107zM104 727q0 66 46.5 112t111.5 46q64 0 108 -46t44 -112q0 -63 -44 -107.5t-108 -44.5q-65 0 -111.5 44.5t-46.5 107.5z" />
    <glyph glyph-name="semicolon" unicode=";" horiz-adv-x="530" 
d="M109 125q0 55 40.5 98t104.5 43q39 0 72.5 -19.5t58.5 -54t38 -80.5t13 -102q0 -155 -88 -268q-47 -57 -133 -119l-33 55l51 52q25 24 41 45q56 73 56 128.5t-110.5 80t-110.5 141.5zM104 727q0 66 46.5 112t111.5 46q64 0 108 -46t44 -112q0 -63 -44 -107.5t-108 -44.5
q-65 0 -111.5 44.5t-46.5 107.5z" />
    <glyph glyph-name="less" unicode="&#x3c;" horiz-adv-x="1219" 
d="M78 416v202l975 439v-238l-670 -301l670 -303v-238z" />
    <glyph glyph-name="equal" unicode="=" horiz-adv-x="1087" 
d="M162 449h805v-224h-805v224zM162 827h805v-223h-805v223z" />
    <glyph glyph-name="greater" unicode="&#x3e;" horiz-adv-x="1219" 
d="M78 -23v238l672 303l-672 301v238l975 -439v-202z" />
    <glyph glyph-name="question" unicode="?" 
d="M549 1390q-97 0 -144 -52.5t-50 -164.5h-248q3 100 34.5 179.5t88.5 135t137.5 84.5t181.5 29t182.5 -26.5t139 -75.5t88.5 -119t31 -156q0 -92 -55 -174q-55 -81 -184 -178q-47 -36 -67.5 -75.5t-20.5 -101.5q0 -5 0.5 -10t0.5 -10h-232v15q0 112 41 192q43 84 154 161
q26 18 44 37t29.5 40.5t17 46.5t5.5 57q0 75 -46.5 120.5t-127.5 45.5zM418 549h261v-249h-261v249z" />
    <glyph glyph-name="at" unicode="@" horiz-adv-x="1917" 
d="M1655 -20h198q-90 -185 -286 -297q-221 -123 -539 -123q-154 0 -288 25.5t-246 78.5q-220 103 -332 307q-109 199 -109 443q0 262 123 487t340 338q217 117 494 117q116 0 220.5 -23.5t199.5 -68.5q178 -88 278 -260q94 -168 94 -369q0 -242 -145 -430
q-182 -244 -471 -244q-78 0 -117 26.5t-51 80.5q-113 -107 -254 -107q-152 0 -258 107q-100 108 -100 286q0 224 120 400q150 221 385 221q166 0 244 -127l25 104h245l-143 -671q-4 -31 -8 -51.5t-4 -30.5q0 -23 10 -35t27 -12q45 0 116 55q95 69 156 192q29 60 42 120.5
t13 125.5q0 232 -164 383q-167 156 -464 156q-256 0 -431 -105q-176 -102 -264 -291q-43 -92 -66.5 -189t-23.5 -200q0 -194 101 -358q49 -82 118.5 -139.5t159.5 -96.5q92 -34 193.5 -53.5t218.5 -19.5q446 0 643 248zM645 365q0 -117 47 -175q49 -57 119 -57q51 0 100 27
q35 14 72 57q23 29 45.5 71t38.5 95q37 111 37 205q0 106 -49 162q-49 57 -125 57q-80 0 -148 -62q-65 -61 -102 -178q-16 -59 -25.5 -108t-9.5 -94z" />
    <glyph glyph-name="A" unicode="A" horiz-adv-x="1287" 
d="M36 300l452 1279h310l453 -1279h-284l-86 260h-485l-85 -260h-275zM639 1294l-169 -514h340z" />
    <glyph glyph-name="B" unicode="B" horiz-adv-x="1287" 
d="M136 300v1279h619q92 0 165 -22t124 -64t78 -102t27 -136q0 -91 -40 -161.5t-120 -105.5q101 -37 152 -111t51 -177q0 -197 -120.5 -298.5t-355.5 -101.5h-580zM391 863v-341h325q209 0 209 182q0 159 -214 159h-320zM391 1359v-281h306q199 0 199 150q0 131 -210 131
h-295z" />
    <glyph glyph-name="C" unicode="C" horiz-adv-x="1287" 
d="M1219 748q-12 -111 -57 -200t-117 -152t-168 -97t-211 -34q-135 0 -244 47t-185.5 133.5t-117.5 210t-41 276.5q0 156 41 282t117.5 215t185.5 137t244 48q112 0 207.5 -32t168 -91.5t118.5 -144t59 -189.5h-268q-7 51 -30 93t-60 71t-86 45t-107 16q-74 0 -133 -30.5
t-100 -88.5t-62.5 -141t-21.5 -188q0 -102 21.5 -183.5t62.5 -137.5t100 -86t133 -30q59 0 108 17.5t86 50t59.5 79t29.5 104.5h268z" />
    <glyph glyph-name="D" unicode="D" horiz-adv-x="1287" 
d="M136 300v1279h547q264 0 401 -155t137 -453q0 -329 -142.5 -500t-417.5 -171h-525zM403 520h225q326 0 326 440q0 399 -304 399h-247v-839z" />
    <glyph glyph-name="E" unicode="E" horiz-adv-x="1188" 
d="M136 300v1279h941v-227h-674v-272h625v-220h-625v-333h704v-227h-971z" />
    <glyph glyph-name="F" unicode="F" 
d="M136 300v1279h910v-227h-643v-291h560v-220h-560v-541h-267z" />
    <glyph glyph-name="G" unicode="G" horiz-adv-x="1386" 
d="M686 265q-140 0 -252.5 47t-191.5 134t-121.5 210t-42.5 276q0 156 44.5 282.5t126.5 215t199 136.5t262 48q115 0 212 -30t170 -86t119 -136t59 -180h-268q-5 42 -30.5 80t-64 67t-86 46t-97.5 17q-86 0 -155 -31t-117 -89.5t-73.5 -143t-25.5 -191.5q0 -218 93 -331.5
t277 -113.5q120 0 199.5 71.5t112.5 204.5v3h-301v220h536v-690h-178l-26 165l-16 -21q-135 -180 -364 -180z" />
    <glyph glyph-name="H" unicode="H" horiz-adv-x="1287" 
d="M126 300v1279h267v-479h500v479h268v-1279h-268v579h-500v-579h-267z" />
    <glyph glyph-name="I" unicode="I" horiz-adv-x="495" 
d="M114 300v1279h267v-1279h-267z" />
    <glyph glyph-name="J" unicode="J" horiz-adv-x="991" 
d="M596 1579h267v-920q0 -196 -104 -295t-308 -99q-210 0 -311.5 102.5t-101.5 316.5q0 8 0.5 14.5t0.5 14.5v77h254v-77v-18q0 -108 37 -159.5t118 -51.5q79 0 113.5 41t34.5 134v920z" />
    <glyph glyph-name="K" unicode="K" horiz-adv-x="1287" 
d="M155 300v1279h267v-530l490 530h341l-511 -523l545 -756h-350l-385 563l-130 -133v-430h-267z" />
    <glyph glyph-name="L" unicode="L" 
d="M136 300v1279h267v-1052h636v-227h-903z" />
    <glyph glyph-name="M" unicode="M" horiz-adv-x="1484" 
d="M372 300h-249v1279h391l233 -1014l230 1014h386v-1279h-249v1075l-240 -1075h-262l-240 1099v-1099z" />
    <glyph glyph-name="N" unicode="N" horiz-adv-x="1287" 
d="M372 300h-249v1279h280l513 -897v897h250v-1279h-266l-528 921v-921z" />
    <glyph glyph-name="O" unicode="O" horiz-adv-x="1386" 
d="M693 265q-141 0 -254.5 47t-194 133.5t-123.5 210t-43 276.5q0 156 43 282.5t123.5 215t194 136.5t254.5 48t255 -48t194 -137t123 -215t43 -282q0 -153 -43 -276.5t-123.5 -210t-194 -133.5t-254.5 -47zM693 492q82 0 146.5 30.5t109.5 87.5t68.5 139t23.5 185
q0 105 -23.5 189t-68.5 142.5t-109.5 90t-146.5 31.5t-146.5 -31t-109.5 -89.5t-68.5 -142.5t-23.5 -190q0 -104 23.5 -186t68.5 -139t109.5 -87t146.5 -30z" />
    <glyph glyph-name="P" unicode="P" horiz-adv-x="1188" 
d="M136 300v1279h535q220 0 333 -102t113 -298q0 -208 -113 -315t-333 -107h-80q-53 0 -99.5 -0.5t-88.5 -1.5v-455h-267zM403 977h223q224 0 224 199q0 183 -224 183h-223v-382z" />
    <glyph glyph-name="Q" unicode="Q" horiz-adv-x="1386" 
d="M1176 207l-153 142q-137 -84 -330 -84q-141 0 -254.5 47t-194 133.5t-123.5 210t-43 276.5q0 156 43 282.5t123.5 215t194 136.5t254.5 48t255 -48t194 -137t123 -215t43 -282q0 -278 -135 -450l139 -131zM705 642l135 143l140 -127q61 106 61 276q0 105 -23.5 189
t-68.5 142.5t-109.5 90t-146.5 31.5t-146.5 -31t-109.5 -89.5t-68.5 -142.5t-23.5 -190t24 -188.5t70 -138.5t111.5 -85.5t149.5 -29.5q75 0 136 29z" />
    <glyph glyph-name="R" unicode="R" horiz-adv-x="1287" 
d="M136 300v1279h644q90 0 165 -25.5t129 -72t83.5 -112.5t29.5 -146q0 -118 -50 -193.5t-150 -114.5q151 -57 157 -240l6 -210q1 -30 3.5 -51.5t8.5 -36t17 -24.5t28 -18v-34h-295q-5 10 -9.5 33t-8.5 53.5t-6 67t-3 73.5l-2 118q-1 43 -13 73.5t-38 49.5t-66 27.5t-97 8.5
h-266v-505h-267zM403 1020h310q207 0 207 170q0 169 -197 169h-320v-339z" />
    <glyph glyph-name="S" unicode="S" horiz-adv-x="1188" 
d="M829 1195q-3 46 -24 83t-56 62.5t-83.5 39.5t-106.5 14q-103 0 -160 -44.5t-57 -125.5q0 -29 11.5 -49.5t45 -38t94.5 -35.5t160 -40q135 -30 225 -63t144 -78.5t76.5 -109t22.5 -153.5t-37 -162.5t-106 -123.5t-166 -78.5t-217 -27.5q-122 0 -217.5 28.5t-162 84
t-104 135.5t-41.5 184h257q4 -103 73.5 -157.5t194.5 -54.5q129 0 200.5 41.5t71.5 114.5q0 35 -9.5 60t-38 44.5t-81.5 36t-139 36.5q-145 32 -242.5 65.5t-157 77.5t-84.5 103.5t-25 144.5q0 93 35.5 168t100.5 127.5t157.5 81t206.5 28.5q106 0 194.5 -29.5t154 -84.5
t104 -132t46.5 -173h-260z" />
    <glyph glyph-name="T" unicode="T" 
d="M412 300v1052h-387v227h1040v-227h-386v-1052h-267z" />
    <glyph glyph-name="U" unicode="U" horiz-adv-x="1287" 
d="M1161 782q0 -138 -29 -236t-91.5 -160.5t-160 -91.5t-235.5 -29q-263 0 -390 126.5t-127 390.5v797h267v-806q0 -275 250 -275q67 0 114.5 15.5t77 48.5t43 85t13.5 126v806h268v-797z" />
    <glyph glyph-name="V" unicode="V" horiz-adv-x="1188" 
d="M34 1579h284l281 -977l280 977h275l-433 -1279h-254z" />
    <glyph glyph-name="W" unicode="W" horiz-adv-x="1682" 
d="M385 300l-356 1279h278l213 -936l183 936h284l186 -928l212 928h270l-356 -1279h-254l-205 1007l-201 -1007h-254z" />
    <glyph glyph-name="X" unicode="X" horiz-adv-x="1188" 
d="M25 300l414 647l-386 632h316l225 -413l233 413h308l-389 -612l417 -667h-319l-251 440l-252 -440h-316z" />
    <glyph glyph-name="Y" unicode="Y" horiz-adv-x="1188" 
d="M473 781l-446 798h318l266 -555l249 555h303l-423 -793v-486h-267v481z" />
    <glyph glyph-name="Z" unicode="Z" 
d="M44 524l663 828h-641v227h978v-211l-675 -841h673v-227h-998v224z" />
    <glyph glyph-name="bracketleft" unicode="[" horiz-adv-x="678" 
d="M125 -371v1803h477v-213h-221v-1377h221v-213h-477z" />
    <glyph glyph-name="backslash" unicode="\" horiz-adv-x="1079" 
d="M96 1364h232l690 -1364h-238z" />
    <glyph glyph-name="bracketright" unicode="]" horiz-adv-x="688" 
d="M125 -371v213h221v1377h-221v213h477v-1803h-477z" />
    <glyph glyph-name="asciicircum" unicode="^" horiz-adv-x="960" 
d="M923 691h-92l-350 586l-350 -586h-94l431 717h30z" />
    <glyph glyph-name="underscore" unicode="_" horiz-adv-x="991" 
d="M0 77v92h991v-92h-991z" />
    <glyph glyph-name="grave" unicode="`" horiz-adv-x="593" 
d="M221 1377l-261 258h273l168 -258h-180z" />
    <glyph glyph-name="a" unicode="a" horiz-adv-x="991" 
d="M343 276q-66 0 -119.5 19.5t-92 55.5t-59.5 86t-21 112q0 129 72 207t211 98l165 23q28 4 54 9.5t45.5 16t31.5 27t12 43.5q0 49 -43.5 74.5t-120.5 25.5q-72 0 -112 -34.5t-42 -98.5h-240q17 332 422 332q87 0 157.5 -19t120 -55t76.5 -87.5t27 -116.5v-529
q0 -32 2 -53.5t8 -36t16 -23.5t27 -16v-35h-270q-8 29 -14 56.5t-8 55.5l-1 2q-117 -139 -304 -139zM643 650v108q-22 -11 -51 -21.5t-64 -17.5l-92 -17q-133 -24 -133 -127q0 -57 30.5 -89t84.5 -32q43 0 83.5 12t72 36t50.5 61t19 87z" />
    <glyph glyph-name="b" unicode="b" 
d="M109 1579h249v-456l6 7q100 142 266 142q90 0 163.5 -35.5t126 -99t81 -152.5t28.5 -197q0 -114 -28.5 -208t-81 -161.5t-126 -105t-163.5 -37.5q-84 -1 -149.5 32.5t-116.5 99.5l-11 14v-122h-244v1279zM559 481q100 0 157 74.5t57 209.5q0 69 -14.5 123t-42.5 91.5
t-67.5 57t-89.5 19.5q-100 0 -156.5 -79t-56.5 -220q0 -64 14.5 -115t42 -87t67 -55t89.5 -19z" />
    <glyph glyph-name="c" unicode="c" horiz-adv-x="991" 
d="M934 651q-10 -89 -43.5 -158.5t-88.5 -117.5t-128.5 -73.5t-163.5 -25.5q-108 0 -191.5 32.5t-140.5 95t-87 154t-30 210.5q0 115 31.5 208t90 159t141.5 101.5t186 35.5q91 0 167.5 -26.5t132 -75t88 -116t36.5 -148.5h-255q-2 35 -14.5 64t-35 49.5t-53 32t-66.5 11.5
q-94 0 -143 -75t-49 -220q0 -142 49 -215t143 -73q69 0 115 47t54 124h255z" />
    <glyph glyph-name="d" unicode="d" 
d="M464 276q-91 0 -165 37t-127 104.5t-82 162t-29 208.5q0 108 29 197.5t81.5 153t126.5 98.5t164 35q162 0 259 -136l11 -14v457h249v-1279h-242v121l-4 -6q-103 -139 -271 -139zM531 1056q-100 0 -156.5 -76.5t-56.5 -214.5q0 -135 56 -209.5t156 -74.5q102 0 158 78.5
t56 220.5q0 130 -56.5 203t-156.5 73z" />
    <glyph glyph-name="e" unicode="e" horiz-adv-x="991" 
d="M491 276q-108 0 -192 34t-141 99t-87 160.5t-30 218.5q0 113 31 203t89 152.5t141.5 95.5t188.5 33q111 0 195 -34.5t140.5 -100.5t85.5 -162t29 -220q0 -24 -4 -43h-645q5 -64 20 -109t42 -73.5t67 -42t95 -13.5q27 0 54 8.5t49.5 23.5t38.5 35t21 43h254
q-17 -72 -55 -129.5t-95 -97t-131 -60.5t-161 -21zM681 871q-18 196 -194 196q-157 0 -192 -196h386z" />
    <glyph glyph-name="f" unicode="f" horiz-adv-x="593" 
d="M405 1072v-772h-249v772h-139v175h139v79q0 144 78 207t236 63q54 0 96 -6v-199h-79q-25 0 -41 -4t-25 -15.5t-12.5 -31.5t-3.5 -51v-42h161v-175h-161z" />
    <glyph glyph-name="g" unicode="g" 
d="M543 103q105 0 151 51t46 169v116l-20 -30q-83 -114 -237 -114q-93 0 -169 35t-130 98.5t-83.5 152.5t-29.5 197q0 110 29 201t81.5 156t126.5 101t164 36q191 0 278 -164v139h235v-897q0 -224 -111 -330.5t-346 -106.5q-96 0 -173.5 19t-133 55.5t-87 89t-35.5 119.5
h272q3 -48 44 -70.5t128 -22.5zM535 1056q-97 0 -152 -74.5t-55 -206.5q0 -131 54.5 -203t151.5 -72q49 0 88 19t66 55t41 87.5t14 116.5q0 132 -55.5 205t-152.5 73z" />
    <glyph glyph-name="h" unicode="h" 
d="M116 300v1279h249v-453l20 28q93 118 268 118q75 0 134 -23t100.5 -66t63.5 -105.5t22 -140.5v-637h-250v592q0 172 -154 172q-99 0 -151.5 -59t-52.5 -171v-534h-249z" />
    <glyph glyph-name="i" unicode="i" horiz-adv-x="495" 
d="M125 300v947h250v-947h-250zM123 1588h252v-231h-252v231z" />
    <glyph glyph-name="j" unicode="j" horiz-adv-x="495" 
d="M121 1247h250v-1051q0 -77 -15.5 -130t-50.5 -85.5t-92 -47t-140 -14.5l-68 1v199l31 -1q50 -2 67.5 16t17.5 62v1051zM119 1588h254v-231h-254v231z" />
    <glyph glyph-name="k" unicode="k" horiz-adv-x="991" 
d="M123 300v1279h249v-691l312 359h308l-342 -359l350 -588h-296l-228 407l-104 -109v-298h-249z" />
    <glyph glyph-name="l" unicode="l" horiz-adv-x="495" 
d="M123 300v1279h249v-1279h-249z" />
    <glyph glyph-name="m" unicode="m" horiz-adv-x="1584" 
d="M114 300v947h237v-153q36 89 108 133.5t174 44.5q83 0 151.5 -40t103.5 -116l31 50q76 106 225 106q77 0 138 -24t103 -68.5t64.5 -108.5t22.5 -144v-627h-250v556q0 106 -34.5 157t-107.5 51q-79 0 -120 -48t-41 -139v-577h-250v597q0 167 -149 167q-75 0 -115.5 -48
t-40.5 -139v-577h-250z" />
    <glyph glyph-name="n" unicode="n" 
d="M116 300v947h237v-141q49 84 121.5 125t178.5 41q75 0 134 -23t100.5 -66t63.5 -105.5t22 -140.5v-637h-250v592q0 172 -154 172q-99 0 -151.5 -59t-52.5 -171v-534h-249z" />
    <glyph glyph-name="o" unicode="o" 
d="M545 276q-111 0 -200.5 34.5t-152.5 99t-97 155t-34 203.5q0 115 34 208t97 159t152.5 101.5t200.5 35.5t200.5 -36t152.5 -102t97 -159t34 -207q0 -112 -34 -203t-97 -155t-152.5 -99t-200.5 -35zM545 484q112 0 170 73t58 214q0 144 -58 218t-170 74t-169.5 -74
t-57.5 -218q0 -141 57.5 -214t169.5 -73z" />
    <glyph glyph-name="p" unicode="p" 
d="M110 1247h238v-141l17 24q100 142 266 142q90 0 163.5 -35t125.5 -99t80.5 -153t28.5 -197q0 -114 -28.5 -208.5t-80.5 -162t-125.5 -104.5t-163.5 -37q-166 0 -266 132l-5 7v-486h-250v1318zM559 481q100 0 157 74.5t57 209.5q0 138 -56.5 214.5t-156.5 76.5t-156 -79
t-56 -220q0 -131 55.5 -203.5t155.5 -72.5z" />
    <glyph glyph-name="q" unicode="q" 
d="M465 276q-91 0 -165.5 35t-127.5 98t-82 152t-29 197q0 115 30 210t85 162.5t132 104.5t170 37q85 0 158.5 -45t116.5 -136v156h230v-1318h-250v482q-51 -69 -117.5 -102t-150.5 -33zM532 1056q-102 0 -158 -76.5t-56 -214.5q0 -135 56.5 -209.5t156.5 -74.5
q102 0 158.5 78.5t56.5 220.5q0 130 -57 203t-157 73z" />
    <glyph glyph-name="r" unicode="r" horiz-adv-x="693" 
d="M114 300v947h237v-170q46 97 111 147t146 48l57 -1v-255q-33 3 -75 3q-226 0 -226 -227v-492h-250z" />
    <glyph glyph-name="s" unicode="s" horiz-adv-x="991" 
d="M652 963q0 55 -45.5 88t-120.5 33q-72 0 -112.5 -24.5t-40.5 -69.5q0 -16 10.5 -29t35 -25t64 -23.5t97.5 -24.5q232 -51 307 -112q78 -62 78 -192q0 -69 -29.5 -126t-83.5 -97.5t-129.5 -62.5t-167.5 -22q-220 0 -337 83t-125 244h254q3 -66 57.5 -102.5t150.5 -36.5
q75 0 117 25.5t42 71.5q0 16 -9.5 29.5t-31 25t-56.5 22t-87 22.5q-240 54 -321 114q-81 58 -81 184q0 70 28 128t78 99.5t120.5 64t154.5 22.5q96 0 175 -22.5t135.5 -63t88 -97.5t31.5 -126h-247z" />
    <glyph glyph-name="t" unicode="t" horiz-adv-x="593" 
d="M551 295q-32 -2 -70 -3.5t-84 -1.5q-66 0 -113 11.5t-77 35.5t-44 62.5t-14 92.5v580h-132v175h132v254h249v-254h153v-175h-153v-538q0 -17 4.5 -27.5t15.5 -16.5t31 -8t50 -2h52v-185z" />
    <glyph glyph-name="u" unicode="u" 
d="M367 1247v-593q0 -88 37 -129t115 -41q99 0 150.5 58.5t51.5 170.5v534h250v-947h-238v142q-88 -166 -298 -166q-75 0 -134 22.5t-100 65.5t-62.5 105t-21.5 140v638h250z" />
    <glyph glyph-name="v" unicode="v" horiz-adv-x="991" 
d="M23 1247h276l202 -706l204 706h262l-341 -947h-261z" />
    <glyph glyph-name="w" unicode="w" horiz-adv-x="1386" 
d="M292 300l-275 947h265l151 -696l142 696h250l140 -697l154 697h251l-274 -947h-255l-145 705l-149 -705h-255z" />
    <glyph glyph-name="x" unicode="x" horiz-adv-x="991" 
d="M27 300l322 484l-309 463h301l159 -280l159 280h292l-308 -468l321 -479h-307l-165 289l-164 -289h-301z" />
    <glyph glyph-name="y" unicode="y" horiz-adv-x="991" 
d="M960 1247l-339 -967q-42 -120 -76.5 -194.5t-63.5 -105.5q-58 -61 -208 -61l-119 3v200q8 -4 48 -4q44 0 72 5.5t45.5 21t29 45t22.5 77.5l-354 980h276l206 -703l200 703h261z" />
    <glyph glyph-name="z" unicode="z" horiz-adv-x="891" 
d="M36 494l485 555h-450v198h762v-205l-473 -538h495v-204h-819v194z" />
    <glyph glyph-name="braceleft" unicode="{" horiz-adv-x="766" 
d="M49 418v225q66 2 105 23q32 16 58 56t34 99q10 47 10 158q0 90 3 153.5t13 100.5q17 72 61 116t130 66q55 19 178 19h51v-224q-100 0 -135 -14q-29 -10 -43 -32.5t-14 -82.5q0 -30 -2 -86.5t-6 -140.5q-5 -47 -10 -84t-15 -65q-23 -60 -51 -95q-15 -20 -38.5 -39.5
t-53.5 -40.5q57 -32 90 -75q37 -41 54 -102.5t24 -162.5q6 -159 6 -200q0 -60 16 -86q16 -23 45 -35q35 -14 133 -14v-226h-51q-63 0 -111.5 5.5t-80.5 15.5q-74 22 -117 65q-45 45 -62 117q-10 35 -12 89t-2 128q0 88 -4 142.5t-10 82.5q-23 72 -66 107q-41 37 -127 37z
" />
    <glyph glyph-name="bar" unicode="|" horiz-adv-x="596" 
d="M438 1434v-1805h-260v1805h260z" />
    <glyph glyph-name="braceright" unicode="}" horiz-adv-x="745" 
d="M692 418q-86 0 -127 -37q-43 -35 -65 -107q-6 -28 -10.5 -82.5t-4.5 -142.5q0 -74 -2 -128t-12 -89q-16 -72 -61 -117q-43 -43 -117 -65q-33 -10 -81 -15.5t-112 -5.5h-51v226q51 0 84 4t49 10q29 12 45 35q17 26 17 86q0 41 6 200q6 101 23.5 162.5t54.5 102.5
q32 43 90 75q-31 21 -54.5 40.5t-37.5 39.5q-29 35 -52 95q-10 28 -15 65t-9 84q-4 84 -6 140.5t-2 86.5q0 60 -14.5 82.5t-43.5 32.5q-16 6 -49 10t-86 4v224h51q123 0 179 -19q86 -22 130 -66t60 -116q10 -37 13 -100.5t3 -153.5q0 -111 11 -158q8 -59 33.5 -99t58.5 -56
q39 -21 104 -23v-225z" />
    <glyph glyph-name="asciitilde" unicode="~" horiz-adv-x="1041" 
d="M109 748q15 36 38 64.5t52 49t62.5 31.5t69.5 11q22 0 45.5 -3.5t50.5 -12t59 -21.5t72 -31q54 -25 95.5 -40.5t58.5 -15.5q42 0 78.5 31.5t76.5 100.5l65 -159q-20 -36 -45 -64.5t-54 -48.5t-60.5 -31t-62.5 -11q-24 0 -48 4t-51 13.5t-58 24.5t-70 38q-36 20 -79 31.5
t-81 11.5q-21 0 -43 -10.5t-42 -28t-37 -41.5t-27 -51z" />
    <glyph glyph-name="Ccedilla" unicode="&#xc7;" horiz-adv-x="1479" 
d="M1206 514l194 -49q-61 -239 -219.5 -364.5t-387.5 -125.5q-237 0 -385.5 96.5t-226 279.5t-77.5 393q0 229 87.5 399.5t249 259t355.5 88.5q220 0 370 -112t209 -315l-191 -45q-51 160 -148 233t-244 73q-169 0 -282.5 -81t-159.5 -217.5t-46 -281.5q0 -187 54.5 -326.5
t169.5 -208.5t249 -69q163 0 276 94t153 279zM622 -154l52 177h134l-33 -107q85 -10 128 -52.5t43 -94.5q0 -75 -72 -132.5t-217 -57.5q-82 0 -144 12l11 117q64 -4 94 -4q94 0 132 26q29 20 29 49q0 18 -11.5 32t-42.5 24t-103 11z" />
    <glyph glyph-name="ccedilla" unicode="&#xe7;" horiz-adv-x="1024" 
d="M828 389l177 -23q-29 -183 -148.5 -286.5t-293.5 -103.5q-218 0 -350.5 142.5t-132.5 408.5q0 172 57 301t173.5 193.5t253.5 64.5q173 0 283 -87.5t141 -248.5l-175 -27q-25 107 -88.5 161t-153.5 54q-136 0 -221 -97.5t-85 -308.5q0 -214 82 -311t214 -97q106 0 177 65
t90 200zM411 -134l52 177h134l-33 -107q85 -10 128 -52.5t43 -94.5q0 -75 -72 -132.5t-217 -57.5q-82 0 -144 12l11 117q64 -4 94 -4q94 0 132 26q29 20 29 49q0 18 -11.5 32t-42.5 24t-103 11z" />
    <glyph glyph-name="ecircumflex" unicode="&#xea;" horiz-adv-x="1139" 
d="M862 342l186 -23q-44 -163 -163 -253t-304 -90q-233 0 -369.5 143.5t-136.5 402.5q0 268 138 416t358 148q213 0 348 -145t135 -408q0 -16 -1 -48h-792q10 -175 99 -268t222 -93q99 0 169 52t111 166zM271 633h593q-12 134 -68 201q-86 104 -223 104q-124 0 -208.5 -83
t-93.5 -222zM567 1364l-113 -170h-206l216 280h192l225 -280h-204z" />
    <glyph glyph-name="icircumflex" unicode="&#xee;" horiz-adv-x="569" 
d="M188 0v1062h180v-1062h-180zM292 1364l-113 -170h-206l216 280h192l225 -280h-204z" />
    <glyph glyph-name="otilde" unicode="&#xf5;" horiz-adv-x="1139" 
d="M68 531q0 295 164 437q137 118 334 118q219 0 358 -143.5t139 -396.5q0 -205 -61.5 -322.5t-179 -182.5t-256.5 -65q-223 0 -360.5 143t-137.5 412zM253 531q0 -204 89 -305.5t224 -101.5q134 0 223 102t89 311q0 197 -89.5 298.5t-222.5 101.5q-135 0 -224 -101
t-89 -305zM231 1219q-1 104 57 166q57 62 146 62q62 0 169 -54q59 -30 94 -30q32 0 49 17.5t24 69.5h130q-3 -114 -57.5 -171t-138.5 -57q-63 0 -166 56q-67 36 -98 36q-34 0 -55 -24q-22 -24 -21 -71h-133z" />
    <glyph glyph-name="ucircumflex" unicode="&#xfb;" horiz-adv-x="1139" 
d="M831 0v156q-124 -180 -337 -180q-94 0 -175.5 36t-121 90.5t-55.5 133.5q-11 53 -11 168v658h180v-589q0 -141 11 -190q17 -71 72 -111.5t136 -40.5t152 41.5t100.5 113t29.5 207.5v569h180v-1062h-161zM564 1364l-113 -170h-206l216 280h192l225 -280h-204z" />
    <glyph glyph-name="cent" unicode="&#xa2;" horiz-adv-x="1139" 
d="M744 894l-222 -766q33 -9 61 -9q104 0 179.5 71t92.5 199l179 -20q-33 -185 -156.5 -291t-291.5 -106q-49 0 -103 14l-118 -395l-112 32l115 398q-115 55 -188 183.5t-73 321.5q0 178 58.5 305.5t175 191.5t237.5 64q36 0 100 -8l113 387l110 -32l-112 -387
q99 -43 152 -115.5t74 -181.5l-175 -27q-26 112 -96 171zM638 940q-32 3 -50 3q-82 0 -153.5 -45.5t-107 -141t-35.5 -221.5q0 -132 32 -223t91 -135z" />
    <glyph glyph-name="sterling" unicode="&#xa3;" horiz-adv-x="1087" 
d="M930 276l98 -215q-53 -28 -119.5 -45.5t-132.5 -17.5q-80 0 -215 39q-131 39 -199 39q-112 0 -225 -80l-98 219q104 74 148 156t44 155v25q0 14 -2 29h-190v198h143q-37 107 -37 215q0 99 54 189q55 90 151 135q101 47 213 47q180 0 285.5 -90t128.5 -258l-244 -37
q-16 98 -62 139t-114 41t-119 -47q-47 -47 -47 -121q0 -39 12 -100q7 -31 15 -58.5t18 -54.5h281v-198h-242q2 -11 3 -21t1 -20q0 -76 -26 -131q-15 -31 -42.5 -71t-68.5 -89q53 26 123 26h31q14 0 26 -4q6 -2 25.5 -5t48.5 -13q106 -27 149 -27q64 0 185 51z" />
    <glyph glyph-name="section" unicode="&#xa7;" horiz-adv-x="1139" 
d="M143 -70l181 26q28 -130 89 -182.5t166 -52.5q102 0 159.5 52t57.5 122q0 51 -36 94q-62 75 -340 245q-148 91 -206.5 142.5t-95.5 121.5t-37 146q0 96 60 174t165 109q-71 68 -100 125.5t-29 122.5q0 128 100 222t265 94q187 0 292 -89t126 -258l-187 -19
q-21 122 -73.5 170t-141.5 48q-92 0 -148.5 -49.5t-56.5 -109.5q0 -52 36 -96q56 -68 306 -220q157 -96 212 -141q71 -60 104.5 -124t33.5 -139q0 -113 -73 -193q-42 -46 -154 -93q80 -61 119.5 -131t39.5 -150q0 -88 -50 -166.5t-144 -120t-203 -41.5q-191 0 -303 95.5
t-134 265.5zM728 244q74 38 110.5 88.5t36.5 98.5q0 57 -52 120q-53 63 -225 169q-137 84 -204 138q-81 -46 -115.5 -92t-34.5 -102q0 -63 46 -120t207 -152q134 -79 231 -148z" />
    <glyph glyph-name="bullet" unicode="&#x2022;" horiz-adv-x="931" 
d="M817 662q0 -145 -103.5 -248t-248.5 -103t-248 103t-103 248t103 248t248 103t248.5 -103t103.5 -248z" />
    <glyph glyph-name="paragraph" unicode="&#xb6;" horiz-adv-x="1100" 
d="M405 -407v1045q-187 10 -295.5 121.5t-108.5 284.5q0 193 120.5 307.5t352.5 114.5h633v-173h-144v-1700h-170v1700h-223v-1700h-165z" />
    <glyph glyph-name="registered" unicode="&#xae;" horiz-adv-x="1509" 
d="M758 1491q190 0 371 -97.5t282 -279t101 -378.5q0 -195 -99.5 -375t-279 -279.5t-375.5 -99.5t-375.5 99.5t-279.5 279.5t-100 375q0 197 101.5 378.5t282.5 279t371 97.5zM758 1366q-159 0 -309.5 -81.5t-235.5 -233t-85 -315.5q0 -163 83.5 -312.5t233.5 -233
t313 -83.5t313 83.5t233 233t83 312.5q0 164 -84.5 315.5t-235.5 233t-309 81.5zM427 319v812h279q143 0 207 -22.5t102 -78.5t38 -119q0 -89 -63.5 -155t-168.5 -74q43 -18 69 -43q49 -48 120 -161l99 -159h-160l-72 128q-85 151 -137 189q-36 28 -105 28h-77v-345h-131z
M558 776h159q114 0 155.5 34t41.5 90q0 36 -20 64.5t-55.5 42.5t-131.5 14h-149v-245z" />
    <glyph glyph-name="copyright" unicode="&#xa9;" horiz-adv-x="1313" 
d="M657 1616q290 0 483 -193q194 -192 194 -484q0 -290 -193 -483t-484 -193q-292 0 -484 193t-192 483q0 292 192 484q193 193 484 193zM1139 939q0 110 -36.5 204.5t-101 164t-153 109t-191.5 39.5t-191 -39.5t-152.5 -109t-101 -164t-36.5 -204.5t37 -204t101.5 -163
t152.5 -108.5t190 -39.5q103 0 191.5 39.5t153 109t101 163.5t36.5 203zM1002 837q-13 -65 -41.5 -117t-70 -89t-94.5 -57t-115 -20q-83 0 -151 27.5t-116.5 77.5t-75 120.5t-26.5 156.5q0 89 26 161t74.5 123t116.5 78.5t152 27.5q65 0 120.5 -19.5t97.5 -55t68.5 -86.5
t34.5 -114h-159q-7 55 -50 87t-112 32q-88 0 -136.5 -62t-48.5 -171q0 -53 13 -95t37 -71t58.5 -45t76.5 -16q64 0 107.5 33.5t54.5 93.5h159z" />
    <glyph glyph-name="trademark" unicode="&#x2122;" horiz-adv-x="2048" 
d="M489 651v694h-264v121h666v-121h-266v-694h-136zM982 651v815h200l206 -651l199 651h196v-815h-124v684l-210 -684h-123l-219 694v-694h-125z" />
    <glyph glyph-name="acute" unicode="&#xb4;" horiz-adv-x="682" 
d="M222 1194l133 280h236l-220 -280h-149z" />
    <glyph glyph-name="plusminus" unicode="&#xb1;" horiz-adv-x="1124" 
d="M477 260v403h-399v167h399v399h170v-399h399v-167h-399v-403h-170zM1046 0h-968v168h968v-168z" />
    <glyph glyph-name="lessequal" unicode="&#x2264;" horiz-adv-x="1124" 
d="M77 762v168l971 410v-180l-770 -315l770 -319v-179zM1046 106h-968v167h968v-167z" />
    <glyph glyph-name="greaterequal" unicode="&#x2265;" horiz-adv-x="1124" 
d="M1048 762l-971 -415v179l769 319l-769 315v180l971 -410v-168zM1046 106h-968v167h968v-167z" />
    <glyph glyph-name="yen" unicode="&#xa5;" horiz-adv-x="1139" 
d="M477 0v325h-415v139h415v143h-415v148h341l-406 711h200l290 -516q49 -88 76 -154q23 53 82 163l274 507h214l-405 -711h341v-148h-412v-143h412v-139h-412v-325h-180z" />
    <glyph glyph-name="guillemotleft" unicode="&#xab;" horiz-adv-x="954" 
d="M649 313l-239 367l239 354h246l-254 -356l250 -365h-242zM285 313l-242 367l242 354h243l-252 -356l250 -365h-241z" />
    <glyph glyph-name="guillemotright" unicode="&#xbb;" horiz-adv-x="954" 
d="M676 313h-240l250 361l-250 360h240l239 -360zM313 313h-241l247 361l-247 360h241l240 -360z" />
    <glyph glyph-name="endash" unicode="&#x2013;" horiz-adv-x="1139" 
d="M-4 458v145h1139v-145h-1139z" />
    <glyph glyph-name="emdash" unicode="&#x2014;" horiz-adv-x="2048" 
d="M0 458v145h2048v-145h-2048z" />
    <glyph glyph-name="quotedblleft" unicode="&#x201c;" horiz-adv-x="682" 
d="M276 1220v-209h-193v165q0 134 32 194q42 80 133 121l44 -70q-55 -23 -81 -68.5t-29 -132.5h94zM586 1220v-209h-193v165q0 134 32 194q42 80 133 121l44 -70q-55 -23 -81 -68.5t-29 -132.5h94z" />
    <glyph glyph-name="quotedblright" unicode="&#x201d;" horiz-adv-x="682" 
d="M87 1272v209h193v-165q0 -134 -31 -193q-43 -81 -134 -122l-44 71q54 22 80.5 69.5t29.5 130.5h-94zM397 1272v209h193v-165q0 -134 -31 -193q-43 -81 -134 -122l-44 71q54 22 80.5 69.5t29.5 130.5h-94z" />
    <glyph glyph-name="quoteleft" unicode="&#x2018;" horiz-adv-x="455" 
d="M321 1220v-209h-193v165q0 134 32 194q42 80 133 121l44 -70q-55 -23 -81 -68.5t-29 -132.5h94z" />
    <glyph glyph-name="quoteright" unicode="&#x2019;" horiz-adv-x="455" 
d="M124 1272v209h193v-165q0 -134 -31 -193q-43 -81 -134 -122l-44 71q54 22 80.5 69.5t29.5 130.5h-94z" />
    <glyph glyph-name="divide" unicode="&#xf7;" horiz-adv-x="1104" 
d="M162 641h805v-223h-805v223zM397 147q0 66 46 112t112 46q63 0 107.5 -46t44.5 -112q0 -63 -44.5 -107t-107.5 -44q-66 0 -112 44t-46 107zM397 932q0 65 46 111.5t112 46.5q63 0 107.5 -46.5t44.5 -111.5q0 -64 -44.5 -108t-107.5 -44q-66 0 -112 44t-46 108z" />
    <glyph glyph-name="fraction" unicode="&#x2044;" horiz-adv-x="559" 
d="M230 -90l-165 -141l254 1373l180 160z" />
    <glyph glyph-name="Euro" unicode="&#x20ac;" horiz-adv-x="1145" 
d="M1049 1313l-52 -250q-77 76 -224.5 76t-237.5 -107q-54 -59 -74 -145h495l-28 -142h-484q-2 -10 -2 -24v-31v-31q0 -16 2 -32h459l-29 -142h-411q24 -94 69 -151q89 -105 236 -105q172 0 276 105v-277q-120 -57 -274 -57q-262 0 -434 180q-115 121 -152 305h-133l29 142
h88v118h-117l29 142h106q37 174 152 299q172 182 448 182q152 0 263 -55z" />
    <glyph glyph-name="guilsinglleft" unicode="&#x2039;" horiz-adv-x="512" 
d="M457 966l-228 -382l222 -380v-75l-383 455l389 457v-75z" />
    <glyph glyph-name="guilsinglright" unicode="&#x203a;" horiz-adv-x="512" 
d="M457 586l-393 -457v75l231 382l-222 381v77z" />
    <glyph glyph-name="uni2219" unicode="&#x2219;" horiz-adv-x="408" 
d="M203 614q24 0 43.5 -8t36.5 -24q30 -35 30 -80q0 -47 -30 -80q-17 -16 -36.5 -24.5t-43.5 -8.5q-43 0 -80 33q-33 37 -33 80q0 24 8 43.5t25 36.5q37 32 80 32z" />
    <glyph glyph-name="Ecircumflex" unicode="&#xca;" horiz-adv-x="1366" 
d="M162 0v1466h1060v-173h-866v-449h811v-172h-811v-499h900v-173h-1094zM707 1836l-113 -170h-206l216 280h192l225 -280h-204z" />
    <glyph glyph-name="Icircumflex" unicode="&#xce;" horiz-adv-x="569" 
d="M191 0v1466h194v-1466h-194zM287 1836l-113 -170h-206l216 280h192l225 -280h-204z" />
    <glyph glyph-name="Ucircumflex" unicode="&#xdb;" horiz-adv-x="1479" 
d="M1120 1466h194v-847q0 -221 -50 -351t-180.5 -211.5t-342.5 -81.5q-206 0 -337 71t-187 205.5t-56 367.5v847h194v-846q0 -191 35.5 -281.5t122 -139.5t211.5 -49q214 0 305 97t91 373v846zM736 1836l-113 -170h-206l216 280h192l225 -280h-204z" />
    <glyph glyph-name="brokenbar" unicode="&#xa6;" horiz-adv-x="532" 
d="M345 1491v-790h-157v790h157zM345 360v-791h-157v791h157z" />
    <glyph glyph-name="minus" unicode="&#x2212;" horiz-adv-x="1196" 
d="M1082 639h-968v168h968v-168z" />
    <glyph glyph-name="multiply" unicode="&#xd7;" horiz-adv-x="1026" 
d="M770 63l-207 205l-205 -205l-157 158l205 205l-205 207l157 158l205 -205l207 205l158 -158l-205 -207l205 -205z" />
    <glyph glyph-name="Scedilla" unicode="&#x15e;" horiz-adv-x="1366" 
d="M92 471l183 16q13 -110 60.5 -180.5t147.5 -114t225 -43.5q111 0 196 33t126.5 90.5t41.5 125.5q0 69 -40 120.5t-132 86.5q-59 23 -261 71.5t-283 91.5q-105 55 -156.5 136.5t-51.5 182.5q0 111 63 207.5t184 146.5t269 50q163 0 287.5 -52.5t191.5 -154.5t72 -231
l-186 -14q-15 139 -101.5 210t-255.5 71q-176 0 -256.5 -64.5t-80.5 -155.5q0 -79 57 -130q56 -51 292.5 -104.5t324.5 -93.5q128 -59 189 -149.5t61 -208.5q0 -117 -67 -220.5t-192.5 -161t-282.5 -57.5q-199 0 -333.5 58t-211 174.5t-80.5 263.5zM555 -144l52 177h134
l-33 -107q85 -10 128 -52.5t43 -94.5q0 -75 -72 -132.5t-217 -57.5q-82 0 -144 12l11 117q64 -4 94 -4q94 0 132 26q29 20 29 49q0 18 -11.5 32t-42.5 24t-103 11z" />
    <glyph glyph-name="scedilla" unicode="&#x15f;" horiz-adv-x="1024" 
d="M63 317l178 28q15 -107 83.5 -164t191.5 -57q124 0 184 50.5t60 118.5q0 61 -53 96q-37 24 -184 61q-198 50 -274.5 86.5t-116 101t-39.5 142.5q0 71 32.5 131.5t88.5 100.5q42 31 114.5 52.5t155.5 21.5q125 0 219.5 -36t139.5 -97.5t62 -164.5l-176 -24
q-12 82 -69.5 128t-162.5 46q-124 0 -177 -41t-53 -96q0 -35 22 -63q22 -29 69 -48q27 -10 159 -46q191 -51 266.5 -83.5t118.5 -94.5t43 -154q0 -90 -52.5 -169.5t-151.5 -123t-224 -43.5q-207 0 -315.5 86t-138.5 255zM375 -134l52 177h134l-33 -107q85 -10 128 -52.5
t43 -94.5q0 -75 -72 -132.5t-217 -57.5q-82 0 -144 12l11 117q64 -4 94 -4q94 0 132 26q29 20 29 49q0 18 -11.5 32t-42.5 24t-103 11z" />
    <glyph glyph-name="periodcentered" unicode="&#xb7;" horiz-adv-x="724" 
d="M482 832h-239v285h239v-285z" />
    <glyph glyph-name="H18533" unicode="&#x25cf;" horiz-adv-x="1237" 
d="M177 576q0 183 129 312t312 129q182 0 311 -129t129 -312q0 -182 -129 -311t-311 -129q-183 0 -312 129t-129 311z" />
    <glyph glyph-name="openbullet" unicode="&#x25e6;" horiz-adv-x="726" 
d="M363 928q104 0 177.5 -73.5t73.5 -177.5t-73.5 -177.5t-177.5 -73.5t-177.5 73.5t-73.5 177.5t73 177.5t178 73.5zM363 852q-73 0 -124 -51.5t-51 -123.5q0 -73 51.5 -124t123.5 -51t123.5 51t51.5 124q0 72 -51 123.5t-124 51.5z" />
    <glyph glyph-name="uni2116" unicode="&#x2116;" horiz-adv-x="2336" 
d="M1173 0h-222l-615 1284v-1284h-185v1489h281l556 -1179v1179h185v-1489zM2202 1030q0 -227 -117 -358.5t-303 -131.5q-193 0 -307 131.5t-114 358.5q0 233 117 361.5t304 128.5t303.5 -128.5t116.5 -361.5zM2071 176h-578v162h578v-162zM2022 1030q0 175 -64.5 257.5
t-175.5 82.5t-176 -82.5t-65 -257.5q0 -169 64 -254.5t177 -85.5t176.5 85.5t63.5 254.5z" />
    <glyph glyph-name="currency" unicode="&#xa4;" horiz-adv-x="1139" 
d="M213 961l-139 136l115 119l139 -139q106 72 237 72q132 0 237 -72l139 139l116 -119l-139 -136q71 -110 71 -235q0 -126 -71 -236l139 -136l-116 -119l-139 140q-105 -73 -237 -73q-131 0 -237 73l-139 -140l-115 119l139 136q-71 110 -71 236q0 125 71 235zM305 726
q0 -108 76 -184t183 -76t183 76t76 184q0 107 -75.5 183t-183.5 76q-107 0 -183 -76t-76 -183z" />
    <glyph glyph-name="uni060C" unicode="&#x60c;" horiz-adv-x="573" 
d="M451 141q0 -55 -41 -98t-105 -43q-41 0 -73.5 19.5t-57 54.5t-38 81t-13.5 101q0 156 88 268q47 58 133 119l33 -55l-53 -51q-23 -25 -39 -45q-56 -74 -56 -129.5t111 -80t111 -141.5z" />
    <glyph glyph-name="uni061B" unicode="&#x61b;" horiz-adv-x="573" 
d="M451 575q0 -55 -41 -98t-105 -43q-41 0 -73.5 19.5t-57 54.5t-38 81t-13.5 101q0 156 88 268q47 58 133 119l33 -55l-53 -51q-23 -25 -39 -45q-56 -74 -56 -129.5t111 -80t111 -141.5zM141 147q0 66 46 112t112 46q63 0 107.5 -46t44.5 -112q0 -63 -44.5 -107t-107.5 -44
q-66 0 -112 44t-46 107z" />
    <glyph glyph-name="uni061F" unicode="&#x61f;" horiz-adv-x="1059" 
d="M451 358q0 54 -4.5 86.5t-14.5 54t-30.5 39t-51.5 40.5q-96 67 -149.5 117t-80 93t-31.5 84t-5 91q0 86 37 162.5t105.5 134t168 91t221.5 33.5q103 0 189 -21.5t153 -68.5l-92 -229q-53 53 -123.5 77.5t-142.5 24.5q-53 0 -99 -12t-82 -38.5t-56.5 -65.5t-20.5 -90
q0 -25 6 -43.5t26.5 -43t61.5 -57.5l109 -90q47 -37 78.5 -69.5t50 -71.5t27 -93.5t8.5 -134.5h-258zM422 102q0 66 46 112t112 46q63 0 107 -46t44 -112q0 -63 -44 -107t-107 -44q-66 0 -112 44t-46 107z" />
    <glyph glyph-name="uni0621" unicode="&#x621;" horiz-adv-x="723" 
d="M50 1q1 7 12 15t33 18.5t55.5 25t79.5 34.5q-29 4 -53.5 17.5t-42.5 31.5t-28 38t-10 36q0 38 20 85.5t54.5 93.5t80 84.5t96 58.5t102.5 16t100 -43q-6 -13 -17 -31.5t-23.5 -38t-24 -37t-16.5 -28.5q-21 8 -55 13t-68.5 1t-62.5 -19.5t-36 -48.5q-9 -34 11.5 -53.5
t58 -29.5t85 -11t93 2.5t82 9.5t51.5 12q-9 -26 -15.5 -45.5t-13 -38t-13 -38l-14.5 -43.5q-32 -7 -77 -18.5t-96.5 -27t-105.5 -33.5t-104 -36.5t-92.5 -38t-69.5 -37.5z" />
    <glyph glyph-name="uni0640" unicode="&#x640;" horiz-adv-x="436" 
d="M-13 200h460v-200h-460v200z" />
    <glyph glyph-name="uni0660" unicode="&#x660;" horiz-adv-x="1131" 
d="M716 412l-79 -311l-238 201l94 319z" />
    <glyph glyph-name="uni0661" unicode="&#x661;" horiz-adv-x="1131" 
d="M418 1190q24 -43 54.5 -100t61 -132t57.5 -171t46 -217.5t26 -271t-4 -332.5h-35q-14 102 -31.5 209t-50.5 228t-86.5 261t-138.5 308z" />
    <glyph glyph-name="uni0662" unicode="&#x662;" horiz-adv-x="1131" 
d="M253 1190q34 -49 83.5 -94.5t104 -77.5t109.5 -46t102 -1t81.5 58t46.5 132h33q29 -106 25 -181.5t-29.5 -125t-68 -75t-92 -31.5t-99.5 4.5t-91 34.5q29 -76 50 -161t34.5 -170.5t20 -166t6 -146.5t-7.5 -112.5t-20 -64.5h-42q7 38 -0.5 106.5t-27 155t-50 184
t-68.5 193.5t-83 183t-94 153q20 63 38.5 124.5t38.5 124.5z" />
    <glyph glyph-name="uni0663" unicode="&#x663;" horiz-adv-x="1131" 
d="M212 1190q18 -60 53 -108.5t79.5 -78.5t94 -37.5t96 15t86.5 78.5t65 153h33q2 -22 3 -36.5t2.5 -27.5t2.5 -27.5t3 -36.5q21 -6 43 -15t44.5 -14.5t44 -3t41.5 18.5t37.5 50t31.5 92h35q-11 -54 -21.5 -108t-25 -100t-35 -80.5t-52 -49.5t-75.5 -7t-106 47
q-33 -122 -99 -157.5t-181 8.5q29 -76 50.5 -159.5t35.5 -166.5t21 -160.5t7 -141.5q0 -63 -6.5 -108t-19.5 -63h-42q7 38 -0.5 106.5t-27 155t-50 184t-68.5 193.5t-83 183t-94 153q20 63 38.5 124.5t38.5 124.5z" />
    <glyph glyph-name="uni0664" unicode="&#x664;" horiz-adv-x="1131" 
d="M855 183q-17 -54 -33 -106t-33 -106q-61 10 -124 17.5t-121 18.5t-106 27.5t-78 44.5t-38.5 70t13.5 103q18 54 54 102t76 87t75.5 68t50.5 45q-31 9 -76.5 16t-88 19t-75 33.5t-36.5 60.5q1 87 27 152.5t62 113.5q40 53 92 96t101.5 74.5t89.5 51t57 26.5
q-8 -51 -16 -100.5t-16 -100.5q-30 -6 -65.5 -23t-70.5 -39t-65.5 -47t-49.5 -47.5t-23.5 -40t12.5 -25.5q35 -12 69.5 -20.5t72 -15.5t80.5 -14.5t97 -18.5l-41 -143q-36 -30 -74.5 -61.5t-71.5 -64t-56.5 -66.5t-29.5 -70q-1 -22 14 -37.5t41 -26.5t61 -18.5t75 -13
t83 -10.5t85 -11z" />
    <glyph glyph-name="uni0665" unicode="&#x665;" horiz-adv-x="1131" 
d="M559 986q45 14 91.5 6.5t90 -31t80.5 -61t64.5 -83t42.5 -97t13 -103.5q-11 -78 -41.5 -152t-85 -133t-136 -99.5t-194.5 -51.5q-35 -1 -81 8t-89 31.5t-75.5 59.5t-39.5 91q-13 51 -6.5 113.5t28.5 126.5t57 126.5t79 113.5t95.5 87t106.5 48zM818 568q-21 44 -43 80.5
t-48 63.5t-57 44t-71 23q-35 6 -69.5 -1.5t-66 -24t-58 -39.5t-46 -48t-30.5 -50.5t-10 -45.5q-2 -55 15 -95.5t54.5 -62t97 -22.5t143.5 24q45 13 77 32t54 40t36 42t22 40z" />
    <glyph glyph-name="uni0666" unicode="&#x666;" horiz-adv-x="1131" 
d="M220 1177q-19 -48 -3.5 -73.5t54.5 -35.5t96 -7.5t120.5 10.5t128.5 18.5t119 16.5q-25 -186 -26.5 -331.5t18 -253.5t58.5 -181t96 -115q-10 -60 -20 -119.5t-20 -119.5q-67 55 -112 125t-72.5 148.5t-40.5 162.5t-15.5 167.5t3 163.5t14.5 150q-79 -11 -130 -18.5
t-85.5 -12.5t-58 -7.5t-46.5 -2.5q-53 1 -84.5 21.5t-47 51.5t-18 68t3.5 71t16.5 61t21.5 38q10 2 15 2t15 2z" />
    <glyph glyph-name="uni0667" unicode="&#x667;" horiz-adv-x="1131" 
d="M1026 902q-54 -69 -96.5 -143.5t-75.5 -148t-57 -143.5t-41 -130.5t-28 -107t-18 -74.5q-2 0 -9 -13t-16.5 -32t-20 -41.5t-20 -41.5t-16.5 -32t-9 -13q-30 119 -84 243t-124 244.5t-151.5 235t-166.5 214.5l51 294q118 -153 203 -281.5t144.5 -240t97.5 -209.5t62 -191
q20 101 49 211.5t73.5 226.5t106 235.5t146.5 237.5v-300z" />
    <glyph glyph-name="uni0668" unicode="&#x668;" horiz-adv-x="1131" 
d="M162 282q54 69 96.5 143.5t75.5 148t57 143.5t41 130.5t28 107.5t18 74q2 0 9 13t16.5 32t20 41.5t20 41.5t16.5 32t9 13q30 -119 73.5 -240t100.5 -239t128 -229.5t156 -211.5l-51 -294q-79 102 -137.5 191.5t-102 169.5t-74 152t-53 138.5t-39.5 129t-33 124.5
q-20 -101 -49 -211.5t-73.5 -226.5t-106 -235.5t-146.5 -237.5v300z" />
    <glyph glyph-name="uni0669" unicode="&#x669;" horiz-adv-x="1131" 
d="M887 179l-64 -224q-122 75 -144 227.5t-22 428.5q-95 -29 -169.5 -48t-127.5 -24.5t-84 4.5t-38 39q-27 105 -21 189.5t29 151t55.5 117t58.5 87.5q55 47 99.5 68.5t79 25t61 -7.5t46 -28t32 -36.5t20.5 -33.5q28 -63 40 -127.5t15.5 -127t3 -121.5t2.5 -111
q20 -241 128 -449zM626 798q-6 33 -10.5 73.5t-17 74t-39 52.5t-76.5 9q-41 -10 -69.5 -33.5t-46 -52t-25 -57t-7.5 -49.5q8 -18 21 -31t33 -18.5t48 -3t67 16.5z" />
    <glyph glyph-name="uni066A" unicode="&#x66a;" horiz-adv-x="1237" 
d="M389 0h-237l690 1364h231zM104 1210q0 66 46.5 112t111.5 46q64 0 108 -46t44 -112q0 -63 -44 -107t-108 -44q-65 0 -111.5 44t-46.5 107zM815 152q0 65 46 111t112 46q63 0 107 -46t44 -111q0 -64 -44 -108t-107 -44q-66 0 -112 44t-46 108z" />
    <glyph glyph-name="uni066D" unicode="&#x66d;" horiz-adv-x="961" 
d="M877 581l-176 -178l-60 58l179 179zM613 473h-82v252h82v-252zM961 292h-251v82h251v-82zM502 464l-58 -60l-177 179l57 58zM876 86l-59 -59l-184 185l60 58zM611 -56h-82v259h82v-259zM431 292h-251v82h251v-82zM502 205l-178 -178l-57 59l177 179z" />
    <glyph glyph-name="uni06D5" unicode="&#x6d5;" horiz-adv-x="978" 
d="M699 338q0 24 -13.5 69.5t-41 93.5t-69.5 90t-101 60q-37 -20 -71 -56t-60.5 -76t-43 -79t-16.5 -65q0 -82 45 -133.5t133 -51.5q113 0 175.5 44.5t62.5 103.5zM918 332q0 -96 -44 -163t-111.5 -110t-148.5 -62.5t-152.5 -19.5t-141 18.5t-125 55.5t-90.5 90.5t-35 122.5
q0 129 59.5 259t184.5 222l-74 31l92 139q150 -28 260.5 -87.5t182 -137.5t107.5 -171t36 -187z" />
    <glyph glyph-name="uni06F4" unicode="&#x6f4;" horiz-adv-x="1131" 
d="M855 183q-17 -54 -33 -106t-33 -106q-61 10 -124 17.5t-121 18.5t-106 27.5t-78 44.5t-38.5 70t13.5 103q18 54 54 102t76 87t75.5 68t50.5 45q-31 9 -76.5 16t-88 19t-75 33.5t-36.5 60.5q1 87 27 152.5t62 113.5q40 53 92 96t101.5 74.5t89.5 51t57 26.5
q-8 -51 -16 -100.5t-16 -100.5q-30 -6 -65.5 -23t-70.5 -39t-65.5 -47t-49.5 -47.5t-23.5 -40t12.5 -25.5q35 -12 69.5 -20.5t72 -15.5t80.5 -14.5t97 -18.5l-41 -143q-36 -30 -74.5 -61.5t-71.5 -64t-56.5 -66.5t-29.5 -70q-1 -22 14 -37.5t41 -26.5t61 -18.5t75 -13
t83 -10.5t85 -11z" />
    <glyph glyph-name="uni06F5" unicode="&#x6f5;" horiz-adv-x="1131" 
d="M559 986q45 14 91.5 6.5t90 -31t80.5 -61t64.5 -83t42.5 -97t13 -103.5q-11 -78 -41.5 -152t-85 -133t-136 -99.5t-194.5 -51.5q-35 -1 -81 8t-89 31.5t-75.5 59.5t-39.5 91q-13 51 -6.5 113.5t28.5 126.5t57 126.5t79 113.5t95.5 87t106.5 48zM818 568q-21 44 -43 80.5
t-48 63.5t-57 44t-71 23q-35 6 -69.5 -1.5t-66 -24t-58 -39.5t-46 -48t-30.5 -50.5t-10 -45.5q-2 -55 15 -95.5t54.5 -62t97 -22.5t143.5 24q45 13 77 32t54 40t36 42t22 40z" />
    <glyph glyph-name="uni06F6" unicode="&#x6f6;" horiz-adv-x="1131" 
d="M220 1177q-19 -48 -3.5 -73.5t54.5 -35.5t96 -7.5t120.5 10.5t128.5 18.5t119 16.5q-25 -186 -26.5 -331.5t18 -253.5t58.5 -181t96 -115q-10 -60 -20 -119.5t-20 -119.5q-67 55 -112 125t-72.5 148.5t-40.5 162.5t-15.5 167.5t3 163.5t14.5 150q-79 -11 -130 -18.5
t-85.5 -12.5t-58 -7.5t-46.5 -2.5q-53 1 -84.5 21.5t-47 51.5t-18 68t3.5 71t16.5 61t21.5 38q10 2 15 2t15 2z" />
    <glyph glyph-name="uni067E" unicode="&#x67e;" horiz-adv-x="1772" 
d="M498 0q-86 0 -160 14.5t-129 47t-86 86t-31 128.5q0 115 21.5 198t51.5 142.5t62.5 103.5t55.5 83h198q-37 -60 -69.5 -125.5t-54 -130t-26.5 -122.5t14.5 -103.5t67.5 -72t134 -26.5h876v594l246 78v-895h-1171zM709 -211q0 51 36.5 88t88.5 37q51 0 85.5 -37t34.5 -88
t-34.5 -86t-85.5 -35q-52 0 -88.5 35t-36.5 86zM1032 -211q0 51 37 88t88 37t86 -37t35 -88t-35 -86t-86 -35t-88 35t-37 86zM864 -463q0 51 37 88t88 37t86 -37t35 -88t-35 -87t-86 -36t-88 36t-37 87z" />
    <glyph glyph-name="uni06A4" unicode="&#x6a4;" horiz-adv-x="1634" 
d="M1311 223q-2 99 -7.5 199t-21.5 201q-158 -35 -254 -100.5t-100 -178.5q0 -59 34.5 -90t112.5 -31h236zM938 -258q68 0 129 9t110.5 37t84 78t49.5 134h-250q-105 0 -175.5 20.5t-114.5 62.5t-62.5 106.5t-18.5 150.5q0 84 46 168t143.5 155.5t250 124t365.5 72.5
q35 -217 49.5 -412.5t14.5 -388.5q0 -14 -2.5 -59t-16.5 -103.5t-48 -123t-97.5 -117.5t-162.5 -88t-247 -35h-346q-94 0 -191.5 32t-177.5 96.5t-130 161.5t-50 230q0 115 21.5 198t51.5 142.5t62.5 103.5t55.5 83h157q-53 -88 -92 -203t-39 -221q0 -64 19.5 -136.5
t61.5 -134t106.5 -102.5t154.5 -41h289zM793 1161q0 66 46 112t111 46q64 0 108 -46t44 -112q0 -63 -44 -107t-108 -44q-65 0 -111 44t-46 107zM1198 1161q0 66 46 112t112 46q63 0 107 -46t44 -112q0 -63 -44 -107t-107 -44q-66 0 -112 44t-46 107zM987 1550q0 66 46 112
t112 46q63 0 107 -46t44 -112q0 -63 -44 -108t-107 -45q-66 0 -112 45t-46 108z" />
    <glyph glyph-name="uni0686" unicode="&#x686;" horiz-adv-x="1382" 
d="M1128 -653q-182 -49 -352 -49q-127 0 -250 23.5t-219 78.5t-155.5 145t-59.5 224q0 129 50.5 251.5t145.5 228t231 187.5t306 131q-28 8 -62 23.5t-75 31t-89 26.5t-105 11q-54 0 -122.5 -32.5t-121.5 -98.5l-148 134q33 45 80 88t102.5 75.5t116 52t121.5 19.5
q60 0 150 -38t213 -79t220 -60.5t195 -17.5l-4 -274q-129 10 -249.5 -9.5t-228 -62.5t-198 -102t-155 -129t-100 -144.5t-35.5 -146.5q0 -80 40 -138t112.5 -96t175 -56.5t227.5 -18.5q57 0 118.5 4t126.5 12zM655 57q0 52 37 88.5t88 36.5t86 -36.5t35 -88.5
q0 -51 -35 -85.5t-86 -34.5t-88 34.5t-37 85.5zM979 57q0 52 37 88.5t88 36.5t86 -36.5t35 -88.5q0 -51 -35 -85.5t-86 -34.5t-88 34.5t-37 85.5zM811 -195q0 52 37 88.5t88 36.5t86 -36.5t35 -88.5q0 -51 -35 -86.5t-86 -35.5t-88 35.5t-37 86.5z" />
    <glyph glyph-name="uni0698" unicode="&#x698;" horiz-adv-x="653" 
d="M500 895q41 -229 55 -447.5t14 -388.5q0 -14 -2 -59t-16 -103.5t-48 -123t-97.5 -118.5t-163 -89t-246.5 -35l-47 147q104 9 186 50q35 18 69 44.5t60.5 64.5t43 90.5t16.5 119.5q0 186 -9.5 382t-60.5 386zM33 1169q0 66 46 112t111 46q64 0 108 -46t44 -112
q0 -63 -44 -107t-108 -44q-65 0 -111 44t-46 107zM438 1169q0 66 46 112t112 46q63 0 107.5 -46t44.5 -112q0 -63 -44.5 -107t-107.5 -44q-66 0 -112 44t-46 107zM227 1559q0 65 46 111t112 46q64 0 108 -46t44 -111q0 -64 -44 -109t-108 -45q-66 0 -112 45t-46 109z" />
    <glyph glyph-name="uni06A9" unicode="&#x6a9;" horiz-adv-x="1757" 
d="M498 0q-86 0 -160 14.5t-129 47t-86 86t-31 128.5q0 115 21.5 198t51.5 142.5t62.5 103.5t55.5 83h198q-37 -60 -69.5 -125.5t-54 -130t-26.5 -122.5t14.5 -103.5t67.5 -72t134 -26.5h807v1092l260 74v-1389h-1116zM1118 717l-491 -146v129l135 41q-23 4 -40 19.5
t-29.5 37t-19.5 46t-7 43.5q0 63 28.5 113.5t72.5 86t95 54t96 18.5q48 0 91 -15.5t84 -68.5l-52 -41l-69 -59q-37 39 -92 39q-54 0 -76.5 -29t-22.5 -57q0 -27 15.5 -49.5t38 -38t47 -24.5t43.5 -11l153 45v-133z" />
    <glyph glyph-name="uni06AF" unicode="&#x6af;" horiz-adv-x="1757" 
d="M498 0q-86 0 -160 14.5t-129 47t-86 86t-31 128.5q0 115 21.5 198t51.5 142.5t62.5 103.5t55.5 83h198q-37 -60 -69.5 -125.5t-54 -130t-26.5 -122.5t14.5 -103.5t67.5 -72t134 -26.5h807v-223h-856zM1755 0h-940v223h696v62q0 59 -32.5 127.5t-91 134t-140.5 126
t-180 103.5l16 352l793 269l-66 -273l-516 -157q86 -60 165 -139.5t140 -163.5q66 -93 111 -188t45 -191v-62v-223zM1925 1606l-846 -275l-6 -143l815 266z" />
    <glyph glyph-name="uni06CC" unicode="&#x6cc;" horiz-adv-x="1509" 
d="M1128 111q5 18 -0.5 29.5t-29.5 11.5h-119q-57 0 -100 3t-72 17q-70 33 -88.5 99.5t2 147.5t76 165t132.5 153.5t169 114.5t190 45q58 0 84.5 -22.5t31.5 -56.5t-6.5 -72.5t-31.5 -73.5q-8 -17 -27.5 -20t-35.5 7q-43 27 -98.5 15t-108 -47t-89 -83t-42.5 -89
q-2 -21 6 -48.5t45 -31.5h215q31 0 57.5 -9.5t46 -34t30.5 -65.5t11 -102q0 -277 -167 -405t-531 -128q-135 0 -243.5 39t-184.5 101.5t-117 139.5t-41 152q0 115 21.5 198t51.5 142.5t62.5 103.5t55.5 83h157q-53 -88 -92 -203t-39 -221q0 -55 23.5 -108.5t70 -95.5
t113 -67.5t152.5 -25.5q161 0 247 14.5t128 43t55.5 74.5t29.5 110z" />
    <glyph glyph-name="uni0622" unicode="&#x622;" horiz-adv-x="528" 
d="M385 1389v-1389h-260v1315zM-233 1618q26 -14 68 -21.5t95.5 -8.5t114.5 4t127 16l74 14l73 12q181 33 299.5 -7t184.5 -140q-51 29 -157.5 33t-235.5 -19q-41 -8 -84 -18t-84 -17q-170 -28 -292 13t-183 139z" />
    <glyph glyph-name="uni0623" unicode="&#x623;" horiz-adv-x="528" 
d="M383 1389v-1389h-260v1315zM492 1540l-492 -145v129l135 41q-22 4 -39.5 19t-30 36.5t-19.5 46.5t-7 43q0 64 28.5 114t72.5 86t95.5 54t96.5 18q47 0 90 -15t84 -69l-51 -40l-70 -60q-37 39 -92 39q-53 0 -75.5 -28.5t-22.5 -57.5q0 -27 15 -49.5t37.5 -37.5t47 -24.5
t43.5 -11.5l154 45v-133z" />
    <glyph glyph-name="uni0624" unicode="&#x624;" horiz-adv-x="1014" 
d="M690 223q-2 99 -7 199t-21 201q-158 -35 -254.5 -100.5t-100.5 -178.5q0 -59 35 -90t113 -31h235zM938 59q0 -14 -2 -59t-16.5 -103.5t-48 -123t-97 -118.5t-163 -89t-246.5 -35l-48 147q95 7 172 43q33 15 66 38.5t60.5 57t48 79t26.5 104.5h-250q-104 0 -174.5 20.5
t-115 62.5t-62.5 106.5t-18 150.5q0 84 46 168t143 155.5t250 124t365 72.5q35 -217 49.5 -412.5t14.5 -388.5zM198 896q23 24 55 45l62 40q-19 4 -35 17.5t-26.5 32t-17 38t-6.5 35.5q0 39 20 76t52 66t72.5 47.5t82.5 21.5t80.5 -13t65.5 -58l-40 -32l-56 -48
q-25 28 -60 32q-25 2 -42 -3.5t-28 -14.5t-16 -22t-7 -25q-2 -23 9 -40t28 -28.5t36 -16.5t34 -1l96 22q43 9 88 15q-17 -33 -29.5 -71t-22.5 -73q-49 0 -101.5 -10t-104.5 -29t-100.5 -43t-86.5 -51z" />
    <glyph glyph-name="uni0625" unicode="&#x625;" horiz-adv-x="528" 
d="M385 1389v-1389h-260v1315zM473 -590l-491 -145v129l135 41q-23 4 -40.5 19.5t-29.5 37t-19.5 46t-7.5 42.5q0 64 29 114t73 86t95 54.5t96 18.5q47 0 90 -15.5t84 -68.5l-51 -41l-69 -60q-37 39 -93 39q-53 0 -75.5 -28.5t-22.5 -57.5q0 -27 15.5 -49.5t38 -37.5
t47 -24.5t42.5 -11.5l154 45v-133z" />
    <glyph glyph-name="uni0626" unicode="&#x626;" horiz-adv-x="1509" 
d="M1128 111q5 18 -0.5 29.5t-29.5 11.5h-119q-57 0 -100 3t-72 17q-70 33 -88.5 99.5t2 147.5t76 165t132.5 153.5t169 114.5t190 45q58 0 84.5 -22.5t31.5 -56.5t-6.5 -72.5t-31.5 -73.5q-8 -17 -27.5 -20t-35.5 7q-43 27 -98.5 15t-108 -47t-89 -83t-42.5 -89
q-2 -21 6 -48.5t45 -31.5h215q31 0 57.5 -9.5t46 -34t30.5 -65.5t11 -102q0 -277 -167 -405t-531 -128q-135 0 -243.5 39t-184.5 101.5t-117 139.5t-41 152q0 115 21.5 198t51.5 142.5t62.5 103.5t55.5 83h157q-53 -88 -92 -203t-39 -221q0 -55 23.5 -108.5t70 -95.5
t113 -67.5t152.5 -25.5q161 0 247 14.5t128 43t55.5 74.5t29.5 110zM647 801l-491 -146v129l135 41q-23 4 -40.5 19.5t-29.5 37t-19 46t-7 43.5q0 63 28.5 113.5t72.5 86t95 54t96 18.5q48 0 91 -15.5t84 -68.5l-52 -41l-69 -59q-37 39 -92 39q-54 0 -76.5 -29t-22.5 -57
q0 -27 15.5 -49.5t38 -38t47 -24.5t43.5 -11l153 45v-133z" />
    <glyph glyph-name="uni0627" unicode="&#x627;" horiz-adv-x="528" 
d="M385 1389v-1389h-260v1315z" />
    <glyph glyph-name="uni0628" unicode="&#x628;" horiz-adv-x="1772" 
d="M498 0q-86 0 -160 14.5t-129 47t-86 86t-31 128.5q0 115 21.5 198t51.5 142.5t62.5 103.5t55.5 83h198q-37 -60 -69.5 -125.5t-54 -130t-26.5 -122.5t14.5 -103.5t67.5 -72t134 -26.5h876v594l246 78v-895h-1171zM836 -332q0 66 46 112t111 46q64 0 108 -46t44 -112
q0 -63 -44 -107t-108 -44q-65 0 -111 44t-46 107z" />
    <glyph glyph-name="uni0629" unicode="&#x629;" horiz-adv-x="978" 
d="M699 338q0 24 -13.5 69.5t-41 93.5t-69.5 90t-101 60q-37 -20 -71 -56t-60.5 -76t-43 -79t-16.5 -65q0 -82 45 -133.5t133 -51.5q113 0 175.5 44.5t62.5 103.5zM918 332q0 -96 -44 -163t-111.5 -110t-148.5 -62.5t-152.5 -19.5t-141 18.5t-125 55.5t-90.5 90.5t-35 122.5
q0 129 59.5 259t184.5 222l-74 31l92 139q150 -28 260.5 -87.5t182 -137.5t107.5 -171t36 -187zM93 1156q0 66 46 112t112 46q63 0 107.5 -46t44.5 -112q0 -63 -44.5 -107t-107.5 -44q-66 0 -112 44t-46 107zM499 1156q0 66 46 112t111 46q64 0 108 -46t44 -112
q0 -63 -44 -107t-108 -44q-65 0 -111 44t-46 107z" />
    <glyph glyph-name="uni062A" unicode="&#x62a;" horiz-adv-x="1772" 
d="M498 0q-86 0 -160 14.5t-129 47t-86 86t-31 128.5q0 115 21.5 198t51.5 142.5t62.5 103.5t55.5 83h198q-37 -60 -69.5 -125.5t-54 -130t-26.5 -122.5t14.5 -103.5t67.5 -72t134 -26.5h876v594l246 78v-895h-1171zM606 1161q0 66 46 112t112 46q63 0 107 -46t44 -112
q0 -63 -44 -107t-107 -44q-66 0 -112 44t-46 107zM1012 1161q0 66 46 112t111 46q64 0 108 -46t44 -112q0 -63 -44 -107t-108 -44q-65 0 -111 44t-46 107z" />
    <glyph glyph-name="uni062B" unicode="&#x62b;" horiz-adv-x="1772" 
d="M498 0q-86 0 -160 14.5t-129 47t-86 86t-31 128.5q0 115 21.5 198t51.5 142.5t62.5 103.5t55.5 83h198q-37 -60 -69.5 -125.5t-54 -130t-26.5 -122.5t14.5 -103.5t67.5 -72t134 -26.5h876v594l246 78v-895h-1171zM606 1161q0 66 46 112t112 46q63 0 107 -46t44 -112
q0 -63 -44 -107t-107 -44q-66 0 -112 44t-46 107zM1012 1161q0 66 46 112t111 46q64 0 108 -46t44 -112q0 -63 -44 -107t-108 -44q-65 0 -111 44t-46 107zM799 1520q0 66 46 112t112 46q63 0 107 -46t44 -112q0 -63 -44 -107t-107 -44q-66 0 -112 44t-46 107z" />
    <glyph glyph-name="uni062C" unicode="&#x62c;" horiz-adv-x="1382" 
d="M1128 -653q-182 -49 -352 -49q-127 0 -250 23.5t-219 78.5t-155.5 145t-59.5 224q0 129 50.5 251.5t145.5 228t231 187.5t306 131q-28 8 -62 23.5t-75 31t-89 26.5t-105 11q-54 0 -122.5 -32.5t-121.5 -98.5l-148 134q33 45 80 88t102.5 75.5t116 52t121.5 19.5
q60 0 150 -38t213 -79t220 -60.5t195 -17.5l-4 -274q-129 10 -249.5 -9.5t-228 -62.5t-198 -102t-155 -129t-100 -144.5t-35.5 -146.5q0 -80 40 -138t112.5 -96t175 -56.5t227.5 -18.5q57 0 118.5 4t126.5 12zM764 -45q0 65 46 111.5t112 46.5q63 0 107 -46.5t44 -111.5
q0 -64 -44 -108t-107 -44q-66 0 -112 44t-46 108z" />
    <glyph glyph-name="uni062D" unicode="&#x62d;" horiz-adv-x="1382" 
d="M1128 -653q-182 -49 -352 -49q-127 0 -250 23.5t-219 78.5t-155.5 145t-59.5 224q0 129 50.5 251.5t145.5 228t231 187.5t306 131q-28 8 -62 23.5t-75 31t-89 26.5t-105 11q-54 0 -122.5 -32.5t-121.5 -98.5l-148 134q33 45 80 88t102.5 75.5t116 52t121.5 19.5
q60 0 150 -38t213 -79t220 -60.5t195 -17.5l-4 -274q-129 10 -249.5 -9.5t-228 -62.5t-198 -102t-155 -129t-100 -144.5t-35.5 -146.5q0 -80 40 -138t112.5 -96t175 -56.5t227.5 -18.5q57 0 118.5 4t126.5 12z" />
    <glyph glyph-name="uni062E" unicode="&#x62e;" horiz-adv-x="1382" 
d="M1128 -653q-182 -49 -352 -49q-127 0 -250 23.5t-219 78.5t-155.5 145t-59.5 224q0 129 50.5 251.5t145.5 228t231 187.5t306 131q-28 8 -62 23.5t-75 31t-89 26.5t-105 11q-54 0 -122.5 -32.5t-121.5 -98.5l-148 134q33 45 80 88t102.5 75.5t116 52t121.5 19.5
q60 0 150 -38t213 -79t220 -60.5t195 -17.5l-4 -274q-129 10 -249.5 -9.5t-228 -62.5t-198 -102t-155 -129t-100 -144.5t-35.5 -146.5q0 -80 40 -138t112.5 -96t175 -56.5t227.5 -18.5q57 0 118.5 4t126.5 12zM625 1161q0 66 46 112t111 46q64 0 108 -46t44 -112
q0 -63 -44 -107t-108 -44q-65 0 -111 44t-46 107z" />
    <glyph glyph-name="uni062F" unicode="&#x62f;" horiz-adv-x="1094" 
d="M121 254q22 -8 49 -16q23 -7 53.5 -11t67.5 -4h463q0 39 -12.5 103.5t-49.5 136.5t-108.5 142.5t-192.5 123.5l58 225q141 -34 247.5 -121.5t176 -195t104.5 -219t35 -195.5v-223h-740q-36 0 -67 4t-53 10q-27 9 -50 17z" />
    <glyph glyph-name="uni0630" unicode="&#x630;" horiz-adv-x="1094" 
d="M121 254q22 -8 49 -16q23 -7 53.5 -11t67.5 -4h463q0 39 -12.5 103.5t-49.5 136.5t-108.5 142.5t-192.5 123.5l58 225q141 -34 247.5 -121.5t176 -195t104.5 -219t35 -195.5v-223h-740q-36 0 -67 4t-53 10q-27 9 -50 17zM320 1250q0 66 46 112t112 46q63 0 107 -46
t44 -112q0 -63 -44 -107t-107 -44q-66 0 -112 44t-46 107z" />
    <glyph glyph-name="uni0631" unicode="&#x631;" horiz-adv-x="653" 
d="M500 895q41 -229 55 -447.5t14 -388.5q0 -14 -2 -59t-16 -103.5t-48 -123t-97.5 -118.5t-163 -89t-246.5 -35l-47 147q104 9 186 50q35 18 69 44.5t60.5 64.5t43 90.5t16.5 119.5q0 186 -9.5 382t-60.5 386z" />
    <glyph glyph-name="uni0632" unicode="&#x632;" horiz-adv-x="653" 
d="M500 895q41 -229 55 -447.5t14 -388.5q0 -14 -2 -59t-16 -103.5t-48 -123t-97.5 -118.5t-163 -89t-246.5 -35l-47 147q104 9 186 50q35 18 69 44.5t60.5 64.5t43 90.5t16.5 119.5q0 186 -9.5 382t-60.5 386zM236 1161q0 66 46 112t111 46q64 0 108 -46t44 -112
q0 -63 -44 -107t-108 -44q-65 0 -111 44t-46 107z" />
    <glyph glyph-name="uni0633" unicode="&#x633;" horiz-adv-x="2410" 
d="M1020 817l246 86v-680h270v594l246 86v-680h268v594l246 86v-903l-1047 2q-43 -248 -195.5 -359.5t-406.5 -111.5q-135 0 -238.5 39t-174 101.5t-106.5 139t-36 152.5q0 115 21.5 198t51.5 142t62.5 103.5t55.5 82.5h157q-53 -88 -92 -202.5t-39 -220.5q0 -56 18.5 -109
t58.5 -95t102.5 -67.5t148.5 -25.5q139 0 241.5 57t131.5 174q10 45 10 88v729z" />
    <glyph glyph-name="uni0634" unicode="&#x634;" horiz-adv-x="2410" 
d="M1020 817l246 86v-680h270v594l246 86v-680h268v594l246 86v-903l-1047 2q-43 -248 -195.5 -359.5t-406.5 -111.5q-135 0 -238.5 39t-174 101.5t-106.5 139t-36 152.5q0 115 21.5 198t51.5 142t62.5 103.5t55.5 82.5h157q-53 -88 -92 -202.5t-39 -220.5q0 -56 18.5 -109
t58.5 -95t102.5 -67.5t148.5 -25.5q139 0 241.5 57t131.5 174q10 45 10 88v729zM1303 1161q0 66 46 112t111 46q64 0 108 -46t44 -112q0 -63 -44 -107t-108 -44q-65 0 -111 44t-46 107zM1708 1161q0 66 46 112t112 46q63 0 107 -46t44 -112q0 -63 -44 -107t-107 -44
q-66 0 -112 44t-46 107zM1497 1550q0 66 46 112t112 46q63 0 107 -46t44 -112q0 -63 -44 -108t-107 -45q-66 0 -112 45t-46 108z" />
    <glyph glyph-name="uni0635" unicode="&#x635;" horiz-adv-x="2443" 
d="M2038 223v111q0 117 -63.5 188.5t-180.5 71.5q-240 0 -543 -371h787zM1020 725l246 72l2 -301q182 174 338.5 260t316.5 86q123 0 199 -62.5t117.5 -156t56 -201t14.5 -199.5v-223h-1061q-43 -248 -195.5 -358.5t-406.5 -110.5q-135 0 -238.5 39t-174 101.5t-106.5 139
t-36 152.5q0 115 21.5 198t51.5 142t62.5 103.5t55.5 82.5h157q-53 -88 -92 -202.5t-39 -220.5q0 -56 18.5 -109t58.5 -95t102.5 -67.5t148.5 -25.5q139 0 241.5 57t131.5 174q10 45 10 88v637z" />
    <glyph glyph-name="uni0636" unicode="&#x636;" horiz-adv-x="2443" 
d="M2038 223v111q0 117 -63.5 188.5t-180.5 71.5q-240 0 -543 -371h787zM1020 725l246 72l2 -301q182 174 338.5 260t316.5 86q123 0 199 -62.5t117.5 -156t56 -201t14.5 -199.5v-223h-1061q-43 -248 -195.5 -358.5t-406.5 -110.5q-135 0 -238.5 39t-174 101.5t-106.5 139
t-36 152.5q0 115 21.5 198t51.5 142t62.5 103.5t55.5 82.5h157q-53 -88 -92 -202.5t-39 -220.5q0 -56 18.5 -109t58.5 -95t102.5 -67.5t148.5 -25.5q139 0 241.5 57t131.5 174q10 45 10 88v637zM1594 1142q0 66 46 112t112 46q63 0 107 -46t44 -112q0 -63 -44 -107t-107 -44
q-66 0 -112 44t-46 107z" />
    <glyph glyph-name="uni0637" unicode="&#x637;" horiz-adv-x="1722" 
d="M1317 223v111q0 117 -63.5 188.5t-180.5 71.5q-239 0 -543 -371h787zM285 223v1092l260 74l2 -893q182 174 338.5 260t316.5 86q123 0 198 -62.5t117 -156t57 -201t15 -199.5v-223h-1497v223h193z" />
    <glyph glyph-name="uni0638" unicode="&#x638;" horiz-adv-x="1722" 
d="M1317 223v111q0 117 -63.5 188.5t-180.5 71.5q-239 0 -543 -371h787zM285 223v1092l260 74l2 -893q182 174 338.5 260t316.5 86q123 0 198 -62.5t117 -156t57 -201t15 -199.5v-223h-1497v223h193zM862 1161q0 66 46 112t112 46q63 0 107 -46t44 -112q0 -63 -44 -107
t-107 -44q-66 0 -112 44t-46 107z" />
    <glyph glyph-name="uni0639" unicode="&#x639;" horiz-adv-x="1143" 
d="M1094 209q-367 -59 -562.5 -163.5t-195.5 -231.5q0 -56 18.5 -106t75.5 -88t160.5 -59.5t273.5 -21.5q54 0 113 3t125 12l-2 -211q-187 -45 -357 -45q-102 0 -216.5 25.5t-212 80.5t-161 143t-63.5 213q0 70 24.5 134.5t68.5 120t102.5 101.5t126.5 79q-119 49 -168 132
t-49 197q0 90 31.5 166t90 130t141.5 84t185 30q125 0 254 -47l4 -174q-59 18 -139 25t-153.5 -6t-125 -53t-51.5 -116q0 -67 26.5 -112t64.5 -73t79 -40t72 -12q37 18 88 33.5t107.5 28.5t113.5 23.5t109 20.5z" />
    <glyph glyph-name="uni063A" unicode="&#x63a;" horiz-adv-x="1143" 
d="M1094 209q-367 -59 -562.5 -163.5t-195.5 -231.5q0 -56 18.5 -106t75.5 -88t160.5 -59.5t273.5 -21.5q54 0 113 3t125 12l-2 -211q-187 -45 -357 -45q-102 0 -216.5 25.5t-212 80.5t-161 143t-63.5 213q0 70 24.5 134.5t68.5 120t102.5 101.5t126.5 79q-119 49 -168 132
t-49 197q0 90 31.5 166t90 130t141.5 84t185 30q125 0 254 -47l4 -174q-59 18 -139 25t-153.5 -6t-125 -53t-51.5 -116q0 -67 26.5 -112t64.5 -73t79 -40t72 -12q37 18 88 33.5t107.5 28.5t113.5 23.5t109 20.5zM494 1161q0 66 46 112t111 46q64 0 108 -46t44 -112
q0 -63 -44 -107t-108 -44q-65 0 -111 44t-46 107z" />
    <glyph glyph-name="uni0641" unicode="&#x641;" horiz-adv-x="1927" 
d="M1595 256q0 113 -5 199t-23.5 144t-55 87t-102.5 29q-59 0 -95 -18.5t-54.5 -44t-24.5 -56.5t-6 -55q0 -41 24.5 -89.5t70.5 -89t114.5 -70.5t156.5 -36zM498 0q-86 0 -160 14.5t-129 47t-86 86t-31 128.5q0 115 21.5 198t51.5 142.5t62.5 103.5t55.5 83h198
q-37 -60 -69.5 -125.5t-54 -130t-26.5 -122.5t14.5 -103.5t67.5 -72t134 -26.5h631q-35 19 -67 48.5t-56.5 66.5t-40 78t-15.5 82q0 200 115 310t340 110q105 0 172.5 -36t108.5 -94.5t60.5 -133t25.5 -153.5t4 -154t-2 -132q0 -215 -156 -215h-1169zM1309 1161q0 66 46 112
t111 46q64 0 108 -46t44 -112q0 -63 -44 -107t-108 -44q-65 0 -111 44t-46 107z" />
    <glyph glyph-name="uni0642" unicode="&#x642;" horiz-adv-x="1634" 
d="M1311 223q-2 99 -7.5 199t-21.5 201q-158 -35 -254 -100.5t-100 -178.5q0 -59 34.5 -90t112.5 -31h236zM938 -258q68 0 129 9t110.5 37t84 78t49.5 134h-250q-105 0 -175.5 20.5t-114.5 62.5t-62.5 106.5t-18.5 150.5q0 84 46 168t143.5 155.5t250 124t365.5 72.5
q35 -217 49.5 -412.5t14.5 -388.5q0 -14 -2.5 -59t-16.5 -103.5t-48 -123t-97.5 -117.5t-162.5 -88t-247 -35h-346q-94 0 -191.5 32t-177.5 96.5t-130 161.5t-50 230q0 115 21.5 198t51.5 142.5t62.5 103.5t55.5 83h157q-53 -88 -92 -203t-39 -221q0 -64 19.5 -136.5
t61.5 -134t106.5 -102.5t154.5 -41h289zM756 1161q0 66 46 112t111 46q64 0 108 -46t44 -112q0 -63 -44 -107t-108 -44q-65 0 -111 44t-46 107zM1161 1161q0 66 46 112t112 46q63 0 107 -46t44 -112q0 -63 -44 -107t-107 -44q-66 0 -112 44t-46 107z" />
    <glyph glyph-name="uni0643" unicode="&#x643;" horiz-adv-x="1757" 
d="M498 0q-86 0 -160 14.5t-129 47t-86 86t-31 128.5q0 115 21.5 198t51.5 142.5t62.5 103.5t55.5 83h198q-37 -60 -69.5 -125.5t-54 -130t-26.5 -122.5t14.5 -103.5t67.5 -72t134 -26.5h807v1092l260 74v-1389h-1116zM1118 717l-491 -146v129l135 41q-23 4 -40 19.5
t-29.5 37t-19.5 46t-7 43.5q0 63 28.5 113.5t72.5 86t95 54t96 18.5q48 0 91 -15.5t84 -68.5l-52 -41l-69 -59q-37 39 -92 39q-54 0 -76.5 -29t-22.5 -57q0 -27 15.5 -49.5t38 -38t47 -24.5t43.5 -11l153 45v-133z" />
    <glyph glyph-name="uni0644" unicode="&#x644;" horiz-adv-x="1409" 
d="M645 -469q-135 0 -238.5 39t-174 101.5t-106.5 139t-36 152.5q0 115 21.5 198t51.5 142t62.5 103.5t55.5 82.5h157q-53 -88 -92 -202.5t-39 -220.5q0 -56 18.5 -109t58.5 -95t102.5 -67.5t148.5 -25.5q82 0 149.5 19t116.5 59t76 100.5t27 140.5v1227l260 74v-1190
q0 -179 -41 -304.5t-120 -206.5t-194.5 -119t-263.5 -38z" />
    <glyph glyph-name="uni0645" unicode="&#x645;" horiz-adv-x="1300" 
d="M981 143q-25 185 -64.5 298.5t-99.5 113.5q-20 0 -72 -47q-30 -31 -64 -85t-56 -97q125 -52 212 -100t144 -83zM455 379q110 227 211.5 348t193.5 121q135 0 225 -193q27 -57 53.5 -144t57.5 -210q18 -84 14 -123q-4 -53 -47 -135q-82 -168 -155 -168q-27 0 -58 14
q-32 15 -78 41l-104 60l-125 69q-70 35 -145 68q-37 14 -64.5 8t-46 -26.5t-28 -49t-9.5 -55.5v-475h-223v618q0 66 27.5 116t73.5 81t105.5 40t121.5 -5z" />
    <glyph glyph-name="uni0646" unicode="&#x646;" horiz-adv-x="1448" 
d="M641 -369q-94 0 -191.5 32t-177 96.5t-130 161.5t-50.5 231q0 114 21.5 197t51.5 142.5t62.5 103.5t55.5 83h157q-53 -88 -92 -203t-39 -221q0 -64 19.5 -134.5t61.5 -129t106.5 -97t154.5 -38.5h84q90 0 154.5 38.5t106.5 97t61.5 129t19.5 134.5q0 137 -17.5 281.5
t-49.5 279.5l245 80q35 -150 52.5 -305.5t17.5 -302.5q0 -166 -54 -289t-140.5 -205t-193 -122t-212.5 -40h-84zM596 1049q0 65 46 111t112 46q63 0 107 -46t44 -111q0 -64 -44 -108t-107 -44q-66 0 -112 44t-46 108z" />
    <glyph glyph-name="uni0647" unicode="&#x647;" horiz-adv-x="978" 
d="M699 338q0 24 -13.5 69.5t-41 93.5t-69.5 90t-101 60q-37 -20 -71 -56t-60.5 -76t-43 -79t-16.5 -65q0 -82 45 -133.5t133 -51.5q113 0 175.5 44.5t62.5 103.5zM918 332q0 -96 -44 -163t-111.5 -110t-148.5 -62.5t-152.5 -19.5t-141 18.5t-125 55.5t-90.5 90.5t-35 122.5
q0 129 59.5 259t184.5 222l-74 31l92 139q150 -28 260.5 -87.5t182 -137.5t107.5 -171t36 -187z" />
    <glyph glyph-name="uni06BE" unicode="&#x6be;" horiz-adv-x="1384" 
d="M551 369q0 100 -36 162.5t-83 62.5q-24 0 -41.5 -16.5t-29 -42t-16.5 -55t-5 -56.5q0 -25 3 -59.5t15.5 -66.5t37 -53.5t69.5 -21.5q43 0 64.5 40t21.5 106zM1243 0h-1272v223h226q-41 29 -47.5 81t-6.5 118q0 47 15.5 100t44 101.5t68.5 82t89 42.5q-61 0 -103 15
t-69.5 45t-42 72t-22.5 95q156 -47 522 -80q166 -21 279.5 -66t184.5 -123.5t102.5 -194.5t31.5 -280v-231zM983 223q-4 99 -18.5 179.5t-50 141t-100 98.5t-169.5 50q55 -43 84 -121.5t29 -177.5q0 -49 -13.5 -94t-19.5 -76h258z" />
    <glyph glyph-name="uni0648" unicode="&#x648;" horiz-adv-x="1014" 
d="M690 223q-2 99 -7 199t-21 201q-158 -35 -254.5 -100.5t-100.5 -178.5q0 -59 35 -90t113 -31h235zM938 59q0 -14 -2 -59t-16.5 -103.5t-48 -123t-97 -118.5t-163 -89t-246.5 -35l-48 147q95 7 172 43q33 15 66 38.5t60.5 57t48 79t26.5 104.5h-250q-104 0 -174.5 20.5
t-115 62.5t-62.5 106.5t-18 150.5q0 84 46 168t143 155.5t250 124t365 72.5q35 -217 49.5 -412.5t14.5 -388.5z" />
    <glyph glyph-name="uni0649" unicode="&#x649;" horiz-adv-x="1509" 
d="M1128 111q5 18 -0.5 29.5t-29.5 11.5h-119q-57 0 -100 3t-72 17q-70 33 -88.5 99.5t2 147.5t76 165t132.5 153.5t169 114.5t190 45q58 0 84.5 -22.5t31.5 -56.5t-6.5 -72.5t-31.5 -73.5q-8 -17 -27.5 -20t-35.5 7q-43 27 -98.5 15t-108 -47t-89 -83t-42.5 -89
q-2 -21 6 -48.5t45 -31.5h215q31 0 57.5 -9.5t46 -34t30.5 -65.5t11 -102q0 -277 -167 -405t-531 -128q-135 0 -243.5 39t-184.5 101.5t-117 139.5t-41 152q0 115 21.5 198t51.5 142.5t62.5 103.5t55.5 83h157q-53 -88 -92 -203t-39 -221q0 -55 23.5 -108.5t70 -95.5
t113 -67.5t152.5 -25.5q161 0 247 14.5t128 43t55.5 74.5t29.5 110z" />
    <glyph glyph-name="uni064A" unicode="&#x64a;" horiz-adv-x="1509" 
d="M1128 111q5 18 -0.5 29.5t-29.5 11.5h-119q-57 0 -100 3t-72 17q-70 33 -88.5 99.5t2 147.5t76 165t132.5 153.5t169 114.5t190 45q58 0 84.5 -22.5t31.5 -56.5t-6.5 -72.5t-31.5 -73.5q-8 -17 -27.5 -20t-35.5 7q-43 27 -98.5 15t-108 -47t-89 -83t-42.5 -89
q-2 -21 6 -48.5t45 -31.5h215q31 0 57.5 -9.5t46 -34t30.5 -65.5t11 -102q0 -277 -167 -405t-531 -128q-135 0 -243.5 39t-184.5 101.5t-117 139.5t-41 152q0 115 21.5 198t51.5 142.5t62.5 103.5t55.5 83h157q-53 -88 -92 -203t-39 -221q0 -55 23.5 -108.5t70 -95.5
t113 -67.5t152.5 -25.5q161 0 247 14.5t128 43t55.5 74.5t29.5 110zM529 -550q0 42 29.5 71.5t71.5 29.5q40 0 68.5 -29.5t28.5 -71.5q0 -40 -28.5 -68.5t-68.5 -28.5q-42 0 -71.5 28.5t-29.5 68.5zM788 -550q0 42 29.5 71.5t71.5 29.5q41 0 69 -29.5t28 -71.5
q0 -40 -28 -68.5t-69 -28.5q-42 0 -71.5 28.5t-29.5 68.5z" />
    <glyph glyph-name="uni0676" unicode="&#x676;" horiz-adv-x="1014" 
d="M690 223q-2 99 -7 199t-21 201q-158 -35 -254.5 -100.5t-100.5 -178.5q0 -59 35 -90t113 -31h235zM938 59q0 -14 -2 -59t-16.5 -103.5t-48 -123t-97 -118.5t-163 -89t-246.5 -35l-48 147q95 7 172 43q33 15 66 38.5t60.5 57t48 79t26.5 104.5h-250q-104 0 -174.5 20.5
t-115 62.5t-62.5 106.5t-18 150.5q0 84 46 168t143 155.5t250 124t365 72.5q35 -217 49.5 -412.5t14.5 -388.5zM198 896q23 24 55 45l62 40q-19 4 -35 17.5t-26.5 32t-17 38t-6.5 35.5q0 39 20 76t52 66t72.5 47.5t82.5 21.5t80.5 -13t65.5 -58l-40 -32l-56 -48
q-25 28 -60 32q-25 2 -42 -3.5t-28 -14.5t-16 -22t-7 -25q-2 -23 9 -40t28 -28.5t36 -16.5t34 -1l96 22q43 9 88 15q-17 -33 -29.5 -71t-22.5 -73q-49 0 -101.5 -10t-104.5 -29t-100.5 -43t-86.5 -51z" />
    <glyph glyph-name="glyph315" horiz-adv-x="1085" 
d="M365 -469l-48 147q97 7 177 43q67 31 127.5 95.5t74.5 183.5h-256q-209 0 -297 88t-88 262q0 84 50.5 166t153.5 151.5t260 121t370 71.5q24 -135 36.5 -294.5t16.5 -342.5h178v-223h-178q-2 -35 -12 -84t-34 -100.5t-63.5 -102.5t-103 -92t-153 -65.5t-211.5 -24.5z
M696 223q-2 99 -7 199t-21 201q-78 -17 -143.5 -41.5t-112.5 -58.5t-75 -79t-30 -100q0 -59 35 -90t113 -31h241zM198 896q23 24 55 45l62 40q-19 4 -35 17.5t-26.5 32t-17 38t-6.5 35.5q0 39 20 76t52 66t72.5 47.5t82.5 21.5t80.5 -13t65.5 -58l-40 -32l-56 -48
q-25 28 -60 32q-25 2 -42 -3.5t-28 -14.5t-16 -22t-7 -25q-2 -23 9 -40t28 -28.5t36 -16.5t34 -1l96 22q43 9 88 15q-17 -33 -29.5 -71t-22.5 -73q-49 0 -101.5 -10t-104.5 -29t-100.5 -43t-86.5 -51z" />
    <glyph glyph-name="uni0695" unicode="&#x695;" horiz-adv-x="653" 
d="M500 895q41 -229 55 -447.5t14 -388.5q0 -14 -2 -59t-16 -103.5t-48 -123t-97.5 -118.5t-163 -89t-246.5 -35l-47 147q104 9 186 50q35 18 69 44.5t60.5 64.5t43 90.5t16.5 119.5q0 186 -9.5 382t-60.5 386zM429 -489l65 -100l-100 -312q-27 -10 -78 -24.5t-74 -22.5
q-102 230 -213 367q13 6 42.5 18t51 19.5t44.5 11.5q112 -129 169 -244q43 172 93 287z" />
    <glyph glyph-name="uniE001" unicode="&#xe001;" horiz-adv-x="741" 
d="M479 895q33 -178 48.5 -350t19.5 -322h225v-223h-225q-2 -35 -11.5 -84t-33 -100.5t-62.5 -102.5t-101.5 -92t-151.5 -65.5t-212 -24.5l-47 147q105 9 187 50q35 18 68.5 44.5t60 64.5t43 90.5t16.5 119.5q0 186 -9 382t-61 386zM429 -489l65 -100l-100 -312
q-27 -10 -78 -24.5t-74 -22.5q-102 230 -213 367q13 6 42.5 18t51 19.5t44.5 11.5q112 -129 169 -244q43 172 93 287z" />
    <glyph glyph-name="uni06B5" unicode="&#x6b5;" horiz-adv-x="1409" 
d="M645 -469q-135 0 -238.5 39t-174 101.5t-106.5 139t-36 152.5q0 115 21.5 198t51.5 142t62.5 103.5t55.5 82.5h157q-53 -88 -92 -202.5t-39 -220.5q0 -56 18.5 -109t58.5 -95t102.5 -67.5t148.5 -25.5q82 0 149.5 19t116.5 59t76 100.5t27 140.5v1227l260 74v-1190
q0 -179 -41 -304.5t-120 -206.5t-194.5 -119t-263.5 -38zM749 1332l65 -100l-100 -312q-27 -10 -78 -24.5t-74 -22.5q-102 230 -213 367q13 6 42.5 18t51 19.5t44.5 11.5q112 -129 169 -244q43 172 93 287z" />
    <glyph glyph-name="uniE007" unicode="&#xe007;" horiz-adv-x="1440" 
d="M1245 0q-47 -250 -196.5 -359.5t-403.5 -109.5q-135 0 -238.5 39t-174 101.5t-106.5 139t-36 152.5q0 115 21.5 198t51.5 142t62.5 103.5t55.5 82.5h157q-53 -88 -92 -202.5t-39 -220.5q0 -56 18.5 -109t58.5 -95t102.5 -67.5t148.5 -25.5q164 0 265 78.5t101 240.5v1227
l261 74v-1166h206v-223h-223zM749 1332l65 -100l-100 -312q-27 -10 -78 -24.5t-74 -22.5q-102 230 -213 367q13 6 42.5 18t51 19.5t44.5 11.5q112 -129 169 -244q43 172 93 287z" />
    <glyph glyph-name="uniE008" unicode="&#xe008;" horiz-adv-x="616" 
d="M-31 223h273v1092l260 74v-1389h-533v223zM456 1879l65 -100l-100 -312q-27 -10 -78 -24.5t-74 -22.5q-102 230 -213 367q13 6 42.5 18t51 19.5t44.5 11.5q112 -129 169 -244q43 172 93 287z" />
    <glyph glyph-name="uniE009" unicode="&#xe009;" horiz-adv-x="741" 
d="M772 223v-223h-803v223h273v1092l260 74v-1166h270zM451 1884l65 -100l-100 -312q-27 -10 -78 -24.5t-74 -22.5q-102 230 -213 367q13 6 42.5 18t51 19.5t44.5 11.5q112 -129 169 -244q43 172 93 287z" />
    <glyph glyph-name="uni06C6" unicode="&#x6c6;" horiz-adv-x="1014" 
d="M690 223q-2 99 -7 199t-21 201q-158 -35 -254.5 -100.5t-100.5 -178.5q0 -59 35 -90t113 -31h235zM938 59q0 -14 -2 -59t-16.5 -103.5t-48 -123t-97 -118.5t-163 -89t-246.5 -35l-48 147q95 7 172 43q33 15 66 38.5t60.5 57t48 79t26.5 104.5h-250q-104 0 -174.5 20.5
t-115 62.5t-62.5 106.5t-18 150.5q0 84 46 168t143 155.5t250 124t365 72.5q35 -217 49.5 -412.5t14.5 -388.5zM668 1403l65 -100l-100 -312q-27 -10 -78 -24.5t-74 -22.5q-102 230 -213 367q13 6 42.5 18t51 19.5t44.5 11.5q112 -129 169 -244q43 172 93 287z" />
    <glyph glyph-name="uni06CE" unicode="&#x6ce;" horiz-adv-x="1509" 
d="M1128 111q5 18 -0.5 29.5t-29.5 11.5h-119q-57 0 -100 3t-72 17q-70 33 -88.5 99.5t2 147.5t76 165t132.5 153.5t169 114.5t190 45q58 0 84.5 -22.5t31.5 -56.5t-6.5 -72.5t-31.5 -73.5q-8 -17 -27.5 -20t-35.5 7q-43 27 -98.5 15t-108 -47t-89 -83t-42.5 -89
q-2 -21 6 -48.5t45 -31.5h215q31 0 57.5 -9.5t46 -34t30.5 -65.5t11 -102q0 -277 -167 -405t-531 -128q-135 0 -243.5 39t-184.5 101.5t-117 139.5t-41 152q0 115 21.5 198t51.5 142.5t62.5 103.5t55.5 83h157q-53 -88 -92 -203t-39 -221q0 -55 23.5 -108.5t70 -95.5
t113 -67.5t152.5 -25.5q161 0 247 14.5t128 43t55.5 74.5t29.5 110zM752 1245l59 -90l-91 -281q-24 -10 -70 -23t-67 -20q-92 207 -192 331q11 6 38 17t46.5 17.5t39.5 10.5q102 -117 154 -221q38 156 83 259z" />
    <glyph glyph-name="uniE004" unicode="&#xe004;" horiz-adv-x="1896" 
d="M1286 872q137 0 230.5 -65.5t150.5 -162.5t84 -211t35 -210h170v-223h-391q0 168 -16.5 283.5t-43 191.5t-59.5 116t-66.5 58.5t-62.5 21.5t-49 3q-68 0 -122 -20.5t-92 -53.5t-59.5 -74t-21.5 -82q0 -20 9 -44.5t42 -24.5h205q31 0 57.5 -9.5t46 -34t30.5 -65.5t11 -102
q0 -277 -167 -405t-531 -128q-135 0 -243.5 39t-184.5 101.5t-117 139.5t-41 152q0 115 21.5 198t51.5 142.5t62.5 103.5t55.5 83h157q-53 -88 -92 -203t-39 -221q0 -55 23.5 -108.5t69.5 -95.5t113 -67.5t153 -25.5q161 0 247 14.5t128 43t55.5 74.5t29.5 110q2 6 2 16
q0 25 -32 25h-105q-80 0 -132 11t-83 34.5t-43 57.5t-12 77q0 80 32.5 175t102.5 176t176.5 135t253.5 54zM752 1245l59 -90l-91 -281q-24 -10 -70 -23t-67 -20q-92 207 -192 331q11 6 38 17t46.5 17.5t39.5 10.5q102 -117 154 -221q38 156 83 259z" />
    <glyph glyph-name="uniE005" unicode="&#xe005;" horiz-adv-x="817" 
d="M-31 223h463v600l260 74l2 -897h-725v223zM0 -334q0 66 46 112t112 46q63 0 107 -46t44 -112q0 -63 -44 -107t-107 -44q-66 0 -112 44t-46 107zM406 -334q0 66 46 112t111 46q64 0 108 -46t44 -112q0 -63 -44 -107t-108 -44q-65 0 -111 44t-46 107zM417 1325l59 -90
l-91 -281q-24 -10 -70 -23t-67 -20q-92 207 -192 331q11 6 38 17t46.5 17.5t39.5 10.5q102 -117 154 -221q38 156 83 259z" />
    <glyph glyph-name="uniE006" unicode="&#xe006;" horiz-adv-x="913" 
d="M-31 223h385v600l260 74v-674h330v-223h-975v223zM119 -334q0 66 46 112t111 46q64 0 108 -46t44 -112q0 -63 -44 -107t-108 -44q-65 0 -111 44t-46 107zM524 -334q0 66 46 112t112 46q63 0 107.5 -46t44.5 -112q0 -63 -44.5 -107t-107.5 -44q-66 0 -112 44t-46 107z
M417 1325l59 -90l-91 -281q-24 -10 -70 -23t-67 -20q-92 207 -192 331q11 6 38 17t46.5 17.5t39.5 10.5q102 -117 154 -221q38 156 83 259z" />
    <glyph glyph-name="aekurdiFinal" unicode="&#xe000;" horiz-adv-x="1294" 
d="M152 373q0 86 50 168t156.5 147.5t273.5 112.5t398 63v-641h295v-223h-459q-22 14 -37.5 36.5t-25.5 45.5q-10 24 -17 51q-10 -39 -41 -67q-26 -25 -76.5 -45.5t-136.5 -20.5q-208 0 -294 99.5t-86 273.5zM399 410v-66q0 -59 35 -90t113 -31h235v408
q-86 -17 -156.5 -41.5t-119.5 -53t-77 -61.5t-30 -65z" />
    <glyph glyph-name="uni200C" unicode="&#x200c;" horiz-adv-x="0" 
 />
    <glyph glyph-name="_330" horiz-adv-x="0" 
 />
    </font>
</defs>
</svg>
