<svg width="55" height="73" viewBox="0 0 55 73" fill="none" xmlns="http://www.w3.org/2000/svg">
<path d="M7.62108 33.6598C7.53331 33.6019 7.44561 33.5441 7.35969 33.487C8.55303 33.8649 9.47231 32.9978 10.5303 32.7639C10.2526 36.1888 10.0364 39.6212 9.66833 43.0364C9.50725 44.5308 9.82948 44.8877 11.2497 44.3753C14.0681 43.3584 16.8994 42.3608 19.7732 41.5272C22.6438 40.6946 25.278 41.3057 27.5032 43.4298C26.8937 44.4516 25.5412 44.4097 24.8728 45.347C23.1076 44.3527 21.3376 44.4079 19.4671 45.118C17.0102 46.0508 14.5078 46.8624 12.0087 47.6741C8.25012 48.8948 5.94209 46.9727 6.35477 43.0126C6.65829 40.1001 6.95051 37.1863 7.24773 34.273C7.37216 34.0684 7.49658 33.8642 7.62108 33.6598Z" fill="#DA2778"/>
<path d="M6.16642 58.379C5.30661 58.0148 4.44215 57.6614 3.5883 57.283C2.86011 56.9604 2.28362 56.515 2.40105 55.5662C2.51561 54.6405 3.19433 54.3567 3.92869 54.1059C8.30747 52.6104 12.683 51.105 17.0615 49.6087C18.3638 49.1636 19.6817 48.7641 20.9744 48.292C21.7262 48.0174 22.4698 47.8478 23.0663 48.4921C23.7149 49.1927 23.5723 50 23.1052 50.7683C17.4589 53.305 11.8127 55.842 6.16642 58.379Z" fill="#A841B3"/>
<path d="M54.1271 54.9124C54.8605 61.4447 51.7097 65.0838 45.2676 65.0758C40.4816 65.07 35.6956 64.9975 30.9095 64.9548C31.1679 64.2636 31.861 64.2641 32.3745 63.9646C33.4479 63.3385 34.7756 63.0812 35.4453 61.8438C36.3687 61.831 37.2925 61.8183 38.2162 61.8056L38.2116 61.8058C40.5667 61.7781 42.9216 61.7485 45.2767 61.7233C49.2165 61.6811 50.5579 60.4827 51.1456 56.4743C51.999 55.6739 53.3157 55.7962 54.1271 54.9124Z" fill="#11DEC9"/>
<path d="M39.2638 12.795C39.5008 13.7984 40.2733 13.7536 41.0359 13.7511C43.0961 13.7444 45.1568 13.7247 47.2166 13.7536C48.9193 13.7774 50.2549 14.3952 50.7148 16.2581C50.1726 16.2099 49.5233 15.6169 49.2215 16.6632C49.0028 17.4218 48.2864 17.3886 47.6746 17.4705C46.3149 16.7611 44.8621 17.217 43.4549 17.1444C42.2792 17.0837 40.9164 16.8269 39.9601 17.3165C38.7611 17.9303 39.6013 19.5023 39.3843 20.6344C39.1909 21.6432 38.728 22.3358 37.692 22.2918C36.6286 22.2466 36.2327 21.4519 36.1938 20.4567C36.1689 19.8212 36.1397 19.1796 36.196 18.5485C36.2912 17.4827 35.8906 17.0864 34.8221 17.1096C33.0216 17.1488 31.2183 17.0511 29.4161 17.011C29.4787 16.4692 29.9119 16.4242 30.2948 16.2042C31.5381 15.4895 33.161 15.3759 33.9362 13.8955C34.6663 13.4405 36.1047 14.5401 36.2474 12.7966C37.2534 13.5932 38.2582 12.5225 39.2638 12.795Z" fill="#F33F46"/>
<path d="M6.16632 58.379C11.8126 55.842 17.4588 53.305 23.1052 50.7683C22.4149 53.5163 21.5536 56.2057 20.4805 58.8231C19.7463 58.8274 18.9427 58.583 18.3002 59.011C16.2552 60.3733 13.9778 61.2266 11.778 62.2514C11.0603 60.4992 9.38821 60.0817 7.92595 59.362C7.32451 59.066 6.752 58.7086 6.16632 58.379Z" fill="#845DD3"/>
<path d="M8.50781 18.9616C8.56934 18.2665 8.59942 17.5666 8.69835 16.8771C8.98948 14.8468 10.044 13.849 12.07 13.7977C14.1248 13.7458 16.1843 13.7305 18.2371 13.8159C19.5634 13.8711 20.0001 13.3382 19.9111 12.0364C19.8421 11.0292 19.9573 10.009 19.9907 8.99438C20.8803 8.17533 22.1126 8.33159 23.1198 7.84705C23.0666 9.86124 22.8407 11.8778 23.1977 13.8865C21.143 14.2996 19.5773 15.5378 18.1483 17.0071C16.4764 17.0349 14.8039 17.1004 13.1329 17.0744C12.3105 17.0616 11.8275 17.3225 11.7468 18.1902C10.5426 17.9019 9.70163 19.2046 8.50781 18.9616Z" fill="#F89617"/>
<path d="M23.1197 7.847C22.1126 8.33155 20.8803 8.17529 19.9906 8.99434C20.1311 1.81975 28.2773 -2.37023 34.6883 1.43436C34.2081 2.65805 32.5562 2.36315 32.0522 3.55598C27.5238 2.67526 24.9759 3.89923 23.1197 7.847Z" fill="#F6BB06"/>
<path d="M47.6747 17.4707C48.2865 17.3886 49.0029 17.4218 49.2216 16.6632C49.5234 15.6169 50.1727 16.2099 50.7149 16.2581C51.3081 20.727 51.6894 25.2151 51.9007 29.7181C50.6034 29.5959 50.2078 31.3174 48.9291 31.2334C48.8086 30.8105 48.6119 30.394 48.5792 29.9645C48.262 25.8012 47.9722 21.6357 47.6747 17.4707Z" fill="#DA2778"/>
<path d="M11.7781 62.2513C13.9779 61.2266 16.2554 60.3733 18.3004 59.0109C18.9429 58.5829 19.7464 58.8274 20.4807 58.823C19.737 61.1209 18.9932 63.4186 18.2495 65.7164C16.6321 65.5877 15.6733 67.384 14.0431 67.2174C13.1222 65.641 12.3733 63.9828 11.7781 62.2513Z" fill="#5A80F6"/>
<path d="M24.0027 62.7229C23.2962 61.4803 23.6955 60.273 24.1165 59.0677C24.6366 57.5788 25.16 56.0912 25.682 54.6028C26.3449 54.6678 26.8311 54.2892 27.359 53.9613C27.9182 53.6138 28.5374 53.1413 29.1183 53.9668C28.5908 55.7278 28.0528 57.4857 27.5407 59.2515C27.3013 60.077 26.7229 60.8768 27.2801 61.7913C26.0339 61.5373 25.1263 62.5266 24.0027 62.7229Z" fill="#5A80F6"/>
<path d="M24.0026 62.7229C25.1262 62.5266 26.0338 61.5373 27.2801 61.7914C27.7706 61.8074 28.261 61.8233 28.7514 61.8392C28.9608 61.8346 29.1702 61.8301 29.3795 61.8255C31.4016 61.8315 33.4236 61.8376 35.4456 61.8437C34.7756 63.081 33.4478 63.3384 32.3744 63.9645C31.861 64.264 31.1678 64.2635 30.9095 64.9547C29.6872 64.9784 28.4641 65.0408 27.2427 65.0164C25.6872 64.9853 24.5658 64.249 24.0026 62.7229Z" fill="#3CA3E8"/>
<path d="M8.50782 18.9618C9.70165 19.2047 10.5426 17.902 11.7468 18.19C11.7307 20.7585 11.4802 23.3053 11.0642 25.8369C9.91487 25.6352 8.92454 26.1519 7.91125 26.5646C8.11016 24.0303 8.30899 21.496 8.50782 18.9618Z" fill="#FB5D33"/>
<path d="M52.6018 37.3314C52.8289 39.8755 53.056 42.4196 53.2832 44.9643C52.0966 44.9549 50.8795 44.8599 50.1533 46.1349C49.9506 43.5968 49.748 41.0588 49.5453 38.5206C50.1789 37.0912 51.4384 37.3403 52.6018 37.3314Z" fill="#845DD3"/>
<path d="M52.6018 37.3314C51.4384 37.3403 50.1789 37.0913 49.5454 38.5204C49.203 36.1036 48.9154 33.6821 48.9292 31.2339C50.2078 31.3173 50.6034 29.5959 51.9007 29.7181C52.1344 32.2564 52.3681 34.7939 52.6018 37.3314Z" fill="#A841B3"/>
<path d="M7.91126 26.5644C8.92461 26.1518 9.91495 25.6351 11.0642 25.8368C11.1376 28.1663 10.7632 30.4597 10.5303 32.7645C9.47233 32.9977 8.55305 33.8649 7.3597 33.487C7.24138 31.1539 7.58307 28.8598 7.91126 26.5644Z" fill="#F33F46"/>
<path d="M54.1272 54.9123C53.3158 55.7962 51.9991 55.6739 51.1457 56.4745C50.6842 54.2101 50.5988 51.9077 50.4877 49.6078C51.6538 49.8731 52.4435 48.679 53.567 48.7792C53.7537 50.8235 53.9405 52.8679 54.1272 54.9123Z" fill="#3CA3E8"/>
<path d="M32.0525 3.55601C32.5562 2.36319 34.2081 2.65809 34.6883 1.43433C36.8153 2.54801 38.2139 4.26681 38.8332 6.63371C37.6816 6.44483 36.9615 7.2655 36.1345 7.83648C35.3498 5.83684 33.9474 4.45135 32.0525 3.55601Z" fill="#F89617"/>
<path d="M29.1182 53.9671C28.5374 53.1413 27.9181 53.6138 27.3589 53.9613C26.831 54.2892 26.3447 54.6679 25.6819 54.6028C25.9923 52.5373 27.2242 50.6598 26.8836 48.4611C27.9562 48.738 29.0172 47.6857 30.0941 48.4317C30.4174 50.3962 30.0157 52.2272 29.1182 53.9671Z" fill="#845DD3"/>
<path d="M36.1345 7.8366C36.9613 7.26563 37.6816 6.44496 38.8331 6.63384C38.8332 6.63384 38.8056 6.62355 38.8058 6.62369C38.8766 6.74553 38.9471 6.86729 39.0177 6.98906C39.5588 8.90416 39.4942 10.846 39.2638 12.7952C38.2582 12.5226 37.2533 13.5932 36.2474 12.7968C36.2098 11.1433 36.1721 9.48991 36.1345 7.8366Z" fill="#FB5D33"/>
<path d="M30.0941 48.4313C29.0173 47.6857 27.9563 48.738 26.8837 48.4611C26.4985 47.2315 25.7591 46.2403 24.8733 45.3471C25.5413 44.4096 26.8938 44.4515 27.5036 43.4301C29.0962 44.7037 29.8875 46.4095 30.0941 48.4313Z" fill="#A841B3"/>
<path d="M7.63306 64.6896C8.09582 64.824 8.31287 65.1985 7.99592 65.5325C5.66336 67.99 3.29668 70.4138 0.923087 72.8302C0.692256 73.0652 0.344812 73.0598 0.107199 72.7527C-0.0759446 72.5159 -0.00592123 72.2625 0.177976 72.0743C2.54616 69.6519 4.92003 67.2352 7.29856 64.8234C7.37633 64.7446 7.51919 64.733 7.63306 64.6896Z" fill="#5A80F6"/>
<path d="M53.5669 48.7792C52.4434 48.679 51.6538 49.8732 50.4876 49.6077C50.3761 48.45 50.2647 47.2925 50.1533 46.135C50.8795 44.86 52.0966 44.955 53.2831 44.9643C53.3778 46.2356 53.4723 47.5074 53.5669 48.7792Z" fill="#5A80F6"/>
<path d="M14.043 67.2174C15.6732 67.384 16.632 65.5877 18.2493 65.7165C18.0544 66.4401 17.8911 67.1746 17.6564 67.8846C17.3817 68.716 17.1332 69.5955 15.9939 69.5903C14.9921 69.5857 14.6367 68.8791 14.3344 68.095C14.2238 67.808 14.1394 67.5103 14.043 67.2174Z" fill="#3CA3E8"/>
<path d="M6.00244 72.9995C5.59039 72.8609 5.35113 72.5508 5.692 72.1738C6.69562 71.0637 7.73391 69.984 8.79954 68.9358C9.10341 68.6369 9.50882 68.6865 9.65612 69.1879C9.78774 69.6358 6.52015 73.0482 6.00244 72.9995Z" fill="#3CA3E8"/>
<path d="M4.82595 63.2548C4.7712 63.7438 1.6823 66.9057 1.3032 66.9135C1.13746 66.9169 0.927874 66.8536 0.811877 66.7413C0.611125 66.5467 0.624897 66.2725 0.817701 66.0726C1.85716 64.9948 2.90339 63.9238 3.95874 62.8622C4.1595 62.6603 4.43013 62.6962 4.62718 62.8743C4.7451 62.9809 4.7869 63.1753 4.82595 63.2548Z" fill="#845DD3"/>
<path d="M39.0187 6.98903C38.9478 6.86726 38.877 6.74549 38.8059 6.62366C38.8767 6.74535 38.9477 6.86719 39.0187 6.98903Z" fill="#F89617"/>
<path d="M7.62115 33.6598C7.49666 33.8641 7.37224 34.0685 7.24774 34.2729C7.26117 33.9981 7.18697 33.6674 7.62115 33.6598Z" fill="#F33F46"/>
<path d="M23.1977 13.8865C26.7771 13.8896 30.3565 13.8926 33.9361 13.8956C33.1611 15.3759 31.5382 15.4895 30.2949 16.2042C29.9121 16.4243 29.4788 16.4693 29.4162 17.0111C27.3747 17.0201 25.3331 17.0291 23.2939 17.0375C23.2053 17.084 23.1267 17.147 23.0601 17.226C23.0256 18.0593 22.9911 18.8925 22.9565 19.7255C22.4753 20.248 22.1142 19.049 21.9646 19.4989C21.5311 20.8027 20.6385 19.897 19.9908 20.0771C19.9859 19.3246 19.981 18.572 19.9764 17.8202C20.005 17.5124 19.958 17.2405 19.6417 17.0989C19.1439 17.0684 18.6462 17.0378 18.1483 17.0072C19.5772 15.5378 21.143 14.2996 23.1977 13.8865Z" fill="#FB5D33"/>
<path d="M28.7513 61.8392C28.9615 61.8348 29.1716 61.8303 29.3807 61.8257C29.1701 61.8301 28.9607 61.8346 28.7513 61.8392Z" fill="#5A80F6"/>
<path d="M19.9908 20.0772C20.6385 19.897 21.5311 20.8027 21.9646 19.4989C22.1142 19.0491 22.4753 20.248 22.9566 19.7255C23.1701 20.9924 22.9694 22.198 21.5189 22.2821C20.2136 22.3577 19.7198 21.3827 19.9908 20.0772Z" fill="#F33F46"/>
<path d="M19.6417 17.0989C19.9581 17.2404 20.0051 17.5123 19.9764 17.8201C19.8647 17.5792 19.7532 17.3391 19.6417 17.0989Z" fill="#F33F46"/>
</svg>
